<svg xmlns="http://www.w3.org/2000/svg" width="93.308" height="80" viewBox="0 0 93.308 80">
  <g id="Group_155" data-name="Group 155" transform="translate(-57.8 -295.17)">
    <path id="Path_226" data-name="Path 226" d="M33.39,21.652a3.245,3.245,0,0,1-2.612-2.546c0-.033-.033-.066-.066-.033a.032.032,0,0,0-.033.033,3.2,3.2,0,0,1-2.612,2.546.071.071,0,0,0-.066.066c0,.033.033.033.066.066a3.245,3.245,0,0,1,2.612,2.546c0,.033.033.066.066.033a.032.032,0,0,0,.033-.033,3.2,3.2,0,0,1,2.612-2.546.066.066,0,0,0,0-.132Z" transform="translate(43.543 290.381)" fill="#f5c84c"/>
    <circle id="Ellipse_15" data-name="Ellipse 15" cx="1.6" cy="1.6" r="1.6" transform="translate(57.8 349.297)" fill="#70d6f9"/>
    <path id="Path_227" data-name="Path 227" d="M199.319,209.658h-1.1V208.5a1.5,1.5,0,1,0-3.009,0v1.1h-1.1a1.5,1.5,0,0,0,0,3.009h1.1v1.1a1.5,1.5,0,1,0,3.009,0v-1.1h1.1a1.509,1.509,0,0,0,1.5-1.5A1.437,1.437,0,0,0,199.319,209.658Z" transform="translate(-50.719 90.835)" fill="#70d6f9" stroke="#fff" stroke-width="2"/>
    <circle id="Ellipse_14" data-name="Ellipse 14" cx="1.397" cy="1.397" r="1.397" transform="translate(120.996 361.998)" fill="#f5c84c"/>
    <g id="surface1" transform="translate(58 295.17)">
      <path id="Path_199" data-name="Path 199" d="M87.53,342.823l-6.306-1.292-3.649,3.779-12.438-9.817,8.3-5.661,8.821-9.653a3.319,3.319,0,0,1,5.259.47l10.45,11.985a3.852,3.852,0,0,1-.933,5.841l-6.156,3.666A5.727,5.727,0,0,1,87.53,342.823Zm0,0" transform="translate(-54.789 -268.406)" fill="#ffe7cf"/>
      <path id="Path_200" data-name="Path 200" d="M129.755,388.816l-2.55-2.925-10.634,6.337a5.728,5.728,0,0,1-3.344.682l-5.523-.594-4.771,4.1,6.435,5.079,3.648-3.78L119.323,399a5.731,5.731,0,0,0,3.343-.682l6.157-3.666A3.852,3.852,0,0,0,129.755,388.816Zm0,0" transform="translate(-86.582 -324.588)" fill="#efd5bd"/>
      <path id="Path_201" data-name="Path 201" d="M166.888,304.31c-1.231-1.909-2.731-.943-3.962-2.853s.269-2.876-.963-4.786-2.731-.943-3.962-2.853.268-2.877-.964-4.787c-.753-1.167-2.116-3.578-2.946-3.909l-6.645,3.283,11.565,18.239a3.77,3.77,0,0,0,5.213,1.126l2.213-1.426a1.472,1.472,0,0,0,.462-2.018Zm0,0" transform="translate(-124.022 -239.827)" fill="#344a5d"/>
      <path id="Path_202" data-name="Path 202" d="M89.21,278.213l-5.221,3.221a2.108,2.108,0,0,1-2.9-.687l-2.951-4.783a2.108,2.108,0,0,1,.687-2.9l5.221-3.221a1.305,1.305,0,0,1,1.8.425l3.795,6.15A1.3,1.3,0,0,1,89.21,278.213Zm0,0" transform="translate(-65.46 -226.811)" fill="#344a5d"/>
      <path id="Path_203" data-name="Path 203" d="M106.094,74.714,95.5,81.253a2.966,2.966,0,0,0-.967,4.083l5.226,8.469a2.967,2.967,0,0,0,4.083.967l10.6-6.538,33.517-7.3-20.3-32.907Zm0,0" transform="translate(-79.141 -40.401)" fill="#ffb202"/>
      <path id="Path_204" data-name="Path 204" d="M157.013,206.367l-33.344,7.576-13.122,8.1,3.053,4.948a2.966,2.966,0,0,0,4.083.967l10.6-6.538,33.517-7.3Zm0,0" transform="translate(-92.985 -173.584)" fill="#e29d00"/>
      <path id="Path_205" data-name="Path 205" d="M114.433,229.515l-10.6,6.538a2.966,2.966,0,0,1-4.083-.967l-5.226-8.469a2.966,2.966,0,0,1,.967-4.083l10.6-6.539Zm0,0" transform="translate(-79.139 -181.683)" fill="#fc5a69"/>
      <path id="Path_206" data-name="Path 206" d="M123.669,254.059l-13.122,8.1L113.6,267.1a2.966,2.966,0,0,0,4.083.967l5.3-3.269,5.3-3.269Zm0,0" transform="translate(-92.985 -213.699)" fill="#d93645"/>
      <path id="Path_207" data-name="Path 207" d="M309.7,66.947l-1.447.892a1.6,1.6,0,0,1-2.195-.52L284.228,31.945a1.6,1.6,0,0,1,.52-2.2l1.446-.892a1.594,1.594,0,0,1,2.195.52l21.827,35.375A1.6,1.6,0,0,1,309.7,66.947Zm0,0" transform="translate(-238.875 -24.072)" fill="#fc5a69"/>
      <path id="Path_208" data-name="Path 208" d="M408.034,225.254l-3.591-5.82L400.281,222l3.591,5.819a1.6,1.6,0,0,0,2.195.52l1.447-.892A1.6,1.6,0,0,0,408.034,225.254Zm0,0" transform="translate(-336.692 -184.575)" fill="#d93645"/>
      <path id="Path_209" data-name="Path 209" d="M247,401.237a2.74,2.74,0,0,0,3.767.91l3.993-2.441a2.739,2.739,0,0,0-2.857-4.675l-3.994,2.441A2.74,2.74,0,0,0,247,401.237Zm0,0" transform="translate(-207.425 -331.938)" fill="#ffe7cf"/>
      <path id="Path_210" data-name="Path 210" d="M255.81,396.97a2.722,2.722,0,0,0-1.334-1.118,2.739,2.739,0,0,1-1.285,2.7L249.2,401a2.733,2.733,0,0,1-2.431.209,2.736,2.736,0,0,0,4.142,1.97l3.993-2.441A2.739,2.739,0,0,0,255.81,396.97Zm0,0" transform="translate(-207.565 -332.967)" fill="#efd5bd"/>
      <path id="Path_211" data-name="Path 211" d="M236.2,367.2a2.781,2.781,0,0,0,3.823.923l3.922-2.4a2.78,2.78,0,1,0-2.9-4.745l-3.923,2.4A2.78,2.78,0,0,0,236.2,367.2Zm0,0" transform="translate(-198.336 -303.292)" fill="#ffe7cf"/>
      <path id="Path_212" data-name="Path 212" d="M245,363.042a2.767,2.767,0,0,0-1.309-1.116,2.778,2.778,0,0,1-1.306,2.723l-3.923,2.4a2.775,2.775,0,0,1-2.515.194,2.778,2.778,0,0,0,4.207,2.022l3.922-2.4A2.781,2.781,0,0,0,245,363.042Zm0,0" transform="translate(-198.463 -304.43)" fill="#efd5bd"/>
      <path id="Path_213" data-name="Path 213" d="M217.8,337.521a2.781,2.781,0,0,0,3.823.923l3.923-2.4a2.781,2.781,0,0,0-2.9-4.745l-3.923,2.4A2.78,2.78,0,0,0,217.8,337.521Zm0,0" transform="translate(-182.854 -278.327)" fill="#ffe7cf"/>
      <path id="Path_214" data-name="Path 214" d="M226.573,333.432a2.766,2.766,0,0,0-1.276-1.1,2.779,2.779,0,0,1-1.311,2.682l-3.922,2.4a2.775,2.775,0,0,1-2.547.181,2.775,2.775,0,0,0,4.211,2.063l3.923-2.4A2.78,2.78,0,0,0,226.573,333.432Zm0,0" transform="translate(-182.961 -279.534)" fill="#efd5bd"/>
      <path id="Path_215" data-name="Path 215" d="M200.446,307.084a2.781,2.781,0,0,0,3.823.923l3.923-2.4a2.781,2.781,0,1,0-2.9-4.745l-3.923,2.4A2.781,2.781,0,0,0,200.446,307.084Zm0,0" transform="translate(-168.26 -252.725)" fill="#ffe7cf"/>
      <path id="Path_216" data-name="Path 216" d="M209.454,302.452a2.765,2.765,0,0,0-1.557-1.206,2.779,2.779,0,0,1-1.267,2.953l-3.923,2.4a2.77,2.77,0,0,1-2.266.282,2.773,2.773,0,0,0,4.167,1.793l3.923-2.4A2.781,2.781,0,0,0,209.454,302.452Zm0,0" transform="translate(-168.599 -253.39)" fill="#efd5bd"/>
      <path id="Path_217" data-name="Path 217" d="M136.783,307.448l-.727.444a2.4,2.4,0,0,1-3.306-.749l-1.205-1.971a2.067,2.067,0,0,0-2.861-.638c-.991,7.274-11.329,6.616-11.329,6.616l6.406-9.648a5.152,5.152,0,0,1,1.745-1.8l3.615-2.242a3.681,3.681,0,0,1,5.094,1.136l3.408,5.561A2.4,2.4,0,0,1,136.783,307.448Zm0,0" transform="translate(-98.712 -249.725)" fill="#ffe7cf"/>
      <path id="Path_218" data-name="Path 218" d="M174.5,329.54l-.028-.046a2.472,2.472,0,0,1-.811.8l-.728.445a2.4,2.4,0,0,1-3.3-.75l-1.205-1.97a2.067,2.067,0,0,0-2.861-.639,14.391,14.391,0,0,1-4.363,7.977,6.8,6.8,0,0,0,4.363-5.447,2.067,2.067,0,0,1,2.861.638l1.205,1.971a2.4,2.4,0,0,0,3.3.75l.728-.445A2.4,2.4,0,0,0,174.5,329.54Zm0,0" transform="translate(-135.594 -275.106)" fill="#efd5bd"/>
      <path id="Path_219" data-name="Path 219" d="M90.744,406.219,80.555,394.111l3.355-2.823a.251.251,0,0,1,.353.03l9.867,11.725a.251.251,0,0,1-.03.353Zm0,0" transform="translate(-67.758 -329.078)" fill="#cdd6df"/>
      <path id="Path_220" data-name="Path 220" d="M119.433,432.57l-5.249-6.238-3.547,2.985,5.41,6.43,3.355-2.824A.25.25,0,0,0,119.433,432.57Zm0,0" transform="translate(-93.061 -358.605)" fill="#96a4aa"/>
      <path id="Path_221" data-name="Path 221" d="M402.89,93.969a1.209,1.209,0,0,1-.635-2.24l6.554-4.032a1.209,1.209,0,0,1,1.267,2.06l-6.554,4.032A1.2,1.2,0,0,1,402.89,93.969Zm0,0" transform="translate(-337.868 -73.615)" fill="#ffb202"/>
      <path id="Path_222" data-name="Path 222" d="M447.108,172.514c-.039,0-.079,0-.119-.006l-9.609-.934a1.209,1.209,0,1,1,.234-2.407l9.609.933a1.209,1.209,0,0,1-.116,2.413Zm0,0" transform="translate(-366.979 -142.289)" fill="#ffb202"/>
      <path id="Path_223" data-name="Path 223" d="M368.279,11.417a1.209,1.209,0,0,1-1.126-1.648l3.5-9a1.209,1.209,0,0,1,2.254.877l-3.5,9A1.21,1.21,0,0,1,368.279,11.417Zm0,0" transform="translate(-308.757 -0.001)" fill="#ffb202"/>
      <path id="Path_224" data-name="Path 224" d="M23.714,415.984,12.7,403.065a.265.265,0,0,0-.351-.047L.621,412.276A1.632,1.632,0,0,0,0,413.557v3.767a1.632,1.632,0,0,0,1.632,1.632H20.819a1.634,1.634,0,0,0,1.272-.609L23.7,416.34A.265.265,0,0,0,23.714,415.984Zm0,0" transform="translate(0 -338.955)" fill="#3c5666"/>
      <path id="Path_225" data-name="Path 225" d="M80.918,452.442,75.7,446.316l-7.688,9.1H78.023A1.634,1.634,0,0,0,79.3,454.8l1.611-2.006A.265.265,0,0,0,80.918,452.442Zm0,0" transform="translate(-57.204 -375.414)" fill="#194451"/>
    </g>
  </g>
</svg>
