<svg xmlns="http://www.w3.org/2000/svg" width="121.006" height="80" viewBox="0 0 121.006 80">
  <g id="Group_174" data-name="Group 174" transform="translate(-38.723 -1487.906)">
    <path id="Path_425" data-name="Path 425" d="M32.3,21.128A2.59,2.59,0,0,1,30.217,19.1c0-.026-.026-.053-.053-.026a.026.026,0,0,0-.026.026,2.557,2.557,0,0,1-2.085,2.032.057.057,0,0,0-.053.053c0,.026.026.026.053.053a2.59,2.59,0,0,1,2.085,2.032c0,.026.026.053.053.026a.026.026,0,0,0,.026-.026A2.557,2.557,0,0,1,32.3,21.234a.053.053,0,0,0,0-.106Z" transform="translate(127.375 1540.326)" fill="#e64c3c"/>
    <g id="Asset_1" data-name="Asset 1" transform="translate(42 1487.906)">
      <g id="Layer_2" data-name="Layer 2">
        <g id="Layer_1" data-name="Layer 1">
          <path id="Path_743" data-name="Path 743" d="M111.422,70.423,3.1,70.839,0,0H113.375Z" fill="#afdef5"/>
          <path id="Path_744" data-name="Path 744" d="M97.066,4.29H14.212c.208,4.621-2.576,9.392-8.352,9.681L7.743,55.559h.243c6.111,0,9.08,4.852,8.93,9.588l78.614-.289c-.2-4.76,2.773-9.692,8.918-9.692h.219l1.155-41.415C99.873,13.728,96.939,8.969,97.066,4.29Z" transform="translate(0.91 0.666)" fill="#fbf9f4"/>
          <path id="Path_745" data-name="Path 745" d="M40.683,1.63H2.56L3.992,33.561C8.255,30.014,33,8.989,40.683,1.63Z" transform="translate(0.397 0.253)" fill="#b7e7ff" opacity="0.55"/>
          <path id="Path_746" data-name="Path 746" d="M104.177,1.63H92.139C76.416,25.971,56.165,46.777,37.15,68.564l26.825-.1C65.765,65.6,104.177,1.63,104.177,1.63Z" transform="translate(5.767 0.253)" fill="#b7e7ff" opacity="0.55"/>
          <path id="Path_747" data-name="Path 747" d="M78.31,63.227l18.033-.069.8-28.338C90.948,44.385,84.329,53.708,78.31,63.227Z" transform="translate(12.156 5.405)" fill="#b7e7ff" opacity="0.55"/>
          <path id="Path_748" data-name="Path 748" d="M19.44,68.654c18.8-22.435,39.682-43.229,56.606-67H64.24C60.948,5.52,12.659,48.68,4.63,55.438L5.208,68.7Z" transform="translate(0.719 0.256)" fill="#b7e7ff" opacity="0.55"/>
          <path id="Path_749" data-name="Path 749" d="M36.671,27.639c.924,0,1.814-.682,2.507-2.045v-.116l.219.162v.116a3.674,3.674,0,0,1-3.108,2.391c-1.525,0-3.05-1.305-3.05-4.043,0-3.593,1.964-5.164,3.408-5.164a2.126,2.126,0,0,1,2.172,2.31c0,1.317-.878,2.414-1.825,2.414a1.155,1.155,0,0,1-1.155-1.155,2.033,2.033,0,0,1,.843-1.56l.139.139a2.068,2.068,0,0,0-.543,1.363c0,.612.323.982.7.982s1.1-.8,1.1-2.23S37.457,19.3,36.659,19.3s-2.565,1.017-2.565,4.621C34.118,26.38,35.377,27.639,36.671,27.639Z" transform="translate(5.16 2.94)" fill="#232323"/>
          <path id="Path_750" data-name="Path 750" d="M41.642,24.98l.058-.116.219.162v.116c-.762,1.525-1.525,2.126-2.183,2.126-.924,0-1.456-.832-1.456-1.8,0-1.525.913-2.565,1.871-2.565a.67.67,0,0,1,.751.658c0,.716-.89,1.248-1.906,1.871.1.739.485,1.236,1.086,1.236S41.041,26.17,41.642,24.98Zm-1.848-1.721c-.37,0-.878.508-.878,1.779v.127c.5-.266,1.271-.866,1.271-1.444a.416.416,0,0,0-.393-.462Z" transform="translate(5.942 3.554)" fill="#232323"/>
          <path id="Path_751" data-name="Path 751" d="M41.22,25.032l.058-.116a4.159,4.159,0,0,0,.37-1.155A.716.716,0,0,1,41,23.068a.485.485,0,0,1,.5-.508c.347,0,.508.312.508.635.4,0,.947-.277,1.329-.277.173,0,.277.069.277.219a25.414,25.414,0,0,0-.682,3.05c0,.381.081.5.3.5s.474-.15,1.236-1.652l.058-.116.219.162-.058.116c-.843,1.7-1.294,2.126-1.791,2.126s-.739-.323-.739-.982c0-1.1.982-2.461,1.155-3.108h0c-.231,0-.8.578-1.352.635a4.621,4.621,0,0,1-.416,1.248v.116ZM41.37,23c0,.162.2.243.3.243,0-.2-.069-.347-.185-.347a.1.1,0,0,0-.116.1Z" transform="translate(6.365 3.502)" fill="#232323"/>
          <path id="Path_752" data-name="Path 752" d="M44.194,23.517H43.72l.058-.323h.462c.092-.716.208-1.444.3-2.183h.543c0,.312-.116,1.225-.162,2.183H45.95v.323h-.994c-.058.809-.092,1.594-.092,2.022,0,1.086.139,1.421.4,1.421s.878-.774,1.34-1.687v-.116l.219.162v.116c-.658,1.329-1.294,2.126-1.848,2.126s-.936-.5-.936-1.744a22.564,22.564,0,0,1,.15-2.3Z" transform="translate(6.787 3.261)" fill="#232323"/>
          <path id="Path_753" data-name="Path 753" d="M46.479,25.127v.219l-.219-.162v-.116a10.709,10.709,0,0,0,.531-1.744.578.578,0,0,1,.439-.219c.15,0,.2.058.2.219s-.162,1.317-.162,2.553c0,.89.185.97.358.97s.543-.347,1.155-1.664l.058-.116.219.162v.116c-.531,1.051-1.074,2.126-1.629,2.126s-.843-.427-.843-1.744v-.6Zm.635-2.669a.427.427,0,0,1-.439-.439.439.439,0,0,1,.439-.439.439.439,0,1,1,0,.878Z" transform="translate(7.181 3.35)" fill="#232323"/>
          <path id="Path_754" data-name="Path 754" d="M50.761,25.351l.219.162v.116a1.295,1.295,0,0,1-1.7.762v4.043h-.543s-.219-3.015-.219-6.481c0-2.726.647-4.194,1.363-4.194.277,0,.5.162.5.658a13.863,13.863,0,0,1-1.155,4.205v1.155a.774.774,0,0,0,.566.243A.994.994,0,0,0,50.7,25.4Zm-1.525-1.386a10.4,10.4,0,0,0,.658-3.246c0-.323-.058-.543-.231-.543a6.5,6.5,0,0,0-.427,2.992Z" transform="translate(7.532 3.067)" fill="#232323"/>
          <path id="Path_755" data-name="Path 755" d="M50.737,25.127l-.058.1v.116l-.219-.162v-.116A9.97,9.97,0,0,0,51,23.324c.069-.162.358-.219.427-.219a.207.207,0,0,1,.2.219c0,.162-.15,1.317-.15,2.553,0,.89.185.97.347.97s.543-.347,1.155-1.664l.058-.116.219.162v.116c-.531,1.051-1.074,2.126-1.64,2.126s-.832-.427-.832-1.744v-.6Zm.658-2.669a.427.427,0,0,1-.439-.439.439.439,0,0,1,.439-.439.439.439,0,0,1,0,.878Z" transform="translate(7.833 3.35)" fill="#232323"/>
          <path id="Path_756" data-name="Path 756" d="M54.7,23.674c0-.243-.1-.451-.416-.451s-.913.6-.913,1.814c0,.959.416,1.629,1.1,1.629s1.028-.5,1.629-1.687v-.116l.219.162v.116c-.774,1.525-1.536,2.126-2.183,2.126-.924,0-1.456-.832-1.456-1.8,0-1.525.913-2.565,1.756-2.565.658,0,.866.416.866.716a.866.866,0,0,1-.7.751v-.139A1.155,1.155,0,0,0,54.7,23.674Z" transform="translate(8.178 3.555)" fill="#232323"/>
          <path id="Path_757" data-name="Path 757" d="M59.163,26.666c.208,0,.5-.393,1.028-1.479l.162-.323.219.162-.162.335c-.6,1.155-1.017,1.906-1.467,1.906s-.624-.555-.67-1.225c-.347.682-.82,1.225-1.317,1.225-.716,0-1.386-.6-1.386-1.86,0-1.467.832-2.507,1.768-2.507a1.294,1.294,0,0,1,1.063.878v-.52c0-.266.531-.358.647-.358s.1,0,.1.116a18.843,18.843,0,0,0-.277,2.923C58.932,26.343,58.989,26.666,59.163,26.666ZM57.418,23.2c-.612,0-1.155.739-1.155,1.8s.37,1.64.924,1.64,1.1-.809,1.1-2.126c.092-.635-.37-1.294-.866-1.294Z" transform="translate(8.626 3.555)" fill="#232323"/>
          <path id="Path_758" data-name="Path 758" d="M59.9,23.517H59.41l.058-.323h.462c.1-.716.208-1.444.3-2.183h.543c0,.312-.116,1.225-.162,2.183H61.64v.323H60.635c0,.809-.092,1.594-.092,2.022,0,1.086.139,1.421.4,1.421s.89-.774,1.34-1.687v-.116l.219.162-.058.116c-.658,1.329-1.294,2.126-1.848,2.126s-.878-.5-.878-1.744a19.739,19.739,0,0,1,.173-2.3Z" transform="translate(9.222 3.261)" fill="#232323"/>
          <path id="Path_759" data-name="Path 759" d="M65.129,24.98v-.116l.219.162v.116c-.762,1.525-1.525,2.126-2.183,2.126-.924,0-1.456-.832-1.456-1.8,0-1.525.913-2.565,1.871-2.565a.67.67,0,0,1,.762.658c0,.716-.9,1.248-1.918,1.871.1.739.5,1.236,1.086,1.236S64.529,26.17,65.129,24.98Zm-1.848-1.721c-.37,0-.878.508-.878,1.779v.127c.5-.266,1.271-.866,1.271-1.444a.416.416,0,0,0-.393-.462Z" transform="translate(9.58 3.554)" fill="#232323"/>
          <path id="Path_760" data-name="Path 760" d="M54.649,13.828h0l.173.069a1.467,1.467,0,0,0,.323.069.982.982,0,0,0,.6-.127,1.305,1.305,0,0,0,.451-.555,1.537,1.537,0,0,0,.15-.589.913.913,0,0,0-1.086,0,1.906,1.906,0,0,0-.52.658,6.424,6.424,0,0,0,.1-.947l.347.058a.959.959,0,0,0,.589-.15,1.017,1.017,0,0,0,.416-.531,1.617,1.617,0,0,0,0-.624.866.866,0,0,0-.913.116,1.583,1.583,0,0,0-.462.809,8.5,8.5,0,0,0-.069-.947h.289a.982.982,0,0,0,.543-.173.866.866,0,0,0,.289-.543,1.259,1.259,0,0,0,0-.624.843.843,0,0,0-.762.139,1.236,1.236,0,0,0-.358.809.231.231,0,0,0,0,.081h0a3.351,3.351,0,0,0-.208-.878h.116a1.04,1.04,0,0,0,.543-.173.786.786,0,0,0,.277-.543,1.155,1.155,0,0,0,0-.347,1.641,1.641,0,0,0-.081-.254.786.786,0,0,0-.635.15A.924.924,0,0,0,54.5,9.4a1.514,1.514,0,0,0,0,.323c-.092-.277-.208-.555-.323-.832h.266a.716.716,0,0,0,.254-.116.843.843,0,0,0,.116-1.155.7.7,0,0,0-.485.139.647.647,0,0,0-.243.416,1.56,1.56,0,0,0,0,.566c-.1-.219-.208-.439-.323-.658l-.069-.116h.081l.289-.116a.566.566,0,0,0,.289-.508,1.051,1.051,0,0,0-.173-.555.624.624,0,0,0-.578.323.959.959,0,0,0,0,.624v.15a10.641,10.641,0,0,0-.566-.9L52.824,6.7h0c.185.266.358.543.52.82a8.6,8.6,0,0,1,.485.913h0a.728.728,0,0,0-.116-.139,1.155,1.155,0,0,0-.312-.2.589.589,0,0,0-.578.173h0a.774.774,0,0,0,.427.381.7.7,0,0,0,.635-.139h0a.935.935,0,0,0,.127.3l.139.347-.069-.1a1.155,1.155,0,0,0-.2-.208.624.624,0,0,0-.358-.139.7.7,0,0,0-.474.2.9.9,0,0,0,.451.451.762.762,0,0,0,.635,0h.069a1.688,1.688,0,0,1,.081.219,3.824,3.824,0,0,1,.139.485l-.1-.162a.774.774,0,0,0-.462-.323.7.7,0,0,0-.6.162,1.017,1.017,0,0,0,.347.474.82.82,0,0,0,.589.116h.254V10.4a5.017,5.017,0,0,0,.127.7h0a1.063,1.063,0,0,0-.312-.4.635.635,0,0,0-.5-.139.855.855,0,0,0-.381.15,1,1,0,0,0,.277.508.832.832,0,0,0,.566.208,1.155,1.155,0,0,0,.347,0h0a5.257,5.257,0,0,1,0,.6v.219a1.155,1.155,0,0,0-.277-.52.832.832,0,0,0-.959-.081,1.074,1.074,0,0,0,.243.566.866.866,0,0,0,.52.289,1.017,1.017,0,0,0,.323,0h.15a5.234,5.234,0,0,1-.092.855.959.959,0,0,0-.127-.427.716.716,0,0,0-.508-.393.947.947,0,0,0-.566,0,1.063,1.063,0,0,0,.116.566.936.936,0,0,0,.474.416,1.317,1.317,0,0,0,.289.069h.277c-.069.289-.15.578-.243.855a1.156,1.156,0,0,0,0-.277.809.809,0,0,0-.347-.578,1.155,1.155,0,0,0-.774-.116,1.086,1.086,0,0,0,0,.578.878.878,0,0,0,.37.5,1.352,1.352,0,0,0,.624.219L54,14.925a5.348,5.348,0,0,1-.358.67v-.162a.866.866,0,0,0-.266-.8,1.155,1.155,0,0,0-.762-.219,1.017,1.017,0,0,0,.2,1.155,1.5,1.5,0,0,0,.508.312h.069a6.122,6.122,0,0,1-.624.728.878.878,0,0,0,0-.809,1.155,1.155,0,0,0-.809-.508,1.063,1.063,0,0,0,.127.994,1.433,1.433,0,0,0,.4.427l.081.058h-.081a6.609,6.609,0,0,1-.658.451l-.116.069a.947.947,0,0,0,.312-.924,1.155,1.155,0,0,0-.647-.658,1.537,1.537,0,0,0-.2.185,1.375,1.375,0,0,0-.185.266,1.04,1.04,0,0,0-.116.67,1.213,1.213,0,0,0,.208.508l.15.2h-.1a11.437,11.437,0,0,1-1.536.52,11.957,11.957,0,0,1-1.479.266l-.589.058h0l-.069.116a2.1,2.1,0,0,1-.173.266h.4a11.3,11.3,0,0,0,2.969-.67,7.66,7.66,0,0,0,1.086-.5,1.883,1.883,0,0,0,.127.266,1.155,1.155,0,0,0,.474.451,1.225,1.225,0,0,0,.762.081,2.553,2.553,0,0,0,1.236-.647.878.878,0,0,0-.462-.589,1.814,1.814,0,0,0-1.282,0l-.243.069a5.372,5.372,0,0,0,.832-.7h0a1.329,1.329,0,0,0,.555.416,1.155,1.155,0,0,0,.774,0,2.126,2.126,0,0,0,1.017-.913l-.058-.081a.994.994,0,0,0-.555-.347,1.305,1.305,0,0,0-.728.092,3.616,3.616,0,0,0-.624.347,4.759,4.759,0,0,0,.543-.866,1.467,1.467,0,0,0,.578.266,1,1,0,0,0,.635-.069,1.513,1.513,0,0,0,.555-.485,2,2,0,0,0,.289-.589h0a.959.959,0,0,0-.624-.243,1.155,1.155,0,0,0-.682.231,2.992,2.992,0,0,0-.4.358l-.081.1a7.256,7.256,0,0,0,.312-.924Z" transform="translate(7.341 1.04)" fill="#ffba2b"/>
          <path id="Path_761" data-name="Path 761" d="M51.064,18.481h0l-.6-.058a12.789,12.789,0,0,1-1.479-.266,10.756,10.756,0,0,1-1.525-.52h-.116l.15-.2a1.421,1.421,0,0,0,.219-.508,1.051,1.051,0,0,0-.127-.67A1.375,1.375,0,0,0,47.4,16l-.185-.185a1.155,1.155,0,0,0-.658.658.982.982,0,0,0,.312.924l-.116-.069a6.608,6.608,0,0,1-.658-.451h-.069l.069-.058a1.294,1.294,0,0,0,.4-.427,1.086,1.086,0,0,0-.069-1.213,1.155,1.155,0,0,0-.82.508.913.913,0,0,0,0,.809h0a6.123,6.123,0,0,1-.624-.728h.069a1.687,1.687,0,0,0,.52-.312,1.04,1.04,0,0,0,.185-1.155,1.155,1.155,0,0,0-.762.219.866.866,0,0,0-.254.8.9.9,0,0,0,0,.162,7.35,7.35,0,0,1-.347-.67l-.069-.162a1.352,1.352,0,0,0,.624-.219.936.936,0,0,0,.37-.5,1.225,1.225,0,0,0,0-.578,1.155,1.155,0,0,0-.774.116.809.809,0,0,0-.347.578,1.155,1.155,0,0,0,0,.277,5.534,5.534,0,0,1-.243-.855h.3a1.155,1.155,0,0,0,.289-.069.843.843,0,0,0,.474-.416,1.155,1.155,0,0,0,.127-.566.982.982,0,0,0-.578,0,.739.739,0,0,0-.508.393,1.4,1.4,0,0,0-.127.427,6.931,6.931,0,0,1-.092-.855h.15a1.086,1.086,0,0,0,.335,0,.866.866,0,0,0,.52-.289,1.155,1.155,0,0,0,.231-.566.82.82,0,0,0-.947.081,1.224,1.224,0,0,0-.289.52v-.82h0a1.155,1.155,0,0,0,.347,0,.82.82,0,0,0,.566-.208,1.028,1.028,0,0,0,.289-.508.959.959,0,0,0-.393-.15.624.624,0,0,0-.393.081,1.155,1.155,0,0,0-.323.4h0a5.062,5.062,0,0,1,.139-.7v-.058h.254a.809.809,0,0,0,.589-.116.947.947,0,0,0,.347-.474.693.693,0,0,0-.6-.162.716.716,0,0,0-.4.416.82.82,0,0,0-.116.162l.116-.485.081-.219h.081a.739.739,0,0,0,.624,0,.855.855,0,0,0,.451-.451.682.682,0,0,0-.462-.2.693.693,0,0,0-.37.139,1.051,1.051,0,0,0-.2.2l-.081.1.139-.347.139-.3h0a.682.682,0,0,0,.612.1.774.774,0,0,0,.462-.323h0a.589.589,0,0,0-.578-.173.9.9,0,0,0-.3.2.5.5,0,0,0-.127.139h0c.15-.312.312-.624.485-.913s.347-.555.531-.82h0l-.208.289c-.2.3-.393.589-.566.9V7.68a1.04,1.04,0,0,0,0-.624.6.6,0,0,0-.566-.323.97.97,0,0,0-.185.555.578.578,0,0,0,.3.508,1.675,1.675,0,0,0,.289.116h.069a.358.358,0,0,1-.058.116c-.116.219-.231.439-.335.658a1.56,1.56,0,0,0,0-.566.635.635,0,0,0-.231-.416.762.762,0,0,0-.5-.139.832.832,0,0,0,.127,1.155.67.67,0,0,0,.243.116H44.4q-.173.416-.312.832a3.142,3.142,0,0,0,0-.323.878.878,0,0,0-.266-.624.774.774,0,0,0-.635-.15.913.913,0,0,0-.069.254,1.155,1.155,0,0,0,0,.347.7.7,0,0,0,.277.543.982.982,0,0,0,.543.173h.116a5.707,5.707,0,0,0-.208.878h0a.173.173,0,0,1,0-.081,1.363,1.363,0,0,0-.358-.809.855.855,0,0,0-.762-.139,1.421,1.421,0,0,0,0,.624.889.889,0,0,0,.3.543.936.936,0,0,0,.531.173h.277a8.515,8.515,0,0,0,0,.947,1.583,1.583,0,0,0-.462-.809.878.878,0,0,0-.913-.116,1.271,1.271,0,0,0,.058.624.947.947,0,0,0,.381.566.959.959,0,0,0,.589.15l.347-.058a8.491,8.491,0,0,0,.116.947,2.23,2.23,0,0,0-.52-.658.97.97,0,0,0-.635-.2.924.924,0,0,0-.462.162,1.768,1.768,0,0,0,.15.589,1.329,1.329,0,0,0,.462.555.947.947,0,0,0,.589.127,1.733,1.733,0,0,0,.335-.069l.162-.069h0a9.773,9.773,0,0,0,.323.924l-.092-.1a2.31,2.31,0,0,0-.393-.358A1.155,1.155,0,0,0,43.173,14a.9.9,0,0,0-.612.243h0a2.31,2.31,0,0,0,.3.589,1.421,1.421,0,0,0,.555.485.993.993,0,0,0,.635.069,1.5,1.5,0,0,0,.566-.266,5.534,5.534,0,0,0,.555.866,4.1,4.1,0,0,0-.624-.347,1.363,1.363,0,0,0-.739-.092,1.04,1.04,0,0,0-.555.347l-.058.081a2.126,2.126,0,0,0,1.017.913,1.155,1.155,0,0,0,.774,0,1.363,1.363,0,0,0,.566-.416h0a5.372,5.372,0,0,0,.832.7l-.243-.069a1.814,1.814,0,0,0-1.282,0,.82.82,0,0,0-.462.589,2.507,2.507,0,0,0,1.236.647,1.236,1.236,0,0,0,.762-.081,1.028,1.028,0,0,0,.462-.451,1.155,1.155,0,0,0,.127-.266,7.8,7.8,0,0,0,1.1.5,11.114,11.114,0,0,0,2.957.67h.4l-.254-.1Z" transform="translate(6.571 1.031)" fill="#ffc346"/>
          <circle id="Ellipse_59" data-name="Ellipse 59" cx="2.53" cy="2.53" r="2.53" transform="translate(53.707 10.027)" fill="#ffc346"/>
          <rect id="Rectangle_74" data-name="Rectangle 74" width="60.269" height="3.893" transform="translate(26.513 35.073)" fill="#ccc"/>
          <rect id="Rectangle_75" data-name="Rectangle 75" width="75.726" height="3.893" transform="translate(18.784 42.039)" fill="#ccc"/>
          <rect id="Rectangle_76" data-name="Rectangle 76" width="60.269" height="3.893" transform="translate(26.513 49.005)" fill="#ccc"/>
          <path id="Path_762" data-name="Path 762" d="M89.159,69.18l-4.217-2.16-1.456,4.517L77.41,56.877l5.672-2.357Z" transform="translate(12.017 8.463)" fill="#d64900"/>
          <path id="Path_763" data-name="Path 763" d="M66.83,69.18l4.217-2.16L72.5,71.537l6.077-14.66L72.907,54.52Z" transform="translate(10.374 8.463)" fill="#d64900"/>
          <path id="Path_764" data-name="Path 764" d="M79.41,36.453l.555-.936a.716.716,0,0,1,1.305.162l.3,1.051a.728.728,0,0,0,1.155.3l.774-.762a.7.7,0,0,1,1.155.474v1.1a.716.716,0,0,0,1.086.589l.936-.555a.716.716,0,0,1,1.063.774l-.231,1.063a.716.716,0,0,0,.9.843l1.04-.3a.716.716,0,0,1,.843,1.017l-.5.97a.716.716,0,0,0,.658,1.04H91.54a.716.716,0,0,1,.566,1.155l-.716.82a.716.716,0,0,0,.381,1.155l1.063.243a.716.716,0,0,1,.243,1.294l-.9.612a.716.716,0,0,0,.081,1.225l.97.5a.716.716,0,0,1-.092,1.317l-1.017.37a.716.716,0,0,0-.231,1.213l.809.716a.716.716,0,0,1-.4,1.248l-1.086.1a.728.728,0,0,0-.52,1.155l.612.9a.716.716,0,0,1-.7,1.155L89.518,58.3a.7.7,0,0,0-.786.947l.37,1.017a.716.716,0,0,1-.959.9l-1.005-.427a.716.716,0,0,0-.993.728l.092,1.086a.7.7,0,0,1-1.155.624l-.866-.658a.716.716,0,0,0-1.155.451l-.173,1.074a.716.716,0,0,1-1.271.323l-.67-.855a.716.716,0,0,0-1.225.15l-.439,1.005a.7.7,0,0,1-1.305,0l-.439-1.005a.716.716,0,0,0-1.225-.15l-.67.855a.716.716,0,0,1-1.271-.323l.046-1.144a.716.716,0,0,0-1.155-.451L72.4,63.1a.7.7,0,0,1-1.155-.624l.092-1.086a.716.716,0,0,0-.993-.728l-.994.427a.716.716,0,0,1-.959-.9l.358-1.017a.7.7,0,0,0-.786-.947l-1.074.162a.716.716,0,0,1-.7-1.155l.612-.9a.716.716,0,0,0-.52-1.155l-1.1-.023a.716.716,0,0,1-.4-1.248l.809-.716a.716.716,0,0,0-.231-1.213l-1.017-.37a.716.716,0,0,1-.081-1.317l.959-.5a.716.716,0,0,0,.081-1.225l-.9-.612a.716.716,0,0,1,.254-1.294l1.063-.243a.716.716,0,0,0,.381-1.155l-.728-.82a.716.716,0,0,1,.566-1.155h1.086a.716.716,0,0,0,.658-1.04l-.485-.97a.716.716,0,0,1,.832-1.017l1.051.3a.7.7,0,0,0,.89-.843l-.231-1.063a.716.716,0,0,1,1.063-.774l.936.555a.716.716,0,0,0,1.086-.589v-1.1a.716.716,0,0,1,1.225-.474l.762.762a.728.728,0,0,0,1.155-.3l.3-1.051a.716.716,0,0,1,1.305-.162l.555.936a.728.728,0,0,0,1.294-.012Z" transform="translate(9.913 5.459)" fill="#ffc346"/>
          <circle id="Ellipse_60" data-name="Ellipse 60" cx="11.097" cy="11.097" r="11.097" transform="translate(73.755 49.395) rotate(-22.443)" fill="#f7f4ea"/>
          <circle id="Ellipse_61" data-name="Ellipse 61" cx="8.861" cy="8.861" r="8.861" transform="translate(76.915 51.116) rotate(-26.31)" fill="#ffc346"/>
          <path id="Path_765" data-name="Path 765" d="M77.622,42.5l1.352,4.17h4.378L79.8,49.247l1.363,4.17-3.547-2.576-3.547,2.576,1.352-4.17L71.88,46.67h4.378Z" transform="translate(11.158 6.597)" fill="#f7f4ea"/>
          <rect id="Rectangle_77" data-name="Rectangle 77" width="36.991" height="1.005" transform="translate(24.156 62.983)" fill="#ccc"/>
          <path id="Path_766" data-name="Path 766" d="M27.819,56.884a1.155,1.155,0,0,1-.589-.15,1.594,1.594,0,0,1-.555-.658,8.71,8.71,0,0,1-.809-2.207,1.409,1.409,0,0,1,0-.762,1.479,1.479,0,0,1,.774-.843,4.69,4.69,0,0,1,3.72-.323,7.659,7.659,0,0,1,1.329.7,6.585,6.585,0,0,0,.566-1.848l.069-.52a3.939,3.939,0,0,1,.751-2.31.4.4,0,0,1,.566,0,.416.416,0,0,1,0,.578,3.3,3.3,0,0,0-.52,1.791c0,.185,0,.358,0,.543a4.76,4.76,0,0,1-.67,2.137,6.25,6.25,0,0,0,.8.381,4.194,4.194,0,0,0,3.466-.231c.185-.092.358-.208.543-.323a6.273,6.273,0,0,1,.866-.5,2.137,2.137,0,0,1,1.895,0,3.189,3.189,0,0,1,.451.323,2.807,2.807,0,0,0,.289.231,1.409,1.409,0,0,0,1.329-.092,4.471,4.471,0,0,0,1.155-1.086l.092-.1.589.555h0a.9.9,0,0,0,.2.081,1.559,1.559,0,0,0,.5-.069,3.119,3.119,0,0,1,.555-.1,2.969,2.969,0,0,1,1.259.3,2.033,2.033,0,0,0,.982.219,2,2,0,0,0,.52-.231,2.31,2.31,0,0,1,.832-.312,2.472,2.472,0,0,1,1.248.254,1.5,1.5,0,0,0,.89.185.4.4,0,0,1,.5.266.393.393,0,0,1-.266.508,2.045,2.045,0,0,1-1.421-.208,1.918,1.918,0,0,0-.843-.208,1.837,1.837,0,0,0-.555.231,2.772,2.772,0,0,1-.751.312,2.576,2.576,0,0,1-1.432-.277,2.414,2.414,0,0,0-.913-.231.834.834,0,0,0-.4.069,2.068,2.068,0,0,1-.774.092,1.04,1.04,0,0,1-.624-.312,3.951,3.951,0,0,1-.9.728,2.149,2.149,0,0,1-2.149.092,3.466,3.466,0,0,1-.4-.312,2.182,2.182,0,0,0-.312-.231,1.444,1.444,0,0,0-1.155,0,7.533,7.533,0,0,0-.762.439c-.185.127-.381.243-.589.358a5.014,5.014,0,0,1-4.09.277,9.507,9.507,0,0,1-.913-.427,7.717,7.717,0,0,1-3.3,2.957,2.38,2.38,0,0,1-1.017.266Zm1.04-4.378a3.674,3.674,0,0,0-1.848.474c-.231.116-.358.243-.381.347a.832.832,0,0,0,0,.37,8.329,8.329,0,0,0,.739,2,.786.786,0,0,0,.254.335c.139.092.381,0,.716-.1A6.931,6.931,0,0,0,31.285,53.3a6.4,6.4,0,0,0-1.236-.6,3.558,3.558,0,0,0-1.19-.2Z" transform="translate(4.007 7.428)" fill="#58abca"/>
          <path id="Path_767" data-name="Path 767" d="M113.375,0H0L3.1,70.839l77.054-.3-2.946,7.1,4.217-2.16L82.877,80,86.8,70.516l4.76-.012L95.5,80l1.456-4.517,4.217,2.16-2.969-7.162,13.216-.058Z" fill="none" opacity="0.55"/>
        </g>
      </g>
    </g>
    <ellipse id="Ellipse_42" data-name="Ellipse 42" cx="2.138" cy="2.138" rx="2.138" ry="2.138" transform="translate(49.563 1550.491)" fill="#f5c84c"/>
    <ellipse id="Ellipse_62" data-name="Ellipse 62" cx="1.138" cy="1.138" rx="1.138" ry="1.138" transform="translate(38.723 1518.491)" fill="#f5c84c"/>
    <path id="Path_768" data-name="Path 768" d="M32.3,21.128A2.59,2.59,0,0,1,30.217,19.1c0-.026-.026-.053-.053-.026a.026.026,0,0,0-.026.026,2.557,2.557,0,0,1-2.085,2.032.057.057,0,0,0-.053.053c0,.026.026.026.053.053a2.59,2.59,0,0,1,2.085,2.032c0,.026.026.053.053.026a.026.026,0,0,0,.026-.026A2.557,2.557,0,0,1,32.3,21.234a.053.053,0,0,0,0-.106Z" transform="translate(19.347 1473.326)" fill="#e64c3c"/>
  </g>
</svg>
