<svg xmlns="http://www.w3.org/2000/svg" width="68.451" height="80" viewBox="0 0 68.451 80">
  <g id="claim" transform="translate(-36.958)">
    <path id="Path_795" data-name="Path 795" d="M90.169,6.621V65.334a3.881,3.881,0,0,1-3.881,3.881H43.579a6.62,6.62,0,0,1-6.621-6.621V15.549a2.375,2.375,0,0,1,.692-1.681L50.823.7A2.377,2.377,0,0,1,52.514,0H83.548A6.62,6.62,0,0,1,90.169,6.621Z" transform="translate(0 0)" fill="#edf4fc"/>
    <g id="Group_178" data-name="Group 178" transform="translate(36.958 0)">
      <path id="Path_797" data-name="Path 797" d="M54.862,15.441c0,.017,0,.036,0,.055s0,.036,0,.053A2.348,2.348,0,0,1,52.514,17.9H36.958V15.55a2.375,2.375,0,0,1,.692-1.681L50.823.7A2.376,2.376,0,0,1,52.514,0h2.348Z" transform="translate(-36.958 0)" fill="#00a5ff"/>
      <path id="Path_798" data-name="Path 798" d="M129.178,153.175H99.463a2.348,2.348,0,1,1,0-4.7h29.715a2.348,2.348,0,1,1,0,4.7Z" transform="translate(-87.715 -125.278)" fill="#8a88ff"/>
      <path id="Path_799" data-name="Path 799" d="M129.178,211.151H99.463a2.348,2.348,0,1,1,0-4.7h29.715a2.348,2.348,0,1,1,0,4.7Z" transform="translate(-87.715 -174.196)" fill="#00a5ff"/>
      <path id="Path_800" data-name="Path 800" d="M129.178,271.443H99.463a2.348,2.348,0,1,1,0-4.7h29.715a2.348,2.348,0,1,1,0,4.7Z" transform="translate(-87.715 -225.067)" fill="#8a88ff"/>
      <path id="Path_801" data-name="Path 801" d="M111.412,331.274H99.463a2.348,2.348,0,1,1,0-4.7h11.948a2.348,2.348,0,1,1,0,4.7Z" transform="translate(-87.715 -275.549)" fill="#00a5ff"/>
    </g>
    <path id="Path_802" data-name="Path 802" d="M310.457,332.167a15.239,15.239,0,1,1-15.239-15.241A15.256,15.256,0,0,1,310.457,332.167Z" transform="translate(-205.048 -267.406)" fill="#8a88ff"/>
    <g id="Group_179" data-name="Group 179" transform="translate(87.82 56.465)">
      <path id="Path_804" data-name="Path 804" d="M367.176,363.721v5.948a2.348,2.348,0,1,1-4.7,0v-5.948a2.348,2.348,0,0,1,4.7,0Z" transform="translate(-362.479 -361.373)" fill="#ffb64c"/>
      <path id="Path_805" data-name="Path 805" d="M367.175,441.564a2.272,2.272,0,0,1-.013.23,2.24,2.24,0,0,1-.034.229,2.069,2.069,0,0,1-.056.222c-.022.074-.049.146-.077.218s-.063.139-.1.207a2.243,2.243,0,0,1-.117.2,2.269,2.269,0,0,1-.138.186,2.011,2.011,0,0,1-.155.171c-.053.055-.111.106-.171.157s-.122.094-.186.136a2.23,2.23,0,0,1-.2.117c-.067.036-.138.069-.208.1s-.142.055-.216.078a2.2,2.2,0,0,1-.222.055,1.872,1.872,0,0,1-.229.034,2.272,2.272,0,0,1-.23.012,2.3,2.3,0,0,1-.232-.012,1.894,1.894,0,0,1-.227-.034,2.185,2.185,0,0,1-.224-.055c-.074-.023-.146-.049-.216-.078s-.141-.063-.208-.1-.133-.075-.2-.117-.127-.089-.186-.136-.116-.1-.171-.157a2.006,2.006,0,0,1-.155-.171c-.049-.06-.094-.122-.136-.186s-.083-.13-.119-.2a2.02,2.02,0,0,1-.1-.207,2.276,2.276,0,0,1-.078-.218c-.022-.072-.041-.147-.056-.222a2.232,2.232,0,0,1-.034-.229,2.3,2.3,0,0,1,.034-.689c.016-.075.034-.15.056-.224a2.245,2.245,0,0,1,.078-.216,2.1,2.1,0,0,1,.1-.208c.036-.067.077-.133.119-.2a1.99,1.99,0,0,1,.136-.185,2.22,2.22,0,0,1,.512-.463c.064-.042.13-.083.2-.119s.138-.069.208-.1a2.094,2.094,0,0,1,.216-.078c.074-.022.149-.041.224-.056s.152-.027.227-.034a2.446,2.446,0,0,1,.462,0c.077.008.153.02.229.034s.149.034.222.056a2.094,2.094,0,0,1,.216.078c.07.028.141.063.208.1a2.6,2.6,0,0,1,.384.255,2.011,2.011,0,0,1,.171.155,2.31,2.31,0,0,1,.155.172,2.025,2.025,0,0,1,.138.185q.063.1.117.2c.036.067.069.138.1.208s.055.144.077.216a2.237,2.237,0,0,1,.056.224,2.277,2.277,0,0,1,.034.227A2.3,2.3,0,0,1,367.175,441.564Z" transform="translate(-362.478 -427.052)" fill="#ffb64c"/>
    </g>
    <g id="Group_180" data-name="Group 180" transform="translate(90.169 56.465)">
      <path id="Path_806" data-name="Path 806" d="M379.845,441.333a2.3,2.3,0,0,1,.013.232,2.271,2.271,0,0,1-.013.23,2.24,2.24,0,0,1-.034.229,2.07,2.07,0,0,1-.056.222c-.022.074-.049.146-.077.218s-.063.139-.1.207a2.3,2.3,0,0,1-.255.383,2.011,2.011,0,0,1-.155.171c-.053.055-.111.106-.171.157s-.122.094-.186.136a2.216,2.216,0,0,1-.2.117c-.067.036-.138.069-.208.1s-.142.055-.216.078a2.19,2.19,0,0,1-.222.055,1.878,1.878,0,0,1-.229.034,2.272,2.272,0,0,1-.23.012v-4.7a2.261,2.261,0,0,1,.23.011c.077.008.153.02.229.034s.149.034.222.056a2.094,2.094,0,0,1,.216.078c.07.028.141.063.208.1a2.6,2.6,0,0,1,.384.255,2.006,2.006,0,0,1,.171.155,2.3,2.3,0,0,1,.155.172,2.029,2.029,0,0,1,.138.185q.063.1.117.2c.036.067.069.138.1.208s.055.144.077.216a2.233,2.233,0,0,1,.056.224A2.266,2.266,0,0,1,379.845,441.333Z" transform="translate(-377.509 -427.053)" fill="#ffa81f"/>
      <path id="Path_807" data-name="Path 807" d="M379.857,363.722v5.948a2.349,2.349,0,0,1-2.348,2.348V361.374A2.349,2.349,0,0,1,379.857,363.722Z" transform="translate(-377.509 -361.374)" fill="#ffa81f"/>
    </g>
  </g>
</svg>
