<svg xmlns="http://www.w3.org/2000/svg" width="108.618" height="80.324" viewBox="0 0 108.618 80.324">
  <g id="Group_157" data-name="Group 157" transform="translate(-56.797 -480.391)">
    <path id="Path_300" data-name="Path 300" d="M36.88,23.331a5.346,5.346,0,0,1-4.3-4.195c0-.054-.054-.109-.109-.054a.053.053,0,0,0-.054.054,5.278,5.278,0,0,1-4.3,4.195A.117.117,0,0,0,28,23.44c0,.054.054.054.109.109a5.346,5.346,0,0,1,4.3,4.195c0,.054.054.109.109.054a.053.053,0,0,0,.054-.054,5.277,5.277,0,0,1,4.3-4.195.109.109,0,1,0,0-.218Z" transform="translate(126.124 468.869)" fill="#fc657e"/>
    <ellipse id="Ellipse_34" data-name="Ellipse 34" cx="2.636" cy="2.636" rx="2.636" ry="2.636" transform="translate(58.151 555.443)" fill="#f5c84c"/>
    <path id="Path_301" data-name="Path 301" d="M198.2,209.215h-.92v-.961a1.254,1.254,0,1,0-2.508,0v.92h-.92a1.254,1.254,0,0,0,0,2.508h.92v.92a1.254,1.254,0,1,0,2.508,0v-.92h.92a1.258,1.258,0,0,0,1.254-1.254A1.2,1.2,0,0,0,198.2,209.215Z" transform="translate(-135.303 287.823)" fill="#70d6f9" stroke="#fff" stroke-width="1"/>
    <ellipse id="Ellipse_33" data-name="Ellipse 33" cx="2.302" cy="2.302" rx="2.302" ry="2.302" transform="translate(160.811 537.557)" fill="#87d147"/>
    <g id="_022-bulletin_board" data-name="022-bulletin board" transform="translate(67.787 479.215)">
      <g id="Group_527" data-name="Group 527" transform="translate(1.175 1.176)">
        <path id="Path_1210" data-name="Path 1210" d="M89.273,111.4H9.472a1.983,1.983,0,0,1-1.983-1.983V39.833A1.983,1.983,0,0,1,9.472,37.85h79.8a1.983,1.983,0,0,1,1.983,1.983V109.42A1.983,1.983,0,0,1,89.273,111.4Z" transform="translate(-7.489 -37.85)" fill="#edf4fc"/>
      </g>
      <g id="Group_528" data-name="Group 528" transform="translate(1.175 1.176)">
        <path id="Path_1211" data-name="Path 1211" d="M91.255,48.983H7.488V39.7A1.918,1.918,0,0,1,9.471,37.85h79.8A1.918,1.918,0,0,1,91.255,39.7v9.287Z" transform="translate(-7.488 -37.85)" fill="#fc5a69"/>
      </g>
      <g id="Group_529" data-name="Group 529" transform="translate(79.962 1.176)">
        <path id="Path_1212" data-name="Path 1212" d="M477.762,39.834v69.587a1.918,1.918,0,0,1-1.846,1.983h-3.134a1.918,1.918,0,0,0,1.846-1.983V39.834a1.918,1.918,0,0,0-1.846-1.983h3.134a1.918,1.918,0,0,1,1.846,1.983Z" transform="translate(-472.782 -37.851)" fill="#e0ebfc"/>
        <path id="Path_1311" data-name="Path 1311" d="M477.762,40.061V117.61a2.053,2.053,0,0,1-1.846,2.21h-3.134a2.053,2.053,0,0,0,1.846-2.21V40.061a2.053,2.053,0,0,0-1.846-2.21h3.134a2.053,2.053,0,0,1,1.846,2.21Z" transform="translate(41.117 -404.209) rotate(90)" fill="#e0ebfc"/>
      </g>
      <g id="Group_530" data-name="Group 530" transform="translate(79.962 1.176)">
        <path id="Path_1213" data-name="Path 1213" d="M477.762,39.7v9.287h-3.134V39.7a1.846,1.846,0,0,0-1.846-1.846h3.134A1.846,1.846,0,0,1,477.762,39.7Z" transform="translate(-472.782 -37.851)" fill="#fd8087"/>
      </g>
      <g id="Group_531" data-name="Group 531" transform="translate(0 0)">
        <path id="Path_1215" data-name="Path 1215" d="M117.165,189.408h-4.807a1.175,1.175,0,1,0,0,2.351h4.807a1.175,1.175,0,0,0,0-2.351Z" transform="translate(-92.359 -162.595)" fill="#fc657e"/>
        <path id="Path_1216" data-name="Path 1216" d="M52.9,226.724H36.123a1.175,1.175,0,0,0,0,2.351H52.9a1.175,1.175,0,0,0,0-2.351Z" transform="translate(-29.463 -193.62)" fill="#fc657e"/>
        <path id="Path_1217" data-name="Path 1217" d="M52.9,264.04H36.123a1.175,1.175,0,1,0,0,2.351H52.9a1.175,1.175,0,1,0,0-2.351Z" transform="translate(-29.463 -224.645)" fill="#fc657e"/>
        <path id="Path_1218" data-name="Path 1218" d="M35.914,153.029a1.176,1.176,0,0,0,1.365-.948l.505-2.8.847,2.87c0,.014.008.028.013.042a1.336,1.336,0,0,0,1.268.912h.007a1.335,1.335,0,0,0,1.266-.925l.012-.041.817-2.866.539,2.821a1.175,1.175,0,0,0,2.309-.441l-1.342-7.024a1.338,1.338,0,0,0-2.584-.146l-.012.04L39.9,148.13l-1.068-3.619-.013-.041a1.338,1.338,0,0,0-2.585.186l-1.265,7.008A1.175,1.175,0,0,0,35.914,153.029Z" transform="translate(-29.462 -124.319)" fill="#fc657e"/>
        <path id="Path_1219" data-name="Path 1219" d="M437.427,189.408H432.62a1.175,1.175,0,1,0,0,2.351h4.807a1.175,1.175,0,0,0,0-2.351Z" transform="translate(-357.971 -162.595)" fill="#87d147"/>
        <path id="Path_1220" data-name="Path 1220" d="M373.158,226.724H356.386a1.175,1.175,0,1,0,0,2.351h16.772a1.175,1.175,0,0,0,0-2.351Z" transform="translate(-293.702 -193.62)" fill="#87d147"/>
        <path id="Path_1221" data-name="Path 1221" d="M373.158,264.04H356.386a1.175,1.175,0,1,0,0,2.351h16.772a1.175,1.175,0,0,0,0-2.351Z" transform="translate(-293.702 -224.645)" fill="#87d147"/>
        <path id="Path_1222" data-name="Path 1222" d="M357.271,153.1h.009a1.339,1.339,0,0,0,1.257-.907l.01-.031,1.066-3.443,1.061,3.444c0,.016.01.032.016.048a1.339,1.339,0,0,0,1.26.89h.009a1.339,1.339,0,0,0,1.257-.907c.016-.049,1.448-7.222,1.448-7.222a1.175,1.175,0,1,0-2.305-.459l-.621,3.12-1-3.25a1.175,1.175,0,0,0-2.267.078l-.982,3.172-.62-3.133a1.175,1.175,0,0,0-2.306.456s1.428,7.2,1.448,7.254A1.339,1.339,0,0,0,357.271,153.1Z" transform="translate(-294.331 -124.32)" fill="#87d147"/>
        <path id="Path_1223" data-name="Path 1223" d="M117.165,349.766h-4.807a1.175,1.175,0,1,0,0,2.351h4.807a1.175,1.175,0,0,0,0-2.351Z" transform="translate(-92.359 -295.919)" fill="#f5c84c"/>
        <path id="Path_1224" data-name="Path 1224" d="M52.9,387.082H36.123a1.175,1.175,0,0,0,0,2.351H52.9a1.175,1.175,0,0,0,0-2.351Z" transform="translate(-29.463 -326.944)" fill="#f5c84c"/>
        <path id="Path_1225" data-name="Path 1225" d="M52.9,424.4H36.123a1.175,1.175,0,0,0,0,2.351H52.9a1.175,1.175,0,0,0,0-2.351Z" transform="translate(-29.463 -357.478)" fill="#f5c84c"/>
        <path id="Path_1226" data-name="Path 1226" d="M49.609,313.463a1.175,1.175,0,0,0,1.175-1.175v-6.021h.82a1.175,1.175,0,1,0,0-2.351H47.63a1.175,1.175,0,1,0,0,2.351h.8v6.021A1.175,1.175,0,0,0,49.609,313.463Z" transform="translate(-39.164 -257.425)" fill="#f5c84c"/>
        <path id="Path_1227" data-name="Path 1227" d="M277.3,349.766h-4.807a1.175,1.175,0,1,0,0,2.351H277.3a1.175,1.175,0,1,0,0-2.351Z" transform="translate(-225.38 -295.919)" fill="#fc657e"/>
        <path id="Path_1228" data-name="Path 1228" d="M213.028,387.082H196.255a1.175,1.175,0,0,0,0,2.351h16.772a1.175,1.175,0,1,0,0-2.351Z" transform="translate(-161.583 -326.944)" fill="#fc657e"/>
        <path id="Path_1229" data-name="Path 1229" d="M213.028,424.4H196.255a1.175,1.175,0,0,0,0,2.351h16.772a1.175,1.175,0,1,0,0-2.351Z" transform="translate(-161.583 -357.478)" fill="#fc657e"/>
        <path id="Path_1230" data-name="Path 1230" d="M214.093,306.6a1.175,1.175,0,0,0,0-2.351h-2.9a1.175,1.175,0,0,0-1.175,1.175v7.143a1.175,1.175,0,0,0,2.351,0v-2.464h1.49a1.175,1.175,0,0,0,0-2.351h-1.49V306.6h1.72Z" transform="translate(-174.532 -257.707)" fill="#fc657e"/>
        <path id="Path_1231" data-name="Path 1231" d="M437.427,349.766H432.62a1.175,1.175,0,1,0,0,2.351h4.807a1.175,1.175,0,0,0,0-2.351Z" transform="translate(-357.971 -295.919)" fill="#70d6f9"/>
        <path id="Path_1232" data-name="Path 1232" d="M373.158,387.082H356.386a1.175,1.175,0,0,0,0,2.351h16.772a1.175,1.175,0,0,0,0-2.351Z" transform="translate(-293.702 -326.944)" fill="#70d6f9"/>
        <path id="Path_1233" data-name="Path 1233" d="M373.158,424.4H356.386a1.175,1.175,0,0,0,0,2.351h16.772a1.175,1.175,0,0,0,0-2.351Z" transform="translate(-293.702 -357.478)" fill="#70d6f9"/>
        <path id="Path_1234" data-name="Path 1234" d="M368.172,311.125a2.226,2.226,0,0,1-1.637-.681,1.175,1.175,0,0,0-1.742,1.579,4.548,4.548,0,0,0,3.379,1.453,3.242,3.242,0,0,0,3.3-2.528c.2-1.113-.293-2.562-2.268-3.291-.834-.308-1.615-.642-1.9-.768a.221.221,0,0,1-.055-.194.477.477,0,0,1,.379-.352,2.118,2.118,0,0,1,1.727.408,1.175,1.175,0,0,0,1.5-1.806,4.408,4.408,0,0,0-3.909-.852,2.8,2.8,0,0,0-2.028,2.268,2.56,2.56,0,0,0,1.143,2.534,1.185,1.185,0,0,0,.163.089c.042.019,1.041.464,2.166.878.384.142.816.4.767.672A.948.948,0,0,1,368.172,311.125Z" transform="translate(-302.79 -257.437)" fill="#70d6f9"/>
        <path id="Path_1235" data-name="Path 1235" d="M277.3,189.408h-4.807a1.175,1.175,0,1,0,0,2.351H277.3a1.175,1.175,0,1,0,0-2.351Z" transform="translate(-225.38 -162.595)" fill="#70d6f9"/>
        <path id="Path_1236" data-name="Path 1236" d="M213.028,226.724H196.255a1.175,1.175,0,0,0,0,2.351h16.772a1.175,1.175,0,1,0,0-2.351Z" transform="translate(-161.583 -193.62)" fill="#70d6f9"/>
        <path id="Path_1237" data-name="Path 1237" d="M213.028,264.04H196.255a1.175,1.175,0,0,0,0,2.351h16.772a1.175,1.175,0,1,0,0-2.351Z" transform="translate(-161.583 -224.645)" fill="#70d6f9"/>
        <path id="Path_1238" data-name="Path 1238" d="M209.739,153.1a1.175,1.175,0,0,0,1.175-1.175v-6.021h.82a1.175,1.175,0,1,0,0-2.351H207.76a1.175,1.175,0,1,0,0,2.351h.8v6.021A1.175,1.175,0,0,0,209.739,153.1Z" transform="translate(-171.639 -124.319)" fill="#70d6f9"/>
      </g>
    </g>
  </g>
</svg>
