<svg xmlns="http://www.w3.org/2000/svg" width="112.089" height="80" viewBox="0 0 112.089 80">
  <g id="Group_163" data-name="Group 163" transform="translate(-217.733 -805.267)">
    <path id="Path_408" data-name="Path 408" d="M35.2,22.525a4.337,4.337,0,0,1-3.492-3.4c0-.044-.044-.088-.088-.044a.043.043,0,0,0-.044.044,4.282,4.282,0,0,1-3.492,3.4.1.1,0,0,0-.088.088c0,.044.044.044.088.088a4.337,4.337,0,0,1,3.492,3.4c0,.044.044.088.088.044a.043.043,0,0,0,.044-.044A4.282,4.282,0,0,1,35.2,22.7a.088.088,0,0,0,0-.177Z" transform="translate(294.529 803.595)" fill="#f5c84c"/>
    <path id="Path_410" data-name="Path 410" d="M35.2,22.525a4.337,4.337,0,0,1-3.492-3.4c0-.044-.044-.088-.088-.044a.043.043,0,0,0-.044.044,4.282,4.282,0,0,1-3.492,3.4.1.1,0,0,0-.088.088c0,.044.044.044.088.088a4.337,4.337,0,0,1,3.492,3.4c0,.044.044.088.088.044a.043.043,0,0,0,.044-.044A4.282,4.282,0,0,1,35.2,22.7a.088.088,0,0,0,0-.177Z" transform="translate(274.796 856.278)" fill="#e64c3c"/>
    <ellipse id="Ellipse_40" data-name="Ellipse 40" cx="2.138" cy="2.138" rx="2.138" ry="2.138" transform="translate(226.223 863.244)" fill="#f5c84c"/>
    <path id="Path_409" data-name="Path 409" d="M197.144,208.8H196.4v-.78a1.017,1.017,0,1,0-2.035,0v.746h-.746a1.017,1.017,0,0,0,0,2.035h.746v.746a1.017,1.017,0,1,0,2.035,0V210.8h.746a1.02,1.02,0,0,0,1.017-1.017A.972.972,0,0,0,197.144,208.8Z" transform="translate(25.633 628.144)" fill="#70d6f9" stroke="#fff" stroke-width="1"/>
    <ellipse id="Ellipse_39" data-name="Ellipse 39" cx="1.868" cy="1.868" rx="1.868" ry="1.868" transform="translate(315.113 842.431)" fill="#70d6f9"/>
    <g id="notes" transform="translate(235.567 805.267)">
      <path id="Path_395" data-name="Path 395" d="M248.074,44.052h.014L272.9,37.4a2.749,2.749,0,0,1,3.355,1.944l3.533,13.2,1.6,5.984v.014l7.531,28.07a2.739,2.739,0,0,1-1.931,3.354L271.886,94Zm0,0" transform="translate(-209.014 -31.52)" fill="#31a757"/>
      <path id="Path_396" data-name="Path 396" d="M15.67,44.62a2.683,2.683,0,0,1,2.209-.359L71.21,58.549a2.761,2.761,0,0,1,1.946,3.382L58.871,115.273a2.761,2.761,0,0,1-3.382,1.947L2.157,102.931A2.761,2.761,0,0,1,.212,99.549L11.7,56.671Zm0,0" transform="translate(-0.098 -37.315)" fill="#8a88ff"/>
      <g id="Group_53" data-name="Group 53" transform="translate(9.724 23.202)">
        <path id="Path_397" data-name="Path 397" d="M285.69,155.333a1.345,1.345,0,0,1-.354-.046l-19.477-5.213a1.369,1.369,0,0,1,.709-2.645l19.477,5.22a1.369,1.369,0,0,1-.353,2.692Zm0,0" transform="translate(-233.488 -147.381)" fill="#fff"/>
        <path id="Path_398" data-name="Path 398" d="M305.9,215.625a1.375,1.375,0,0,1-.354-.047l-13.241-3.543a1.369,1.369,0,1,1,.708-2.645l13.241,3.543a1.369,1.369,0,0,1-.353,2.692Zm0,0" transform="translate(-255.828 -199.731)" fill="#fff"/>
        <path id="Path_399" data-name="Path 399" d="M274.658,262.044A1.384,1.384,0,0,1,274.3,262l-16.472-4.421a1.37,1.37,0,1,1,.711-2.645l16.472,4.421a1.369,1.369,0,0,1-.354,2.692Zm0,0" transform="translate(-226.704 -238.208)" fill="#fff"/>
        <path id="Path_400" data-name="Path 400" d="M81.747,265.2a1.353,1.353,0,0,1-.356-.046l-3.971-1.064a1.37,1.37,0,0,1,.711-2.645l3.971,1.063a1.369,1.369,0,0,1-.355,2.692Zm0,0" transform="translate(-74.279 -243.713)" fill="#fff"/>
        <path id="Path_401" data-name="Path 401" d="M184.955,292.818a1.376,1.376,0,0,1-.354-.047l-30.42-8.157a1.369,1.369,0,1,1,.71-2.645l30.42,8.15a1.369,1.369,0,0,1-.353,2.692Zm0,0" transform="translate(-139.132 -261.053)" fill="#fff"/>
        <path id="Path_402" data-name="Path 402" d="M68.034,316.364a1.325,1.325,0,0,1-.355-.047l-3.971-1.062a1.369,1.369,0,1,1,.709-2.645l3.971,1.062a1.369,1.369,0,0,1-.354,2.692Zm0,0" transform="translate(-62.693 -286.941)" fill="#fff"/>
        <path id="Path_403" data-name="Path 403" d="M171.249,344.015a1.373,1.373,0,0,1-.354-.047l-30.422-8.151a1.369,1.369,0,0,1,.71-2.645l30.42,8.151a1.369,1.369,0,0,1-.353,2.692Zm0,0" transform="translate(-127.551 -304.313)" fill="#fff"/>
      </g>
      <path id="Path_404" data-name="Path 404" d="M206.6,208.342l-9.28-3.307,7.729-7.729,3.29,9.3a1.379,1.379,0,0,1-1.739,1.739Zm0,0" transform="translate(-166.669 -166.667)" fill="#cfcfcf"/>
      <path id="Path_405" data-name="Path 405" d="M13.23,5.485l-7.75,7.75L1.605,9.36a5.48,5.48,0,0,1,7.75-7.75Zm0,0" transform="translate(0 -0.005)" fill="#fc5a69"/>
      <path id="Path_406" data-name="Path 406" d="M89.355,81.608l-2.9,2.9v.014l-1.931,1.93h-.013l-2.9,2.9L60.312,68.066l2.916-2.9,1.931-1.93,2.9-2.917Zm0,0" transform="translate(-50.957 -50.961)" fill="#fc5a69"/>
      <path id="Path_407" data-name="Path 407" d="M35.336,43.086l7.75-7.75,3.875,3.875-7.75,7.75Zm0,0" transform="translate(-29.855 -29.856)" fill="#cfcfcf"/>
    </g>
  </g>
</svg>
