<svg xmlns="http://www.w3.org/2000/svg" width="112.352" height="80" viewBox="0 0 112.352 80">
  <g id="Group_166" data-name="Group 166" transform="translate(-38.797 -1145)">
    <path id="Path_426" data-name="Path 426" d="M35.2,22.525a4.337,4.337,0,0,1-3.492-3.4c0-.044-.044-.088-.088-.044a.043.043,0,0,0-.044.044,4.282,4.282,0,0,1-3.492,3.4.1.1,0,0,0-.088.088c0,.044.044.044.088.088a4.337,4.337,0,0,1,3.492,3.4c0,.044.044.088.088.044a.043.043,0,0,0,.044-.044A4.282,4.282,0,0,1,35.2,22.7a.088.088,0,0,0,0-.177Z" transform="translate(110.99 1129.704)" fill="#f5c84c"/>
    <path id="Path_425" data-name="Path 425" d="M32.3,21.128A2.59,2.59,0,0,1,30.217,19.1c0-.026-.026-.053-.053-.026a.026.026,0,0,0-.026.026,2.557,2.557,0,0,1-2.085,2.032.057.057,0,0,0-.053.053c0,.026.026.026.053.053a2.59,2.59,0,0,1,2.085,2.032c0,.026.026.053.053.026a.026.026,0,0,0,.026-.026A2.557,2.557,0,0,1,32.3,21.234a.053.053,0,0,0,0-.106Z" transform="translate(118.795 1201.697)" fill="#e64c3c"/>
    <ellipse id="Ellipse_42" data-name="Ellipse 42" cx="2.138" cy="2.138" rx="2.138" ry="2.138" transform="translate(44.861 1212.768)" fill="#f5c84c"/>
    <path id="Path_427" data-name="Path 427" d="M197.144,208.8H196.4v-.78a1.017,1.017,0,1,0-2.035,0v.746h-.746a1.017,1.017,0,0,0,0,2.035h.746v.746a1.017,1.017,0,1,0,2.035,0V210.8h.746a1.02,1.02,0,0,0,1.017-1.017A.972.972,0,0,0,197.144,208.8Z" transform="translate(-153.303 948.4)" fill="#70d6f9" stroke="#fff" stroke-width="1"/>
    <ellipse id="Ellipse_41" data-name="Ellipse 41" cx="1.374" cy="1.374" rx="1.374" ry="1.374" transform="translate(138.418 1189.521)" fill="#70d6f9"/>
    <g id="event" transform="translate(53.642 1145)">
      <rect id="Rectangle_17" data-name="Rectangle 17" width="80" height="75.122" rx="5" transform="translate(80 80) rotate(180)" fill="#edf4fc"/>
      <g id="Group_55" data-name="Group 55" transform="translate(0.004 5.655)">
        <path id="Path_412" data-name="Path 412" d="M103.993,61.651v11.3H24v-11.3A5.585,5.585,0,0,1,29.517,56H98.476A5.585,5.585,0,0,1,103.993,61.651Z" transform="translate(-24 -56)" fill="#fc5a69"/>
        <rect id="Rectangle_32" data-name="Rectangle 32" width="5.649" height="5.649" rx="0.5" transform="translate(24.783 44.104)" fill="#fc5a69"/>
        <rect id="Rectangle_36" data-name="Rectangle 36" width="5.649" height="5.649" rx="0.5" transform="translate(11.303 44.104)" fill="#fc5a69"/>
        <rect id="Rectangle_37" data-name="Rectangle 37" width="5.649" height="5.649" rx="0.5" transform="translate(11.303 57.76)" fill="#fc5a69"/>
        <rect id="Rectangle_38" data-name="Rectangle 38" width="5.649" height="5.649" rx="0.5" transform="translate(24.78 57.76)" fill="#fc5a69"/>
        <rect id="Rectangle_39" data-name="Rectangle 39" width="5.649" height="5.649" rx="0.5" transform="translate(38.55 57.76)" fill="#fc5a69"/>
        <rect id="Rectangle_41" data-name="Rectangle 41" width="5.649" height="5.649" rx="0.5" transform="translate(65.795 57.76)" fill="#fc5a69"/>
        <rect id="Rectangle_40" data-name="Rectangle 40" width="5.649" height="5.649" rx="0.5" transform="translate(52.317 57.76)" fill="#fc5a69"/>
        <rect id="Rectangle_33" data-name="Rectangle 33" width="5.649" height="5.649" rx="0.5" transform="translate(24.783 29.467)" fill="#fc5a69"/>
        <rect id="Rectangle_34" data-name="Rectangle 34" width="5.649" height="5.649" rx="0.5" transform="translate(65.867 29.467)" fill="#fc5a69"/>
        <rect id="Rectangle_35" data-name="Rectangle 35" width="5.649" height="5.649" rx="0.5" transform="translate(65.867 44.104)" fill="#fc5a69"/>
      </g>
      <rect id="Rectangle_18" data-name="Rectangle 18" width="5.854" height="14.634" rx="2.927" transform="translate(37.073 0)" fill="#7e8589"/>
      <rect id="Rectangle_19" data-name="Rectangle 19" width="6.829" height="14.634" rx="3.415" transform="translate(14.254 0)" fill="#7e8589"/>
      <rect id="Rectangle_20" data-name="Rectangle 20" width="6.829" height="14.634" rx="3.415" transform="translate(58.917 0)" fill="#7e8589"/>
      <path id="Path_421" data-name="Path 421" d="M258.288,230.605l-6.985-3.861-6.985,3.861,1.334-8.179L240,216.634l7.81-1.193L251.3,208l3.493,7.441,7.81,1.193-5.651,5.792Z" transform="translate(-203.104 -176.57)" fill="#ffb202"/>
    </g>
  </g>
</svg>
