<svg xmlns="http://www.w3.org/2000/svg" width="114.878" height="82" viewBox="0 0 114.878 82">
  <g id="Component_5_2" data-name="Component 5 – 2" transform="translate(0.5)">
    <path id="Path_323" data-name="Path 323" d="M35.385,22.611a4.446,4.446,0,0,1-3.579-3.489c0-.045-.045-.091-.091-.045a.044.044,0,0,0-.045.045,4.389,4.389,0,0,1-3.579,3.489A.1.1,0,0,0,28,22.7c0,.045.045.045.091.091a4.446,4.446,0,0,1,3.579,3.489c0,.045.045.091.091.045a.044.044,0,0,0,.045-.045,4.389,4.389,0,0,1,3.579-3.489.091.091,0,0,0,0-.181Z" transform="translate(78.903 5.943)" fill="#fc657e"/>
    <ellipse id="Ellipse_36" data-name="Ellipse 36" cx="2.192" cy="2.192" rx="2.192" ry="2.192" transform="translate(8.189 66.607)" fill="#f5c84c"/>
    <path id="Path_324" data-name="Path 324" d="M197.258,208.842h-.765v-.8a1.043,1.043,0,1,0-2.086,0v.765h-.765a1.043,1.043,0,0,0,0,2.086h.765v.765a1.043,1.043,0,1,0,2.086,0v-.765h.765a1.046,1.046,0,0,0,1.043-1.043A1,1,0,0,0,197.258,208.842Z" transform="translate(-192.6 -169.195)" fill="#70d6f9" stroke="#fff" stroke-width="1"/>
    <ellipse id="Ellipse_35" data-name="Ellipse 35" cx="1.914" cy="1.914" rx="1.914" ry="1.914" transform="translate(99.302 45.274)" fill="#87d147"/>
    <g id="schedule" transform="translate(1.163)">
      <g id="Group_539" data-name="Group 539" transform="translate(17.058)">
        <path id="Path_1239" data-name="Path 1239" d="M53.762,369.333H22.525a5.466,5.466,0,0,1-5.466-5.466V358.4H59.013Z" transform="translate(-17.059 -301)" fill="#e0ebfc"/>
        <path id="Path_1240" data-name="Path 1240" d="M88.131,81.933V120.2H22.525a5.467,5.467,0,0,1-5.466-5.467v-32.8L55.328,68.266Z" transform="translate(-17.059 -57.333)" fill="#ebf5fc"/>
        <g id="Group_532" data-name="Group 532" transform="translate(5.469 30.067)">
          <path id="Path_1241" data-name="Path 1241" d="M55.388,193.2h-2.9a1.281,1.281,0,0,1-1.281-1.281v-2.9a1.281,1.281,0,0,1,1.281-1.281h2.9a1.281,1.281,0,0,1,1.281,1.281v2.9A1.281,1.281,0,0,1,55.388,193.2Z" transform="translate(-51.203 -187.734)" fill="#34cbff"/>
          <path id="Path_1242" data-name="Path 1242" d="M123.655,193.2h-2.9a1.281,1.281,0,0,1-1.281-1.281v-2.9a1.281,1.281,0,0,1,1.281-1.281h2.9a1.281,1.281,0,0,1,1.281,1.281v2.9A1.281,1.281,0,0,1,123.655,193.2Z" transform="translate(-108.537 -187.734)" fill="#34cbff"/>
          <path id="Path_1243" data-name="Path 1243" d="M191.921,193.2h-2.9a1.281,1.281,0,0,1-1.281-1.281v-2.9a1.281,1.281,0,0,1,1.281-1.281h2.9a1.281,1.281,0,0,1,1.281,1.281v2.9A1.281,1.281,0,0,1,191.921,193.2Z" transform="translate(-165.869 -187.734)" fill="#34cbff"/>
          <path id="Path_1244" data-name="Path 1244" d="M260.188,193.2h-2.9A1.281,1.281,0,0,1,256,191.919v-2.9a1.281,1.281,0,0,1,1.281-1.281h2.9a1.281,1.281,0,0,1,1.281,1.281v2.9A1.281,1.281,0,0,1,260.188,193.2Z" transform="translate(-223.203 -187.734)" fill="#34cbff"/>
          <path id="Path_1245" data-name="Path 1245" d="M328.443,193.2h-2.9a1.281,1.281,0,0,1-1.281-1.281v-2.9a1.281,1.281,0,0,1,1.281-1.281h2.9a1.281,1.281,0,0,1,1.281,1.281v2.9A1.281,1.281,0,0,1,328.443,193.2Z" transform="translate(-280.526 -187.734)" fill="#34cbff"/>
          <path id="Path_1246" data-name="Path 1246" d="M396.71,193.2h-2.9a1.281,1.281,0,0,1-1.281-1.281v-2.9a1.281,1.281,0,0,1,1.281-1.281h2.9a1.281,1.281,0,0,1,1.281,1.281v2.9A1.281,1.281,0,0,1,396.71,193.2Z" transform="translate(-337.86 -187.734)" fill="#34cbff"/>
          <path id="Path_1247" data-name="Path 1247" d="M55.388,261.467h-2.9a1.281,1.281,0,0,1-1.281-1.281v-2.9A1.281,1.281,0,0,1,52.484,256h2.9a1.281,1.281,0,0,1,1.281,1.281v2.9A1.281,1.281,0,0,1,55.388,261.467Z" transform="translate(-51.203 -245.067)" fill="#34cbff"/>
          <path id="Path_1248" data-name="Path 1248" d="M123.655,261.467h-2.9a1.281,1.281,0,0,1-1.281-1.281v-2.9A1.281,1.281,0,0,1,120.751,256h2.9a1.281,1.281,0,0,1,1.281,1.281v2.9A1.281,1.281,0,0,1,123.655,261.467Z" transform="translate(-108.537 -245.067)" fill="#34cbff"/>
          <path id="Path_1249" data-name="Path 1249" d="M191.921,261.467h-2.9a1.281,1.281,0,0,1-1.281-1.281v-2.9A1.281,1.281,0,0,1,189.017,256h2.9a1.281,1.281,0,0,1,1.281,1.281v2.9A1.281,1.281,0,0,1,191.921,261.467Z" transform="translate(-165.869 -245.067)" fill="#34cbff"/>
          <path id="Path_1250" data-name="Path 1250" d="M261.47,261.467v-4.1A1.367,1.367,0,0,0,260.1,256H257.37A1.367,1.367,0,0,0,256,257.367V260.1a1.367,1.367,0,0,0,1.367,1.367Z" transform="translate(-223.203 -245.067)" fill="#34cbff"/>
          <path id="Path_1251" data-name="Path 1251" d="M55.388,329.734h-2.9a1.281,1.281,0,0,1-1.281-1.281v-2.9a1.281,1.281,0,0,1,1.281-1.281h2.9a1.281,1.281,0,0,1,1.281,1.281v2.9A1.281,1.281,0,0,1,55.388,329.734Z" transform="translate(-51.203 -302.4)" fill="#34cbff"/>
          <path id="Path_1252" data-name="Path 1252" d="M123.655,329.734h-2.9a1.281,1.281,0,0,1-1.281-1.281v-2.9a1.281,1.281,0,0,1,1.281-1.281h2.9a1.281,1.281,0,0,1,1.281,1.281v2.9A1.281,1.281,0,0,1,123.655,329.734Z" transform="translate(-108.537 -302.4)" fill="#34cbff"/>
          <path id="Path_1253" data-name="Path 1253" d="M191.921,329.734h-2.9a1.281,1.281,0,0,1-1.281-1.281v-2.9a1.281,1.281,0,0,1,1.281-1.281h2.9a1.281,1.281,0,0,1,1.281,1.281v2.9A1.281,1.281,0,0,1,191.921,329.734Z" transform="translate(-165.869 -302.4)" fill="#34cbff"/>
        </g>
        <path id="Path_1254" data-name="Path 1254" d="M401.056,187.733h-2.827a1.317,1.317,0,0,0-.484.093,1.319,1.319,0,0,1,.836,1.227v2.827a1.32,1.32,0,0,1-.836,1.227,1.314,1.314,0,0,0,.484.093h2.827a1.32,1.32,0,0,0,1.32-1.32v-2.827A1.32,1.32,0,0,0,401.056,187.733Z" transform="translate(-336.776 -157.666)" fill="#70d6f9"/>
        <path id="Path_1255" data-name="Path 1255" d="M332.789,187.733h-2.827a1.317,1.317,0,0,0-.484.093,1.319,1.319,0,0,1,.836,1.227v2.827a1.32,1.32,0,0,1-.836,1.227,1.314,1.314,0,0,0,.484.093h2.827a1.32,1.32,0,0,0,1.32-1.32v-2.827A1.32,1.32,0,0,0,332.789,187.733Z" transform="translate(-279.442 -157.666)" fill="#70d6f9"/>
        <path id="Path_1256" data-name="Path 1256" d="M264.534,187.733h-2.827a1.317,1.317,0,0,0-.484.093,1.319,1.319,0,0,1,.836,1.227v2.827a1.319,1.319,0,0,1-.836,1.227,1.315,1.315,0,0,0,.484.093h2.827a1.32,1.32,0,0,0,1.32-1.32v-2.827A1.32,1.32,0,0,0,264.534,187.733Z" transform="translate(-222.118 -157.666)" fill="#70d6f9"/>
        <path id="Path_1257" data-name="Path 1257" d="M196.267,187.733H193.44a1.317,1.317,0,0,0-.484.093,1.319,1.319,0,0,1,.836,1.227v2.827a1.319,1.319,0,0,1-.836,1.227,1.315,1.315,0,0,0,.484.093h2.827a1.32,1.32,0,0,0,1.32-1.32v-2.827A1.32,1.32,0,0,0,196.267,187.733Z" transform="translate(-164.785 -157.666)" fill="#70d6f9"/>
        <path id="Path_1258" data-name="Path 1258" d="M128,187.733h-2.827a1.317,1.317,0,0,0-.484.093,1.319,1.319,0,0,1,.836,1.227v2.827a1.32,1.32,0,0,1-.836,1.227,1.315,1.315,0,0,0,.484.093H128a1.32,1.32,0,0,0,1.32-1.32v-2.827A1.32,1.32,0,0,0,128,187.733Z" transform="translate(-107.451 -157.666)" fill="#70d6f9"/>
        <path id="Path_1259" data-name="Path 1259" d="M59.734,187.733H56.907a1.317,1.317,0,0,0-.484.093,1.319,1.319,0,0,1,.836,1.227v2.827a1.319,1.319,0,0,1-.836,1.227,1.314,1.314,0,0,0,.484.093h2.827a1.32,1.32,0,0,0,1.32-1.32v-2.827A1.32,1.32,0,0,0,59.734,187.733Z" transform="translate(-50.118 -157.666)" fill="#70d6f9"/>
        <path id="Path_1260" data-name="Path 1260" d="M59.734,256H56.907a1.317,1.317,0,0,0-.484.093,1.319,1.319,0,0,1,.836,1.227v2.827a1.319,1.319,0,0,1-.836,1.227,1.315,1.315,0,0,0,.484.093h2.827a1.32,1.32,0,0,0,1.32-1.32V257.32A1.32,1.32,0,0,0,59.734,256Z" transform="translate(-50.118 -215)" fill="#70d6f9"/>
        <path id="Path_1261" data-name="Path 1261" d="M59.734,324.267H56.907a1.318,1.318,0,0,0-.484.093,1.32,1.32,0,0,1,.836,1.227v2.827a1.319,1.319,0,0,1-.836,1.227,1.313,1.313,0,0,0,.484.093h2.827a1.32,1.32,0,0,0,1.32-1.32v-2.827A1.32,1.32,0,0,0,59.734,324.267Z" transform="translate(-50.118 -272.334)" fill="#70d6f9"/>
        <path id="Path_1262" data-name="Path 1262" d="M128,256h-2.827a1.317,1.317,0,0,0-.484.093,1.319,1.319,0,0,1,.836,1.227v2.827a1.319,1.319,0,0,1-.836,1.227,1.315,1.315,0,0,0,.484.093H128a1.32,1.32,0,0,0,1.32-1.32V257.32A1.32,1.32,0,0,0,128,256Z" transform="translate(-107.451 -215)" fill="#70d6f9"/>
        <path id="Path_1263" data-name="Path 1263" d="M128,324.267h-2.827a1.318,1.318,0,0,0-.484.093,1.319,1.319,0,0,1,.836,1.227v2.827a1.319,1.319,0,0,1-.836,1.227,1.313,1.313,0,0,0,.484.093H128a1.32,1.32,0,0,0,1.32-1.32v-2.827A1.32,1.32,0,0,0,128,324.267Z" transform="translate(-107.451 -272.334)" fill="#70d6f9"/>
        <path id="Path_1264" data-name="Path 1264" d="M196.267,256H193.44a1.317,1.317,0,0,0-.484.093,1.319,1.319,0,0,1,.836,1.227v2.827a1.319,1.319,0,0,1-.836,1.227,1.315,1.315,0,0,0,.484.093h2.827a1.32,1.32,0,0,0,1.32-1.32V257.32A1.32,1.32,0,0,0,196.267,256Z" transform="translate(-164.785 -215)" fill="#70d6f9"/>
        <path id="Path_1265" data-name="Path 1265" d="M265.853,261.467V257.32a1.32,1.32,0,0,0-1.32-1.32h-2.827a1.318,1.318,0,0,0-.484.093,1.32,1.32,0,0,1,.836,1.227v2.827a1.319,1.319,0,0,1-.836,1.227,1.314,1.314,0,0,0,.484.093h4.147Z" transform="translate(-222.118 -215)" fill="#70d6f9"/>
        <path id="Path_1266" data-name="Path 1266" d="M196.267,324.267H193.44a1.318,1.318,0,0,0-.484.093,1.319,1.319,0,0,1,.836,1.227v2.827a1.319,1.319,0,0,1-.836,1.227,1.313,1.313,0,0,0,.484.093h2.827a1.32,1.32,0,0,0,1.32-1.32v-2.827A1.32,1.32,0,0,0,196.267,324.267Z" transform="translate(-164.785 -272.334)" fill="#70d6f9"/>
        <path id="Path_1267" data-name="Path 1267" d="M437.114,143.721V183.57h3.8V145.3Z" transform="translate(-369.839 -120.703)" fill="#e0ebfc"/>
        <path id="Path_1268" data-name="Path 1268" d="M88.131,53.267V39.6a5.466,5.466,0,0,0-5.466-5.466H22.525A5.466,5.466,0,0,0,17.059,39.6V53.267Z" transform="translate(-17.059 -28.667)" fill="#ff7582"/>
        <g id="Group_538" data-name="Group 538" transform="translate(12.429 9.696)">
          <g id="Group_537" data-name="Group 537">
            <g id="Group_533" data-name="Group 533">
              <path id="Path_1269" data-name="Path 1269" d="M99.462,63.016H95.9a1.237,1.237,0,0,1,0-2.475h3.558a1.237,1.237,0,1,1,0,2.475Z" transform="translate(-94.666 -60.541)" fill="#fc5a69"/>
            </g>
            <g id="Group_534" data-name="Group 534" transform="translate(8.742)">
              <path id="Path_1270" data-name="Path 1270" d="M154.044,63.016h-3.558a1.237,1.237,0,1,1,0-2.475h3.558a1.237,1.237,0,0,1,0,2.475Z" transform="translate(-149.248 -60.541)" fill="#fc5a69"/>
            </g>
            <g id="Group_535" data-name="Group 535" transform="translate(31.435)">
              <path id="Path_1271" data-name="Path 1271" d="M295.739,63.016H292.18a1.237,1.237,0,1,1,0-2.475h3.558a1.237,1.237,0,1,1,0,2.475Z" transform="translate(-290.943 -60.541)" fill="#fc5a69"/>
            </g>
            <g id="Group_536" data-name="Group 536" transform="translate(40.177)">
              <path id="Path_1272" data-name="Path 1272" d="M350.322,63.016h-3.558a1.237,1.237,0,1,1,0-2.475h3.558a1.237,1.237,0,1,1,0,2.475Z" transform="translate(-345.526 -60.541)" fill="#fc5a69"/>
            </g>
          </g>
        </g>
        <path id="Path_1273" data-name="Path 1273" d="M126.292,10.25a3.417,3.417,0,1,1-6.833,0V3.417a3.417,3.417,0,1,1,6.833,0V10.25Z" transform="translate(-103.059)" fill="#ebf5fc"/>
        <path id="Path_1274" data-name="Path 1274" d="M322.569,10.25a3.417,3.417,0,0,1-6.833,0V3.417a3.417,3.417,0,1,1,6.833,0V10.25Z" transform="translate(-267.901)" fill="#ebf5fc"/>
        <path id="Path_1275" data-name="Path 1275" d="M327.129,0a3.4,3.4,0,0,0-1.9.575,3.413,3.413,0,0,1,1.521,2.842V10.25a3.413,3.413,0,0,1-1.521,2.842,3.416,3.416,0,0,0,5.312-2.842V3.417A3.416,3.416,0,0,0,327.129,0Z" transform="translate(-275.877)" fill="#e0ebfc"/>
        <path id="Path_1276" data-name="Path 1276" d="M130.851,0a3.4,3.4,0,0,0-1.9.575,3.413,3.413,0,0,1,1.521,2.842V10.25a3.413,3.413,0,0,1-1.521,2.842,3.416,3.416,0,0,0,5.312-2.842V3.417A3.416,3.416,0,0,0,130.851,0Z" transform="translate(-111.034)" fill="#e0ebfc"/>
        <path id="Path_1277" data-name="Path 1277" d="M406.786,34.133h-3.8a5.466,5.466,0,0,1,5.466,5.466V53.266h3.8V39.6A5.466,5.466,0,0,0,406.786,34.133Z" transform="translate(-341.181 -28.666)" fill="#fc5a69"/>
        <path id="Path_1278" data-name="Path 1278" d="M17.058,111.74H88.13v2.475H17.058Z" transform="translate(-17.058 -93.844)" fill="#fc5a69"/>
      </g>
      <circle id="Ellipse_64" data-name="Ellipse 64" cx="20.5" cy="20.5" r="20.5" transform="translate(52.594 41)" fill="#fc657e"/>
      <circle id="Ellipse_65" data-name="Ellipse 65" cx="15.033" cy="15.033" r="15.033" transform="translate(58.061 46.467)" fill="#e0ebfc"/>
      <g id="Group_541" data-name="Group 541" transform="translate(71.857 50.696)">
        <g id="Group_540" data-name="Group 540">
          <path id="Path_1279" data-name="Path 1279" d="M360.453,325.848a1.237,1.237,0,0,1-1.237-1.237v-6.833a1.237,1.237,0,1,1,2.475,0v6.833A1.237,1.237,0,0,1,360.453,325.848Z" transform="translate(-359.216 -316.54)" fill="#756e78"/>
        </g>
      </g>
      <g id="Group_543" data-name="Group 543" transform="translate(74.59 60.263)">
        <g id="Group_542" data-name="Group 542">
          <path id="Path_1280" data-name="Path 1280" d="M381.619,378.749h-4.1a1.237,1.237,0,0,1,0-2.475h4.1a1.237,1.237,0,1,1,0,2.475Z" transform="translate(-376.282 -376.274)" fill="#756e78"/>
        </g>
      </g>
      <path id="Path_1281" data-name="Path 1281" d="M356.991,256c-.64,0-1.272.031-1.9.088a20.5,20.5,0,0,1,0,40.824c.625.057,1.258.088,1.9.088a20.5,20.5,0,0,0,0-41Z" transform="translate(-283.897 -215)" fill="#fc5a69"/>
      <path id="Path_1282" data-name="Path 1282" d="M357,290.133a15.175,15.175,0,0,0-1.9.119,15.035,15.035,0,0,1,0,29.829,15.034,15.034,0,1,0,1.9-29.948Z" transform="translate(-283.905 -243.666)" fill="#d3dcfb"/>
      <circle id="Ellipse_66" data-name="Ellipse 66" cx="2.733" cy="2.733" r="2.733" transform="translate(70.361 58.767)" fill="#f5c84c"/>
    </g>
  </g>
</svg>
