<svg xmlns="http://www.w3.org/2000/svg" width="103.46" height="80" viewBox="0 0 103.46 80">
  <g id="Group_153" data-name="Group 153" transform="translate(-43.591 -128.602)">
    <path id="Path_393" data-name="Path 393" d="M38,23.868a6.019,6.019,0,0,1-4.845-4.723c0-.061-.061-.123-.123-.061a.06.06,0,0,0-.061.061,5.941,5.941,0,0,1-4.845,4.723.132.132,0,0,0-.123.123c0,.061.061.061.123.123a6.019,6.019,0,0,1,4.845,4.723c0,.061.061.123.123.061a.06.06,0,0,0,.061-.061A5.941,5.941,0,0,1,38,24.113a.123.123,0,1,0,0-.245Z" transform="translate(15.591 132.364)" fill="#ff6066"/>
    <circle id="Ellipse_38" data-name="Ellipse 38" cx="1.548" cy="1.548" r="1.548" transform="translate(58.887 132.277)" fill="#70d6f9"/>
    <path id="Path_392" data-name="Path 392" d="M199.1,209.571h-1.067v-1.116a1.456,1.456,0,1,0-2.911,0v1.067h-1.067a1.456,1.456,0,0,0,0,2.911h1.067V213.5a1.456,1.456,0,1,0,2.911,0v-1.067H199.1a1.46,1.46,0,0,0,1.456-1.456A1.39,1.39,0,0,0,199.1,209.571Z" transform="translate(-54.509 -8.084)" fill="#70d6f9" stroke="#fff" stroke-width="2"/>
    <circle id="Ellipse_37" data-name="Ellipse 37" cx="1.352" cy="1.352" r="1.352" transform="translate(139.366 151.423)" fill="#f5c84c"/>
    <path id="Path_394" data-name="Path 394" d="M41.468,134.852a3.678,3.678,0,0,1-2.9-2.8.052.052,0,0,0-.053-.053c-.053,0-.053,0-.053.053a3.61,3.61,0,0,1-2.9,2.8.052.052,0,0,0-.053.053c0,.053,0,.053.053.053a3.678,3.678,0,0,1,2.9,2.8.052.052,0,0,0,.053.053c.053,0,.053,0,.053-.053a3.61,3.61,0,0,1,2.9-2.8c.053,0,0-.053,0-.106Z" transform="translate(95.006 29.287)" fill="#fc657e"/>
    <g id="homework_1_" data-name="homework (1)" transform="translate(56.565 128.602)">
      <path id="Path_325" data-name="Path 325" d="M161.976,286.97H142.333c-4.5,0-8.149,3.274-8.149,7.312v6.639h.335v15.13h35.29v-15.13h.317v-6.639c0-4.038-3.649-7.312-8.149-7.312Zm0,0" transform="translate(-112.246 -240.032)" fill="#fc5a69"/>
      <path id="Path_326" data-name="Path 326" d="M233.4,316.543h-.118L231.316,320v4.112a.688.688,0,0,0,.688.688h2.752a.688.688,0,0,0,.688-.688v-3.982Zm0,0" transform="translate(-193.491 -264.769)" fill="#ff6066"/>
      <path id="Path_327" data-name="Path 327" d="M206.978,266.841a15.086,15.086,0,0,1-7.251-1.856v3.549a1.879,1.879,0,0,0,.04.364h0a1.916,1.916,0,0,0,.1.346c.006.015.011.03.019.044.02.045.042.09.065.133s.049.083.075.123c.014.022.027.045.042.065l1.03,1.411a7.284,7.284,0,0,0,4.058,2.829c.216.054.44.1.672.138a7.1,7.1,0,0,0,6.855-3.036l1.5-2.088a1.888,1.888,0,0,0,.035-.341v-3.536a15.086,15.086,0,0,1-7.247,1.854Zm0,0" transform="translate(-167.069 -222.298)" fill="#ffceb3"/>
      <path id="Path_328" data-name="Path 328" d="M166.466,298.3h-35.29a.654.654,0,0,1-.654-.654V281.353a.655.655,0,0,1-.334-.571v-7.4a8.813,8.813,0,0,1,8.8-8.8h1.917v-2.943a.654.654,0,0,1,.949-.584,15.47,15.47,0,0,0,13.907,0,.653.653,0,0,1,.949.583v2.941h1.921a8.813,8.813,0,0,1,8.8,8.8v7.4a.654.654,0,0,1-.317.561v16.3a.653.653,0,0,1-.654.654Zm-34.636-1.309h33.982V280.782a.653.653,0,0,1,.317-.56v-6.838a7.5,7.5,0,0,0-7.5-7.494h-2.607a.655.655,0,0,1-.643-.78.982.982,0,0,0,.021-.188v-2.253a16.813,16.813,0,0,1-13.188,0v2.264a1.038,1.038,0,0,0,.024.178.653.653,0,0,1-.642.781H138.99a7.5,7.5,0,0,0-7.5,7.5v6.827a.655.655,0,0,1,.334.571v16.206Zm0,0" transform="translate(-108.903 -218.297)" fill="none"/>
      <path id="Path_329" data-name="Path 329" d="M173.911,278.914h-2.469a1.321,1.321,0,0,0-.884.331l-1.482,1.343a.513.513,0,0,0-.027.754l8.007,8.258a.991.991,0,0,0,1.533-.167l2.572-4.516Zm0,0" transform="translate(-141.281 -233.294)" fill="#ffb202"/>
      <path id="Path_330" data-name="Path 330" d="M250.788,278.914h2.47a1.32,1.32,0,0,1,.884.331l1.482,1.343a.513.513,0,0,1,.027.754l-8.007,8.258a.991.991,0,0,1-1.533-.167l-2.572-4.516Zm0,0" transform="translate(-203.715 -233.294)" fill="#ffb202"/>
      <path id="Path_331" data-name="Path 331" d="M174.414,287.2a1.633,1.633,0,0,1-1.173-.486l-8.007-8.258a1.168,1.168,0,0,1,.058-1.694l1.482-1.343a1.969,1.969,0,0,1,1.324-.5h2.469a.65.65,0,0,1,.417.151l7.248,6a.654.654,0,0,1,.151.827l-2.571,4.516a1.57,1.57,0,0,1-1.186.772A1.848,1.848,0,0,1,174.414,287.2Zm-8.146-9.557,7.912,8.16a.333.333,0,0,0,.283.086.277.277,0,0,0,.212-.121l2.3-4.039-6.645-5.5H168.1a.667.667,0,0,0-.445.162Zm0,0" transform="translate(-137.937 -229.952)" fill="none"/>
      <path id="Path_332" data-name="Path 332" d="M243.6,287.2a1.717,1.717,0,0,1-.213-.013,1.57,1.57,0,0,1-1.185-.772l-2.572-4.516a.654.654,0,0,1,.151-.827l7.249-6a.649.649,0,0,1,.417-.151h2.471a1.963,1.963,0,0,1,1.323.5l1.482,1.344a1.167,1.167,0,0,1,.058,1.694l-8.007,8.259A1.637,1.637,0,0,1,243.6,287.2Zm-2.561-5.472,2.3,4.039a.279.279,0,0,0,.212.121.333.333,0,0,0,.283-.086l7.912-8.16-1.385-1.255a.667.667,0,0,0-.444-.161h-2.234Zm0,0" transform="translate(-200.372 -229.949)" fill="none"/>
      <path id="Path_333" data-name="Path 333" d="M344.788,125.341h-3.264q.048,1.027.049,2.073v2.6c.035,0-.084.947-.049.947-.768,2.506,2.787.183,3.692,1.537l-.116-7.2a1.232,1.232,0,0,1-.312.044Zm0,0" transform="translate(-285.826 -107.726)" fill="#535353"/>
      <path id="Path_334" data-name="Path 334" d="M341.6,126.576a.654.654,0,0,1-.438-.169,4.235,4.235,0,0,0-2.837-1.091l-.089.005a.687.687,0,0,1-.47-.187.652.652,0,0,1-.2-.467v-1.5c0-.378-.015-.762-.045-1.144a.655.655,0,0,1,.652-.705H341.3a1.258,1.258,0,0,0,.194-.017.654.654,0,0,1,.758.645v3.971a.654.654,0,0,1-.388.6.644.644,0,0,1-.266.057Zm-2.721-2.541a5.534,5.534,0,0,1,2.067.631v-2.036h-2.076q.01.271.01.54Zm0,0" transform="translate(-282.327 -101.458)" fill="none"/>
      <path id="Path_335" data-name="Path 335" d="M152.972,53.267c-.034,0-.067,0-.1.005v-1.5a15.98,15.98,0,0,0-31.958,0v1.5c-.034,0-.067-.005-.1-.005a4.831,4.831,0,1,0,0,9.662,5.049,5.049,0,0,0,.523-.029,16.011,16.011,0,0,0,31.113,0,5.059,5.059,0,0,0,.523.029,4.831,4.831,0,1,0,0-9.662Zm0,0" transform="translate(-96.984 -30.063)" fill="#ffceb3"/>
      <path id="Path_336" data-name="Path 336" d="M186.932,175.322a1.679,1.679,0,0,1-1.678-1.677v-2.8a1.677,1.677,0,1,1,3.355,0v2.8A1.679,1.679,0,0,1,186.932,175.322Zm0,0" transform="translate(-154.963 -141.502)" fill="#535353"/>
      <path id="Path_337" data-name="Path 337" d="M283.565,175.322a1.679,1.679,0,0,1-1.678-1.677v-2.8a1.677,1.677,0,1,1,3.355,0v2.8A1.679,1.679,0,0,1,283.565,175.322Zm0,0" transform="translate(-235.791 -141.502)" fill="#535353"/>
      <path id="Path_338" data-name="Path 338" d="M133.551,72.435a16.529,16.529,0,0,1-16.06-12.2h-.02a5.484,5.484,0,0,1-.553-10.943V48.43a16.634,16.634,0,0,1,33.267,0v.864a5.484,5.484,0,0,1-.553,10.943h-.02a16.531,16.531,0,0,1-16.06,12.2ZM117.994,58.9a.654.654,0,0,1,.636.5,15.356,15.356,0,0,0,29.84,0,.656.656,0,0,1,.706-.5,4.179,4.179,0,1,0,.458-8.328l-.093,0a.68.68,0,0,1-.471-.187.657.657,0,0,1-.2-.468v-1.5a15.325,15.325,0,0,0-30.649,0v1.5a.654.654,0,0,1-.2.467.672.672,0,0,1-.471.187l-.077,0h0a4.177,4.177,0,1,0-.01,8.352,4.34,4.34,0,0,0,.454-.025.654.654,0,0,1,.07,0Zm0,0" transform="translate(-93.642 -26.717)" fill="none"/>
      <path id="Path_339" data-name="Path 339" d="M126.02,113.754v5.771a4.878,4.878,0,0,1,3.178-1.172c.035,0,.067,0,.1.005v-1.5c0-.45.022-.9.06-1.335a7.308,7.308,0,0,1-3.34-1.772Zm0,0" transform="translate(-105.418 -95.148)" fill="#535353"/>
      <path id="Path_340" data-name="Path 340" d="M122.674,116.833a.654.654,0,0,1-.654-.654v-5.771a.654.654,0,0,1,1.1-.48,6.652,6.652,0,0,0,3.04,1.615.654.654,0,0,1,.505.695c-.039.448-.058.866-.058,1.279v1.5a.656.656,0,0,1-.667.654l-.081,0h0a4.242,4.242,0,0,0-2.758,1.016.655.655,0,0,1-.424.156Zm.654-5.09v3.218a5.541,5.541,0,0,1,1.97-.58v-.864c0-.278.007-.557.024-.844a7.986,7.986,0,0,1-1.994-.929Zm0,0" transform="translate(-102.072 -91.801)" fill="none"/>
      <path id="Path_341" data-name="Path 341" d="M301.87,32.126h-4.323a5.944,5.944,0,0,1-6.1-5.776V16.6a3.566,3.566,0,0,1,3.659-3.465h.479a8.051,8.051,0,0,1,8.26,7.824v9.295a1.928,1.928,0,0,1-1.978,1.874Zm0,0" transform="translate(-244.443 -10.985)" fill="#535353"/>
      <path id="Path_342" data-name="Path 342" d="M297.974,29.434h-4.095a6.437,6.437,0,0,1-6.43-6.43V13.253a4.124,4.124,0,0,1,4.12-4.12h.454a8.488,8.488,0,0,1,8.479,8.478v9.295a2.531,2.531,0,0,1-2.528,2.528Zm-6.405-18.993a2.815,2.815,0,0,0-2.811,2.811V23a5.127,5.127,0,0,0,5.122,5.122h4.095a1.221,1.221,0,0,0,1.219-1.22V17.611a7.178,7.178,0,0,0-7.171-7.17Zm0,0" transform="translate(-240.443 -7.639)" fill="none"/>
      <path id="Path_343" data-name="Path 343" d="M135.744,24.909H122.96a7.019,7.019,0,0,1-7.018-7.019V5.11A1.11,1.11,0,0,1,117.051,4h21.742a5.854,5.854,0,0,1,5.854,5.854v6.151a8.9,8.9,0,0,1-8.9,8.9Zm0,0" transform="translate(-96.988 -3.346)" fill="#535353"/>
      <path id="Path_344" data-name="Path 344" d="M132.4,22.218H119.614a7.681,7.681,0,0,1-7.673-7.673V1.764A1.766,1.766,0,0,1,113.706,0h21.742a6.516,6.516,0,0,1,6.509,6.509v6.151a9.569,9.569,0,0,1-9.558,9.558ZM113.706,1.309a.455.455,0,0,0-.456.455V14.545a6.372,6.372,0,0,0,6.364,6.364H132.4a8.26,8.26,0,0,0,8.25-8.25V6.509a5.206,5.206,0,0,0-5.2-5.2H113.706Zm0,0" transform="translate(-93.642 0)" fill="none"/>
      <path id="Path_346" data-name="Path 346" d="M79.9,416.289H6.731c-1.476,0-2.672-.885-2.672-1.978v-5.525c0-1.092,1.2-1.978,2.672-1.978H79.9c1.476,0,2.672.886,2.672,1.978v5.525c0,1.092-1.2,1.978-2.671,1.978Zm0,0" transform="translate(-3.405 -340.27)" fill="#ae7900"/>
      <path id="Path_347" data-name="Path 347" d="M76.551,416.924H3.385A3.33,3.33,0,0,1,.059,413.6v-7.464a3.33,3.33,0,0,1,3.326-3.326H76.551a3.33,3.33,0,0,1,3.326,3.326V413.6A3.33,3.33,0,0,1,76.551,416.924ZM3.385,404.117a2.02,2.02,0,0,0-2.018,2.018V413.6a2.02,2.02,0,0,0,2.018,2.018H76.551a2.02,2.02,0,0,0,2.018-2.018v-7.464a2.02,2.02,0,0,0-2.018-2.018Zm0,0" transform="translate(-0.059 -336.924)" fill="none"/>
      <path id="Path_348" data-name="Path 348" d="M160.844,266.173l1.535-1.5a.5.5,0,0,1,.712.008l12.173,12.457-2.255,2.2-12.173-12.456a.5.5,0,0,1,.008-.712Zm0,0" transform="translate(-134.419 -221.263)" fill="#6bdddd"/>
      <path id="Path_349" data-name="Path 349" d="M238.25,341.617l1.39,3.4a.2.2,0,0,1-.28.273L236,343.82Zm0,0" transform="translate(-197.406 -285.742)" fill="#e0ebfc"/>
      <path id="Path_350" data-name="Path 350" d="M232.507,335.732l-2.254,2.2-1.124-1.15,2.255-2.2Zm0,0" transform="translate(-191.662 -279.857)" fill="#f9a7a7"/>
      <path id="Path_351" data-name="Path 351" d="M251.733,357.229l-.413-1.009-.867.847,1,.436A.2.2,0,0,0,251.733,357.229Zm0,0" transform="translate(-209.498 -297.955)" fill="#4671c6"/>
      <path id="Path_352" data-name="Path 352" d="M157.748,259.829l-1.535,1.5a.483.483,0,0,0-.05.06l-.679-.695a1.151,1.151,0,1,1,1.646-1.609l.679.694A.564.564,0,0,0,157.748,259.829Zm0,0" transform="translate(-129.789 -216.419)" fill="#f9a7a7"/>
      <path id="Path_353" data-name="Path 353" d="M168.508,273.3a.936.936,0,0,1-.374-.079l-3.364-1.468a.651.651,0,0,1-.206-.143l-12.173-12.457a1.15,1.15,0,0,1-.33-.822c0-.039,0-.077.007-.116l-.4-.408a1.8,1.8,0,0,1,.03-2.552,1.872,1.872,0,0,1,1.282-.514,1.8,1.8,0,0,1,1.271.543l.4.409a1.153,1.153,0,0,1,.93.342l12.174,12.458a.673.673,0,0,1,.137.21l1.39,3.4a.873.873,0,0,1-.181.963A.845.845,0,0,1,168.508,273.3Zm-.436-.7h0Zm-2.661-1.991,2.247.981-.928-2.269-11.99-12.27a.654.654,0,0,1-.8-.1.647.647,0,0,1-.162-.277l-.457-.468a.493.493,0,0,0-.349-.15.533.533,0,0,0-.353.142.494.494,0,0,0-.008.7l.456.468a.654.654,0,0,1,.358.974Zm0,0" transform="translate(-126.442 -213.076)" fill="none"/>
      <path id="Path_354" data-name="Path 354" d="M85.488,301.922a1.27,1.27,0,0,0-.17-.693l-1.595-2.673-1.807-1.576A1.559,1.559,0,0,0,80.6,296.6l-5.728,1.04-.539-.056-16.8.537a4.22,4.22,0,0,0-3.71,3.448l-.558,2.267a5.547,5.547,0,0,0-.132,1.885v.01a4.028,4.028,0,0,0,3.324,3.841l3.92.4a8.726,8.726,0,0,0,5.163-1.108l8.1-4.514h0l.629.065,3.972,3.4,3.433.571a.423.423,0,0,0,.4-.18l2.913-3.458.421-2.344.052-.239a1.223,1.223,0,0,0,.024-.186l.011-.06Zm0,0" transform="translate(-44.424 -248.069)" fill="#ffceb3"/>
      <path id="Path_355" data-name="Path 355" d="M57.875,307.329a8.814,8.814,0,0,1-.917-.048l-3.92-.4a4.666,4.666,0,0,1-3.907-4.424,6.171,6.171,0,0,1,.146-2.119l.558-2.267a4.891,4.891,0,0,1,4.325-3.945l16.8-.537a.461.461,0,0,1,.088,0l.447.046,5.637-1.024A2.221,2.221,0,0,1,79,293.14l1.807,1.575a.663.663,0,0,1,.132.158l1.595,2.673a1.9,1.9,0,0,1,.264.978.642.642,0,0,1-.008.164l-.005.033a1.829,1.829,0,0,1-.035.24l-.053.241-.415,2.319a.671.671,0,0,1-.144.306l-2.914,3.458a1.065,1.065,0,0,1-1.011.4l-3.432-.572a.652.652,0,0,1-.318-.148L70.644,301.7l-.222-.023-7.917,4.413a9.494,9.494,0,0,1-4.631,1.236ZM70.96,294.9,54.2,295.43a3.59,3.59,0,0,0-3.1,2.951l-.558,2.267a4.846,4.846,0,0,0-.116,1.662,3.385,3.385,0,0,0,2.741,3.266l3.919.4a8.085,8.085,0,0,0,4.777-1.029l8.1-4.514a.667.667,0,0,1,.387-.079l.629.065a.654.654,0,0,1,.358.153l3.834,3.278,3.108.518,2.743-3.257.447-2.436a.8.8,0,0,0,.011-.1.473.473,0,0,1,.006-.052.6.6,0,0,0-.078-.313l-1.542-2.584-1.729-1.507a.911.911,0,0,0-.771-.227l-5.729,1.04a.658.658,0,0,1-.184.007Zm7.25,9.562-.007.008Zm0,0" transform="translate(-41.077 -244.722)" fill="none"/>
      <path id="Path_356" data-name="Path 356" d="M64.562,296.771l-2.715-.142,1.032-19.685a.68.68,0,0,1,.714-.643l1.358.072a.68.68,0,0,1,.643.714Zm0,0" transform="translate(-51.741 -231.108)" fill="#8a88ff"/>
      <path id="Path_357" data-name="Path 357" d="M69.33,276.371l-1.358-.071a.68.68,0,0,0-.714.643l-.176,3.349,2.715.143.176-3.349a.68.68,0,0,0-.643-.715Zm0,0" transform="translate(-56.12 -231.107)" fill="#3b39b5"/>
      <path id="Path_358" data-name="Path 358" d="M42.879,296.829H40.16V277.117a.68.68,0,0,1,.68-.68H42.2a.68.68,0,0,1,.68.68Zm0,0" transform="translate(-33.601 -231.222)" fill="#8a88ff"/>
      <path id="Path_359" data-name="Path 359" d="M42.2,276.438H40.84a.68.68,0,0,0-.68.68v3.354h2.719v-3.354A.68.68,0,0,0,42.2,276.438Zm0,0" transform="translate(-33.601 -231.223)" fill="#3b39b5"/>
      <path id="Path_360" data-name="Path 360" d="M61.216,294.08h-.035l-2.715-.142a.653.653,0,0,1-.619-.687l1.032-19.685a1.333,1.333,0,0,1,1.4-1.262l1.357.071a1.335,1.335,0,0,1,1.262,1.4L61.868,293.46a.653.653,0,0,1-.652.62Zm-2.028-1.415,1.409.074,1-19.033a.029.029,0,0,0-.024-.027l-1.358-.071c-.015.008-.026.012-.027.024Zm0,0" transform="translate(-48.394 -227.762)" fill="none"/>
      <path id="Path_361" data-name="Path 361" d="M39.533,294.133H36.814a.654.654,0,0,1-.654-.654V273.767a1.335,1.335,0,0,1,1.334-1.334h1.36a1.336,1.336,0,0,1,1.333,1.334v19.712A.654.654,0,0,1,39.533,294.133Zm-2.064-1.309h1.411V273.767a.025.025,0,0,0-.025-.026h-1.36a.026.026,0,0,0-.026.026Zm0,0" transform="translate(-30.255 -227.873)" fill="none"/>
      <path id="Path_362" data-name="Path 362" d="M33.82,323.34H28.1a.749.749,0,0,0-.748.809l1,12.156a.75.75,0,0,0,.748.687h7.03a.749.749,0,0,0,.748-.687l1-12.156a.749.749,0,0,0-.748-.809Zm0,0" transform="translate(-22.884 -270.454)" fill="#42e9a1"/>
      <path id="Path_363" data-name="Path 363" d="M32.786,334.3h-7.03a1.411,1.411,0,0,1-1.4-1.287l-1-12.156a1.4,1.4,0,0,1,1.4-1.517h9.035a1.4,1.4,0,0,1,1.4,1.517l-1,12.156a1.412,1.412,0,0,1-1.4,1.287Zm-8.033-13.652a.094.094,0,0,0-.072.031.09.09,0,0,0-.024.07l1,12.157a.1.1,0,0,0,.1.086h7.03a.1.1,0,0,0,.1-.086l1-12.157a.09.09,0,0,0-.024-.07.093.093,0,0,0-.072-.031Zm0,0" transform="translate(-19.54 -267.109)" fill="none"/>
      <path id="Path_364" data-name="Path 364" d="M86.309,360.546h23.915a1.925,1.925,0,0,1,1.9,1.085,8.052,8.052,0,0,0-1.215-3.731c-1.376-2.093-3.86-3.154-7.385-3.154-7.132,0-16.313,4.2-16.7,4.381l-.62.286v1.136c.035,0,.07,0,.105,0Zm0,0" transform="translate(-72.114 -296.723)" fill="#8a88ff"/>
      <path id="Path_365" data-name="Path 365" d="M86.207,414.617h.1c-.035,0-.07,0-.1,0Zm0,0" transform="translate(-72.117 -346.799)" fill="#f9cfcf"/>
      <path id="Path_366" data-name="Path 366" d="M402.52,414.617h.105v0C402.59,414.615,402.556,414.617,402.52,414.617Zm0,0" transform="translate(-336.693 -346.799)" fill="#f9cfcf"/>
      <path id="Path_367" data-name="Path 367" d="M246.586,360.549H270.5c.036,0,.07,0,.105,0v-1.137l-.62-.286c-.387-.178-9.569-4.38-16.7-4.38-3.524,0-6.01,1.061-7.385,3.154a8.057,8.057,0,0,0-1.215,3.731,1.926,1.926,0,0,1,1.9-1.086Zm0,0" transform="translate(-204.673 -296.727)" fill="#8a88ff"/>
      <path id="Path_368" data-name="Path 368" d="M91.672,366.9s24.771-11.438,24.175,2.913H91.672Zm0,0" transform="translate(-76.688 -303.278)" fill="#e0ebfc"/>
      <path id="Path_369" data-name="Path 369" d="M97.137,375.085V374.4c2.186-.94,9.713-3.984,15.533-3.984,2.97,0,5.074.812,6.084,2.349a4.971,4.971,0,0,1,.746,2.321Zm0,0" transform="translate(-81.259 -309.829)" fill="#8a88ff"/>
      <path id="Path_370" data-name="Path 370" d="M127.949,380.357a35.6,35.6,0,0,1,10.493-2.107c2.68,0,4.609.691,5.434,1.946.035.053.068.106.1.161Zm0,0" transform="translate(-107.031 -316.383)" fill="#e0ebfc"/>
      <path id="Path_371" data-name="Path 371" d="M274.652,366.9s-24.77-11.438-24.175,2.913h24.175Zm0,0" transform="translate(-209.509 -303.278)" fill="#e0ebfc"/>
      <path id="Path_372" data-name="Path 372" d="M256.141,375.085a4.975,4.975,0,0,1,.746-2.321c1.011-1.537,3.115-2.349,6.085-2.349,5.819,0,13.346,3.044,15.532,3.984v.686H256.141Zm0,0" transform="translate(-214.255 -309.829)" fill="#8a88ff"/>
      <path id="Path_373" data-name="Path 373" d="M264.082,380.354c.031-.054.064-.108.1-.161.825-1.255,2.755-1.947,5.435-1.947a35.575,35.575,0,0,1,10.492,2.108Zm0,0" transform="translate(-220.898 -316.38)" fill="#e0ebfc"/>
      <path id="Path_374" data-name="Path 374" d="M108.782,358.944a.653.653,0,0,1-.622-.454,1.331,1.331,0,0,0-1.278-.632H82.966l-.069,0a.636.636,0,0,1-.486-.178.654.654,0,0,1-.2-.475v-1.137a.655.655,0,0,1,.38-.594l.62-.286c.392-.181,9.694-4.44,16.975-4.44,3.759,0,6.427,1.16,7.932,3.449a8.721,8.721,0,0,1,1.32,4.03.655.655,0,0,1-.52.7.669.669,0,0,1-.132.013ZM83.516,356.55h23.366a3.256,3.256,0,0,1,.941.137,6.536,6.536,0,0,0-.8-1.769c-1.248-1.9-3.548-2.859-6.839-2.859-7,0-16.044,4.144-16.426,4.32l-.24.111v.06Zm0,0" transform="translate(-68.771 -293.381)" fill="none"/>
      <path id="Path_375" data-name="Path 375" d="M241.337,358.944a.655.655,0,0,1-.652-.716,8.719,8.719,0,0,1,1.321-4.03c1.5-2.289,4.173-3.449,7.931-3.449,7.28,0,16.583,4.26,16.975,4.44l.62.286a.654.654,0,0,1,.38.594v1.137a.654.654,0,0,1-.2.475.635.635,0,0,1-.486.178l-.069,0H243.238a1.332,1.332,0,0,0-1.278.632.655.655,0,0,1-.623.454Zm8.6-6.886c-3.29,0-5.591.962-6.838,2.859a6.531,6.531,0,0,0-.8,1.769,3.25,3.25,0,0,1,.941-.137H266.6v-.06l-.24-.111c-.382-.176-9.43-4.32-16.426-4.32Zm0,0" transform="translate(-201.326 -293.381)" fill="none"/>
      <path id="Path_376" data-name="Path 376" d="M244.684,389.191h26.4a.5.5,0,0,0,.5-.495v-2.455a.5.5,0,0,0-.5-.5H246.213a1.526,1.526,0,0,0-1.529,1.523Zm0,0" transform="translate(-204.795 -322.653)" fill="#8a88ff"/>
      <path id="Path_377" data-name="Path 377" d="M267.614,386.505H241.338a.654.654,0,0,1-.654-.654V383.93a2.179,2.179,0,0,1,2.177-2.176h24.753a1.15,1.15,0,0,1,1.149,1.149v2.454a1.15,1.15,0,0,1-1.149,1.148ZM241.992,385.2h25.462v-2.134H242.861a.869.869,0,0,0-.868.868Zm0,0" transform="translate(-201.327 -319.314)" fill="none"/>
      <path id="Path_378" data-name="Path 378" d="M105.976,389.19H79.35a.5.5,0,0,1-.5-.5v-2.448a.5.5,0,0,1,.5-.5h25.093a1.533,1.533,0,0,1,1.532,1.533Zm0,0" transform="translate(-65.965 -322.653)" fill="#8a88ff"/>
      <path id="Path_379" data-name="Path 379" d="M102.633,386.505H76.008a1.153,1.153,0,0,1-1.152-1.151v-2.448a1.153,1.153,0,0,1,1.152-1.152H101.1a2.189,2.189,0,0,1,2.186,2.187v1.91a.654.654,0,0,1-.654.654ZM76.164,385.2h25.815V383.94a.88.88,0,0,0-.879-.878H76.164Zm0,0" transform="translate(-62.622 -319.314)" fill="none"/>
      <path id="Path_380" data-name="Path 380" d="M354.394,322.9H336.96a2.307,2.307,0,0,1-2.308-2.307V308.8a2.308,2.308,0,0,1,2.308-2.308h17.434A2.308,2.308,0,0,1,356.7,308.8V320.59A2.307,2.307,0,0,1,354.394,322.9Zm0,0" transform="translate(-279.926 -256.359)" fill="#e7e6ff"/>
      <path id="Path_381" data-name="Path 381" d="M353.465,334.53v-8.2a1.026,1.026,0,0,1,1.025-1.025h13.845a1.026,1.026,0,0,1,1.025,1.025v8.2a1.026,1.026,0,0,1-1.025,1.025H354.49A1.026,1.026,0,0,1,353.465,334.53Zm0,0" transform="translate(-295.661 -272.094)" fill="#8a88ff"/>
      <path id="Path_382" data-name="Path 382" d="M390.457,293.432h-5.64v-1.659a.894.894,0,0,1,.895-.894h3.851a.9.9,0,0,1,.9.894Zm0,0" transform="translate(-321.885 -243.302)" fill="#ffb202"/>
      <path id="Path_383" data-name="Path 383" d="M351.049,320.206H333.615a2.965,2.965,0,0,1-2.962-2.961V305.451a2.966,2.966,0,0,1,2.962-2.962h17.434a2.966,2.966,0,0,1,2.962,2.962v11.794A2.965,2.965,0,0,1,351.049,320.206ZM333.615,303.8a1.656,1.656,0,0,0-1.653,1.654v11.794a1.655,1.655,0,0,0,1.653,1.654h17.434a1.655,1.655,0,0,0,1.654-1.654V305.451a1.656,1.656,0,0,0-1.654-1.654Zm0,0" transform="translate(-276.58 -253.013)" fill="none"/>
      <path id="Path_384" data-name="Path 384" d="M387.111,290.74h-5.64a.654.654,0,0,1-.654-.654v-1.658a1.551,1.551,0,0,1,1.549-1.549h3.851a1.551,1.551,0,0,1,1.549,1.549v1.658A.653.653,0,0,1,387.111,290.74Zm-4.986-1.308h4.332v-1a.241.241,0,0,0-.241-.241h-3.851a.241.241,0,0,0-.24.241Zm0,0" transform="translate(-318.539 -239.956)" fill="none"/>
      <g id="Group_52" data-name="Group 52" transform="translate(58.68 56.015)">
        <path id="Path_385" data-name="Path 385" d="M361.905,343.933a1.4,1.4,0,0,0-1.531-1.461,1.46,1.46,0,0,0-1.549,1.545l0,.167h.973l.006-.158c.009-.245.1-.656.58-.656.248,0,.532.067.532.591,0,.652-.778,1.318-1.6,2.024-.141.12-.282.242-.423.365l-.056.049v.494a.233.233,0,0,0,.233.233h2.726a.233.233,0,0,0,.233-.233v-.42a.233.233,0,0,0-.233-.233h-.772a.232.232,0,0,1-.161-.4A2.777,2.777,0,0,0,361.905,343.933Zm0,0" transform="translate(-358.821 -342.472)" fill="#fff"/>
        <path id="Path_386" data-name="Path 386" d="M379.7,343.955h.082a.233.233,0,0,1,.233.233v3.219a.233.233,0,0,0,.233.233h.539a.233.233,0,0,0,.233-.233v-4.159a.233.233,0,0,0-.233-.233H379.7a.232.232,0,0,0-.233.233v.474A.233.233,0,0,0,379.7,343.955Zm0,0" transform="translate(-376.089 -342.927)" fill="#fff"/>
        <path id="Path_387" data-name="Path 387" d="M392.78,364.285a.611.611,0,0,0-.477.983.246.246,0,0,0,.076.078.607.607,0,0,0,.988-.468A.584.584,0,0,0,392.78,364.285Zm0,0" transform="translate(-386.729 -360.717)" fill="#fff"/>
        <path id="Path_388" data-name="Path 388" d="M392.782,349.141a.611.611,0,0,0-.477.983.234.234,0,0,0,.076.078.606.606,0,0,0,.988-.467A.585.585,0,0,0,392.782,349.141Zm0,0" transform="translate(-386.731 -348.05)" fill="#fff"/>
        <path id="Path_389" data-name="Path 389" d="M403.142,342.547c-1.7,0-1.7,1.756-1.7,2.333s0,2.357,1.7,2.357,1.7-1.774,1.7-2.357S404.838,342.547,403.142,342.547Zm0,3.75c-.531,0-.71-.357-.71-1.417,0-1.029.186-1.393.71-1.393s.709.365.709,1.393C403.851,345.94,403.672,346.3,403.142,346.3Zm0,0" transform="translate(-394.473 -342.535)" fill="#fff"/>
        <path id="Path_390" data-name="Path 390" d="M426.247,342.547c-1.7,0-1.7,1.756-1.7,2.333s0,2.357,1.7,2.357,1.7-1.774,1.7-2.357S427.944,342.547,426.247,342.547Zm0,3.75c-.53,0-.709-.357-.709-1.417,0-1.029.186-1.393.709-1.393s.71.365.71,1.393C426.957,345.94,426.778,346.3,426.247,346.3Zm0,0" transform="translate(-413.8 -342.535)" fill="#fff"/>
      </g>
    </g>
    <path id="Path_391" data-name="Path 391" d="M105.671,160.1h-3.053a.474.474,0,0,0-.473.473v1.183a1.723,1.723,0,0,0,.532,1.211,2.831,2.831,0,0,0,1.685.762v.024h1.308v-.024a2.837,2.837,0,0,0,1.685-.762,1.723,1.723,0,0,0,.532-1.211v-1.183a.474.474,0,0,0-.473-.473Zm0,0" transform="translate(-8.297 3.559)" fill="#f9a7a7"/>
  </g>
</svg>
