<svg xmlns="http://www.w3.org/2000/svg" width="94.276" height="80" viewBox="0 0 94.276 80">
  <g id="Group_162" data-name="Group 162" transform="translate(-50 -805.6)">
    <g id="kyc" transform="translate(50 805.6)">
      <path id="Path_127" data-name="Path 127" d="M153.779,35.882a9.516,9.516,0,0,1-9.528-9.528,9.621,9.621,0,0,1,.36-2.554H121.07a1.677,1.677,0,0,0-1.67,1.67V78.447a1.677,1.677,0,0,0,1.67,1.67h36.18a1.677,1.677,0,0,0,1.67-1.67V34.376a9.519,9.519,0,0,1-5.141,1.506Z" transform="translate(-74.903 -16.007)" fill="#edf4fc"/>
      <path id="Path_128" data-name="Path 128" d="M64.854,28.856h-.36a7.161,7.161,0,0,0-3.634,1.015,7.076,7.076,0,0,0-6.09-3.471H51.135A12.9,12.9,0,0,0,38.3,39.235v5.73a5.12,5.12,0,0,1,4.027-1.08V43.3a.657.657,0,0,1,.655-.655h.131c2.259.458,8.939,1.277,13.49-4.42a.674.674,0,0,1,.95-.1c.033,0,.033.033.065.033a12.167,12.167,0,0,0,7.236,3.111Z" transform="translate(-20.357 -17.756)" fill="#535353"/>
      <path id="Path_129" data-name="Path 129" d="M73.194,65.007A12.059,12.059,0,0,1,65.958,61.9a.672.672,0,0,0-.95,0c-.033.033-.033.033-.033.065-4.551,5.7-11.231,4.911-13.49,4.42a.671.671,0,0,0-.786.524V77.023a12.4,12.4,0,0,0,22.494,7.2Z" transform="translate(-28.697 -42.874)" fill="#ffceb3"/>
      <path id="Path_130" data-name="Path 130" d="M196.987,208.735h-.72v-.753a.982.982,0,1,0-1.965,0v.72h-.72a.982.982,0,1,0,0,1.964h.72v.72a.982.982,0,1,0,1.965,0v-.72h.72a.985.985,0,0,0,.982-.982A.938.938,0,0,0,196.987,208.735Z" transform="translate(-104.196 -154.589)" fill="#70d6f9" stroke="#fff" stroke-width="1"/>
      <ellipse id="Ellipse_4" data-name="Ellipse 4" cx="1.048" cy="1.048" rx="1.048" ry="1.048" transform="translate(22.756 1.375)" fill="#70d6f9"/>
      <ellipse id="Ellipse_5" data-name="Ellipse 5" cx="1.048" cy="1.048" rx="1.048" ry="1.048" transform="translate(64.044 63.727)" fill="#f5c84c"/>
      <ellipse id="Ellipse_6" data-name="Ellipse 6" cx="1.048" cy="1.048" rx="1.048" ry="1.048" transform="translate(66.631 72.535)" fill="#87d147"/>
      <path id="Path_131" data-name="Path 131" d="M33.337,21.626A3.213,3.213,0,0,1,30.75,19.1c0-.033-.033-.065-.065-.033a.032.032,0,0,0-.033.033,3.172,3.172,0,0,1-2.587,2.521.07.07,0,0,0-.065.065c0,.033.033.033.065.065a3.213,3.213,0,0,1,2.587,2.521c0,.033.033.065.065.033a.032.032,0,0,0,.033-.033,3.172,3.172,0,0,1,2.587-2.521.065.065,0,0,0,0-.131Z" transform="translate(-28 -4.262)" fill="#f5c84c"/>
      <path id="Path_132" data-name="Path 132" d="M39.2,133.768a2.28,2.28,0,0,1-1.8-1.735.032.032,0,0,0-.033-.033c-.033,0-.033,0-.033.033a2.238,2.238,0,0,1-1.8,1.735.032.032,0,0,0-.033.033c0,.033,0,.033.033.033a2.28,2.28,0,0,1,1.8,1.735.032.032,0,0,0,.033.033c.033,0,.033,0,.033-.033a2.238,2.238,0,0,1,1.8-1.735c.033,0,0-.033,0-.066Z" transform="translate(-18.474 -90.838)" fill="#fc657e"/>
      <path id="Path_133" data-name="Path 133" d="M38.321,89.059v-9.4a5.192,5.192,0,0,0-1.67,10.248,4.955,4.955,0,0,0,1.7,0A7.4,7.4,0,0,1,38.321,89.059Z" transform="translate(-16.318 -54.889)" fill="#ffceb3"/>
      <path id="Path_134" data-name="Path 134" d="M57.558,159.179H42.431a1.677,1.677,0,0,1-1.67-1.67v-9.888l-1.735-.851a4,4,0,0,1-2.226-3.6V141.4a12.268,12.268,0,0,1-12.246,0v1.768a4,4,0,0,1-2.226,3.6l-2.914,1.441a10.954,10.954,0,0,1-2.259.819l-9.168,2.292a5.271,5.271,0,0,0-3.962,4.813L2.485,175.681a2.229,2.229,0,0,0,2.03,2.39H56.674a2.229,2.229,0,0,0,2.226-2.226v-.164Z" transform="translate(3.736 -98.923)" fill="#8a88ff"/>
      <path id="Path_135" data-name="Path 135" d="M77.3,147.721l-1.746-.851a3.867,3.867,0,0,1-2.134-3.579l-.106-1.791a12.415,12.415,0,0,1-12.324,0v1.768c0,1.539-.516,3.238-1.9,3.925l-2.1,1.189a11.423,11.423,0,0,0,10.165,5.331A12.562,12.562,0,0,0,77.3,148.507Z" transform="translate(-32.806 -99.593)" fill="#ffceb3"/>
      <path id="Path_136" data-name="Path 136" d="M76.983,119.411a6.5,6.5,0,0,1-5.533-3.045.844.844,0,0,1,.262-1.146.815.815,0,0,1,1.146.262,4.892,4.892,0,0,0,8.284,0,.831.831,0,0,1,1.408.884A6.671,6.671,0,0,1,76.983,119.411Z" transform="translate(-42.571 -79.214)" fill="none"/>
      <path id="Path_137" data-name="Path 137" d="M35.825,89.116A6.008,6.008,0,0,1,35.792,77.1c.327,0,.655.033.982.065a.815.815,0,0,1,.688.819v9.4a6.853,6.853,0,0,0,.033.786.794.794,0,0,1-.688.851A5,5,0,0,1,35.825,89.116Zm0-10.379a4.355,4.355,0,0,0,0,8.709V78.737Z" transform="translate(-14.64 -53.199)" fill="none"/>
      <path id="Path_138" data-name="Path 138" d="M55.007,177.346H3.045A3.039,3.039,0,0,1,0,174.3v-.229l1.539-19.547a6.031,6.031,0,0,1,4.584-5.533l9.168-2.292a12.324,12.324,0,0,0,2.1-.753l2.914-1.441a3.109,3.109,0,0,0,1.768-2.849v-1.768a.811.811,0,0,1,.819-.819.778.778,0,0,1,.393.1,11.482,11.482,0,0,0,11.427,0,.808.808,0,0,1,1.113.295.872.872,0,0,1,.1.393v1.768a3.166,3.166,0,0,0,1.768,2.849l1.735.851a.785.785,0,0,1,.458.72v9.888a.845.845,0,0,0,.851.851H55.858a.821.821,0,0,1,.819.753l1.31,16.535a3.043,3.043,0,0,1-2.783,3.274h-.2ZM23.705,141.2v.426a4.8,4.8,0,0,1-2.685,4.322l-2.914,1.441a10.2,10.2,0,0,1-2.423.884l-9.168,2.292a4.364,4.364,0,0,0-3.34,4.06L1.637,174.2a1.416,1.416,0,0,0,1.277,1.506H55.007a1.4,1.4,0,0,0,1.408-1.408v-.1l-1.244-15.782H40.8a2.487,2.487,0,0,1-2.488-2.488v-9.364l-1.277-.622a4.782,4.782,0,0,1-2.685-4.322V141.2a13.361,13.361,0,0,1-10.641,0Z" transform="translate(5.402 -97.346)" fill="none"/>
      <path id="Path_139" data-name="Path 139" d="M65.415,152.887a13.144,13.144,0,0,1-11.165-6.156.844.844,0,0,1,.262-1.146.114.114,0,0,0,.065-.033l2.128-1.048a3.109,3.109,0,0,0,1.768-2.849v-1.768a.811.811,0,0,1,.819-.819.778.778,0,0,1,.393.1,11.482,11.482,0,0,0,11.427,0,.808.808,0,0,1,1.113.295.872.872,0,0,1,.1.393v1.768a3.166,3.166,0,0,0,1.768,2.849l1.735.851a.785.785,0,0,1,.458.72v.753a.974.974,0,0,1-.164.491A13.088,13.088,0,0,1,65.415,152.887Zm-9.266-6.319a11.558,11.558,0,0,0,18.532,0l-1.277-.622a4.782,4.782,0,0,1-2.685-4.322V141.2a13.018,13.018,0,0,1-10.608,0v.426a4.8,4.8,0,0,1-2.685,4.322Z" transform="translate(-31.003 -96.011)" fill="none"/>
      <circle id="Ellipse_9" data-name="Ellipse 9" cx="9.528" cy="9.528" r="9.528" transform="translate(69.348 0.819)" fill="#58bb78"/>
      <path id="Path_140" data-name="Path 140" d="M211,27.753l-2.914-2.914a1.644,1.644,0,1,1,2.292-2.357l.033.033,1.768,1.768,3.7-3.7a1.644,1.644,0,1,1,2.357,2.292l-.033.033-4.846,4.846A1.66,1.66,0,0,1,211,27.753Z" transform="translate(-134.216 -13.51)" fill="#fff" stroke="#58bb78" stroke-width="1"/>
      <path id="Path_141" data-name="Path 141" d="M203.147,20.693a10.347,10.347,0,1,1,10.347-10.347A10.347,10.347,0,0,1,203.147,20.693Zm0-19.056a8.709,8.709,0,1,0,8.709,8.709A8.706,8.706,0,0,0,203.147,1.637Z" transform="translate(-124.27)" fill="none"/>
      <path id="Path_142" data-name="Path 142" d="M210.493,27.381a2.453,2.453,0,0,1-1.735-.72l-2.914-2.914a2.455,2.455,0,0,1,3.405-3.536l.066.065,1.179,1.179,3.111-3.111a2.455,2.455,0,0,1,3.536,3.405l-.066.065-4.846,4.846A2.453,2.453,0,0,1,210.493,27.381Zm-.589-1.866a.789.789,0,0,0,.589.229.941.941,0,0,0,.589-.229l4.846-4.846a.791.791,0,0,0,0-1.146.853.853,0,0,0-1.146,0l-3.7,3.7a.791.791,0,0,1-1.146,0l-1.768-1.768a.853.853,0,0,0-1.146,0,.791.791,0,0,0,0,1.146Z" transform="translate(-132.534 -11.828)" fill="none"/>
      <path id="Path_143" data-name="Path 143" d="M155.569,79.221h-36.18a2.487,2.487,0,0,1-2.488-2.488V23.788a2.487,2.487,0,0,1,2.488-2.488H142.93a.811.811,0,0,1,.819.819.557.557,0,0,1-.033.229,8.718,8.718,0,0,0,13.1,9.659.844.844,0,0,1,1.146.262.72.72,0,0,1,.131.426V76.765A2.531,2.531,0,0,1,155.569,79.221Zm-36.18-56.284a.845.845,0,0,0-.851.851V76.765a.845.845,0,0,0,.851.851h36.18a.845.845,0,0,0,.851-.851v-42.7A10.333,10.333,0,0,1,142.7,28.994a10.145,10.145,0,0,1-.786-6.057Z" transform="translate(-73.222 -14.326)" fill="none"/>
      <path id="Path_144" data-name="Path 144" d="M36.619,44.1a.811.811,0,0,1-.819-.819v-5.73A13.687,13.687,0,0,1,49.454,23.9h3.634a7.955,7.955,0,0,1,6.352,3.209,7.928,7.928,0,0,1,3.765-.753.85.85,0,0,1,.786.819V39.551a.811.811,0,0,1-.819.819h-.1a12.966,12.966,0,0,1-7.6-3.209C50.73,43.021,43.789,42.268,41.5,41.81V42.2a.811.811,0,0,1-.819.819h-.131a4.884,4.884,0,0,0-.688-.065,4.291,4.291,0,0,0-2.718.95A.744.744,0,0,1,36.619,44.1ZM49.454,25.537A12.045,12.045,0,0,0,37.437,37.554v4.289a5.539,5.539,0,0,1,2.423-.491A1.458,1.458,0,0,1,41.6,40.206c2.456.458,8.546,1.08,12.7-4.158a1.471,1.471,0,0,1,2.1-.229.452.452,0,0,0,.131.1,10.683,10.683,0,0,0,5.861,2.718V28.026a5.809,5.809,0,0,0-2.75.884.808.808,0,0,1-1.113-.295,6.367,6.367,0,0,0-5.37-3.078Z" transform="translate(-18.676 -16.075)" fill="none"/>
      <path id="Path_145" data-name="Path 145" d="M61.428,88.652A13.233,13.233,0,0,1,48.2,75.424V65.405a1.4,1.4,0,0,1,.557-1.146A1.445,1.445,0,0,1,50,63.965c2.39.491,8.48,1.113,12.639-4.126a1.471,1.471,0,0,1,2.1-.229.452.452,0,0,0,.131.1,11.248,11.248,0,0,0,6.778,2.881.815.815,0,0,1,.72.819V82.661a.974.974,0,0,1-.164.491A13.521,13.521,0,0,1,61.428,88.652ZM49.837,65.6v9.79a11.6,11.6,0,0,0,20.89,6.941V64.063a12.6,12.6,0,0,1-6.876-3.111C59.07,66.813,52.129,66.06,49.837,65.6Z" transform="translate(-27.016 -41.228)" fill="none"/>
      <path id="Path_146" data-name="Path 146" d="M172.278,69.937h-11.46a.819.819,0,0,1,0-1.637h11.46a.819.819,0,1,1,0,1.637Z" transform="translate(-102.21 -46.977)" fill="#f64c4c"/>
      <path id="Path_147" data-name="Path 147" d="M172.636,89.937H151.419a.819.819,0,0,1,0-1.637h21.217a.819.819,0,1,1,0,1.637Z" transform="translate(-95.888 -60.733)" fill="#58bb78"/>
      <path id="Path_148" data-name="Path 148" d="M172.636,102.637H151.419a.819.819,0,0,1,0-1.637h21.217a.819.819,0,1,1,0,1.637Z" transform="translate(-95.888 -69.468)" fill="#f64c4c"/>
      <path id="Path_149" data-name="Path 149" d="M172.636,115.337H151.419a.819.819,0,0,1,0-1.637h21.217a.819.819,0,0,1,0,1.637Z" transform="translate(-95.888 -78.203)" fill="#58bb78"/>
      <path id="Path_150" data-name="Path 150" d="M172.636,128.037H151.419a.819.819,0,0,1,0-1.637h21.217a.811.811,0,0,1,.819.819A.832.832,0,0,1,172.636,128.037Z" transform="translate(-95.888 -86.938)" fill="#f64c4c"/>
      <path id="Path_151" data-name="Path 151" d="M172.636,140.637H151.419a.819.819,0,0,1,0-1.637h21.217a.819.819,0,0,1,0,1.637Z" transform="translate(-95.888 -95.604)" fill="#58bb78"/>
      <path id="Path_152" data-name="Path 152" d="M172.636,153.337H151.419a.819.819,0,0,1,0-1.637h21.217a.819.819,0,0,1,0,1.637Z" transform="translate(-95.888 -104.339)" fill="#f64c4c"/>
      <path id="Path_153" data-name="Path 153" d="M138.941,89.937h-.622a.819.819,0,0,1,0-1.637h.622a.819.819,0,1,1,0,1.637Z" transform="translate(-87.077 -60.733)" fill="#58bb78"/>
      <path id="Path_154" data-name="Path 154" d="M138.941,102.637h-.622a.819.819,0,0,1,0-1.637h.622a.819.819,0,1,1,0,1.637Z" transform="translate(-87.077 -69.468)" fill="#f64c4c"/>
      <path id="Path_155" data-name="Path 155" d="M138.941,115.337h-.622a.819.819,0,0,1,0-1.637h.622a.819.819,0,0,1,0,1.637Z" transform="translate(-87.077 -78.203)" fill="#58bb78"/>
      <path id="Path_156" data-name="Path 156" d="M138.941,128.037h-.622a.819.819,0,0,1,0-1.637h.622a.811.811,0,0,1,.819.819A.832.832,0,0,1,138.941,128.037Z" transform="translate(-87.077 -86.938)" fill="#f64c4c"/>
      <path id="Path_157" data-name="Path 157" d="M138.941,140.637h-.622a.819.819,0,0,1,0-1.637h.622a.819.819,0,0,1,0,1.637Z" transform="translate(-87.077 -95.604)" fill="#58bb78"/>
      <path id="Path_158" data-name="Path 158" d="M138.941,153.337h-.622a.819.819,0,0,1,0-1.637h.622a.819.819,0,0,1,0,1.637Z" transform="translate(-87.077 -104.339)" fill="#f64c4c"/>
      <path id="Path_159" data-name="Path 159" d="M31.319,223.743a.811.811,0,0,1-.819-.819V210.319a.819.819,0,1,1,1.637,0v12.606A.811.811,0,0,1,31.319,223.743Z" transform="translate(-15.111 -144.725)" fill="none"/>
      <path id="Path_160" data-name="Path 160" d="M143.319,223.743a.811.811,0,0,1-.819-.819V210.319a.819.819,0,1,1,1.637,0v12.606A.811.811,0,0,1,143.319,223.743Z" transform="translate(-90.44 -144.725)" fill="none"/>
    </g>
    <path id="Path_192" data-name="Path 192" d="M105.7,160.1h-3.079a.478.478,0,0,0-.477.477v1.193a1.738,1.738,0,0,0,.536,1.221,2.855,2.855,0,0,0,1.7.768v.024H105.7v-.024a2.861,2.861,0,0,0,1.7-.768,1.738,1.738,0,0,0,.536-1.221v-1.193a.478.478,0,0,0-.477-.477Zm0,0" transform="translate(-18.981 680.927)" fill="#f9a7a7"/>
    <path id="Path_193" data-name="Path 193" d="M85.461,135.109a1.257,1.257,0,0,1-1.258-1.257v-2.1a1.257,1.257,0,1,1,2.514,0v2.1A1.256,1.256,0,0,1,85.461,135.109Zm0,0" transform="translate(-5.321 703.782)" fill="#535353"/>
    <path id="Path_194" data-name="Path 194" d="M135.069,135.109a1.257,1.257,0,0,1-1.257-1.257v-2.1a1.257,1.257,0,1,1,2.514,0v2.1A1.257,1.257,0,0,1,135.069,135.109Zm0,0" transform="translate(-43.091 703.782)" fill="#535353"/>
  </g>
</svg>
