<svg xmlns="http://www.w3.org/2000/svg" width="115.446" height="80" viewBox="0 0 115.446 80">
  <g id="Group_154" data-name="Group 154" transform="translate(-219.021 -134)">
    <path id="Path_189" data-name="Path 189" d="M39.167,24.431a6.723,6.723,0,0,1-5.412-5.275c0-.069-.069-.137-.137-.069a.067.067,0,0,0-.069.069,6.636,6.636,0,0,1-5.412,5.275.147.147,0,0,0-.137.137c0,.069.069.069.137.137a6.723,6.723,0,0,1,5.412,5.275c0,.069.069.137.137.069a.067.067,0,0,0,.069-.069A6.636,6.636,0,0,1,39.167,24.7a.137.137,0,1,0,0-.274Z" transform="translate(191.021 120.348)" fill="#ffb202"/>
    <circle id="Ellipse_10" data-name="Ellipse 10" cx="1.297" cy="1.297" r="1.297" transform="translate(226.834 191.158)" fill="#8a88ff"/>
    <path id="Path_190" data-name="Path 190" d="M199.862,209.872H198.67v-1.246a1.626,1.626,0,1,0-3.252,0v1.192h-1.192a1.626,1.626,0,0,0,0,3.252h1.192v1.192a1.626,1.626,0,1,0,3.252,0V213.07h1.192a1.63,1.63,0,0,0,1.626-1.626A1.553,1.553,0,0,0,199.862,209.872Z" transform="translate(131.975 -14.545)" fill="#8a88ff" stroke="#fff" stroke-width="2"/>
    <circle id="Ellipse_11" data-name="Ellipse 11" cx="1.51" cy="1.51" r="1.51" transform="translate(326 139.406)" fill="#ffb202"/>
    <g id="online-course" transform="translate(240.613 134)">
      <path id="Path_1" data-name="Path 1" d="M78.736,67.533H9.661a5.638,5.638,0,0,1-5.638-5.638V9.735A5.638,5.638,0,0,1,9.661,4.1H78.736a5.639,5.639,0,0,1,5.639,5.638V61.894A5.639,5.639,0,0,1,78.736,67.533Zm0,0" transform="translate(-4.022 -4.097)" fill="#fc5a69"/>
      <path id="Path_2" data-name="Path 2" d="M28.707,68.958V30.9a2.115,2.115,0,0,1,2.115-2.115H98.487A2.115,2.115,0,0,1,100.6,30.9V68.958a2.115,2.115,0,0,1-2.115,2.115H30.822A2.115,2.115,0,0,1,28.707,68.958Zm0,0" transform="translate(-24.478 -24.553)" fill="#fee1e1"/>
      <path id="Path_3" data-name="Path 3" d="M246.713,84.755h-30.15a3.426,3.426,0,0,1-3.426-3.426V56.66a3.426,3.426,0,0,1,3.426-3.426h30.15a3.426,3.426,0,0,1,3.426,3.426V81.328A3.426,3.426,0,0,1,246.713,84.755Zm0,0" transform="translate(-177.314 -44.816)" fill="#8a88ff"/>
      <path id="Path_4" data-name="Path 4" d="M249.679,92.14l-13.7,5.395A.767.767,0,0,0,236,98.967l13.715,4.991a1.557,1.557,0,0,0,1.065,0L264.5,98.966a.765.765,0,0,0,.019-1.43l-13.7-5.4A1.555,1.555,0,0,0,249.679,92.14Zm0,0" transform="translate(-195.845 -76.967)" fill="#ffb202"/>
      <path id="Path_5" data-name="Path 5" d="M246.935,101.421a2.23,2.23,0,0,1-.766-.135L232.454,96.3a1.452,1.452,0,0,1-.035-2.714l13.695-5.395a2.241,2.241,0,0,1,1.643,0l13.7,5.4a1.45,1.45,0,0,1-.035,2.711L247.7,101.286A2.234,2.234,0,0,1,246.935,101.421Zm-.319-11.959-13.7,5.395a.081.081,0,0,0,0,.151L246.637,100a.877.877,0,0,0,.6,0l13.719-4.993a.067.067,0,0,0,.051-.073.068.068,0,0,0-.049-.075l-13.7-5.4a.868.868,0,0,0-.639,0Zm0,0" transform="translate(-192.531 -73.652)" fill="none"/>
      <path id="Path_6" data-name="Path 6" d="M336.082,133.175v-8.432h0a.632.632,0,0,0-.64-.707H322.019a.736.736,0,0,0-.743.634.706.706,0,0,0,.7.779h12.348a.343.343,0,0,1,.343.343v7.384a1.432,1.432,0,0,0-.735,1.248V136.7a.353.353,0,0,0,.352.353h2.179a.353.353,0,0,0,.353-.353v-2.279A1.432,1.432,0,0,0,336.082,133.175Zm0,0" transform="translate(-266.924 -103.489)" fill="#bc8300"/>
      <path id="Path_7" data-name="Path 7" d="M280.638,147.49a1.557,1.557,0,0,1-1.065,0l-8.046-2.928v4.663a.707.707,0,0,0,.493.667c1.91.639,9.062,2.67,16.2.005a.709.709,0,0,0,.467-.659v-4.676Zm0,0" transform="translate(-225.701 -120.499)" fill="#ffb202"/>
      <path id="Path_8" data-name="Path 8" d="M277.148,148.6a28.315,28.315,0,0,1-8.66-1.379,1.394,1.394,0,0,1-.961-1.317v-4.663a.684.684,0,0,1,.919-.644l8.046,2.928a.877.877,0,0,0,.6,0l8.046-2.928a.685.685,0,0,1,.919.644v4.677a1.4,1.4,0,0,1-.912,1.3A22.8,22.8,0,0,1,277.148,148.6Zm-8.252-6.381v3.685c1.977.67,8.88,2.6,15.766.03l.017-3.714-7.122,2.592a2.243,2.243,0,0,1-1.533,0Zm8.426,1.949h0Zm0,0" transform="translate(-222.386 -117.182)" fill="none"/>
      <path id="Path_9" data-name="Path 9" d="M4.02,300.34v7.049a5.639,5.639,0,0,0,5.639,5.638H78.734a5.638,5.638,0,0,0,5.638-5.638V300.34Zm0,0" transform="translate(-4.02 -249.591)" fill="#e0ebfc"/>
      <path id="Path_10" data-name="Path 10" d="M135.14,447.23H86.232a1.978,1.978,0,0,1-1.978-1.977v-.978a1.978,1.978,0,0,1,1.978-1.977H135.14a1.978,1.978,0,0,1,1.978,1.977v.978A1.978,1.978,0,0,1,135.14,447.23Zm0,0" transform="translate(-70.509 -367.23)" fill="#e0ebfc"/>
      <path id="Path_11" data-name="Path 11" d="M128.241,374.406,125.4,386.035h38.767l-2.843-11.629Zm0,0" transform="translate(-104.605 -310.969)" fill="#6bdddd"/>
      <path id="Path_12" data-name="Path 12" d="M135.14,447.23H86.232a1.978,1.978,0,0,1-1.978-1.977v-.978a1.978,1.978,0,0,1,1.978-1.977H135.14a1.978,1.978,0,0,1,1.978,1.977v.978A1.978,1.978,0,0,1,135.14,447.23Zm0,0" transform="translate(-70.509 -367.23)" fill="#e0ebfc"/>
      <path id="Path_13" data-name="Path 13" d="M128.241,374.406,125.4,386.035h38.767l-2.843-11.629Zm0,0" transform="translate(-104.605 -310.969)" fill="#fc5a69"/>
      <path id="Path_14" data-name="Path 14" d="M70.066,86.506l-.05,0v-.761a8.049,8.049,0,0,0-16.1,0v.761l-.051,0a2.455,2.455,0,0,0-2.456,2.455A2.635,2.635,0,0,0,54.13,91.4a8.048,8.048,0,0,0,15.673,0,2.644,2.644,0,0,0,2.718-2.495,2.455,2.455,0,0,0-2.455-2.4Zm0,0" transform="translate(-43.292 -65.09)" fill="#ffceb3"/>
      <path id="Path_15" data-name="Path 15" d="M105.958,160.1h-3.471a.343.343,0,0,0-.343.343v.856a1.246,1.246,0,0,0,.385.877,2.053,2.053,0,0,0,1.22.551c.019-.011.613-.006.961,0a2.048,2.048,0,0,0,1.205-.549,1.245,1.245,0,0,0,.385-.877v-.856a.343.343,0,0,0-.343-.343Zm0,0" transform="translate(-85.335 -133.374)" fill="#f9a7a7"/>
      <path id="Path_16" data-name="Path 16" d="M44.914,208.065v-7.119a3.253,3.253,0,0,1,2.542-3.173,6.7,6.7,0,0,0-5.718,6.621v6.721h3.176Zm0,0" transform="translate(-35.277 -164.595)" fill="#f5b556"/>
      <path id="Path_17" data-name="Path 17" d="M75.526,197.309h-12a3.252,3.252,0,0,0-3.252,3.252v10.169h18.5V200.561A3.252,3.252,0,0,0,75.526,197.309Zm0,0" transform="translate(-50.64 -164.21)" fill="#fed066"/>
      <path id="Path_18" data-name="Path 18" d="M221.681,323.849h-.362a3.353,3.353,0,0,1-3.343-3.343v-.362a3.353,3.353,0,0,1,3.343-3.343h.362a3.353,3.353,0,0,1,3.343,3.343v.362A3.353,3.353,0,0,1,221.681,323.849Zm0,0" transform="translate(-181.324 -263.232)" fill="#a4c9ff"/>
      <path id="Path_20" data-name="Path 20" d="M85.106,133.809a.9.9,0,0,1-.9-.9v-1.5a.9.9,0,1,1,1.8,0v1.5A.9.9,0,0,1,85.106,133.809Zm0,0" transform="translate(-70.467 -108.846)" fill="#4671c6"/>
      <path id="Path_21" data-name="Path 21" d="M134.714,133.809a.9.9,0,0,1-.9-.9v-1.5a.9.9,0,1,1,1.8,0v1.5A.9.9,0,0,1,134.714,133.809Zm0,0" transform="translate(-111.578 -108.846)" fill="#4671c6"/>
      <path id="Path_22" data-name="Path 22" d="M104.7,160.1h-2.21a.343.343,0,0,0-.343.343v.856a1.247,1.247,0,0,0,.385.877,2.05,2.05,0,0,0,1.22.551v.017h.947v-.017a2.053,2.053,0,0,0,1.22-.551,1.247,1.247,0,0,0,.385-.877v-.856a.343.343,0,0,0-.343-.343Zm0,0" transform="translate(-85.335 -133.374)" fill="#f9a7a7"/>
      <path id="Path_23" data-name="Path 23" d="M102.624,161.1h-.947a.421.421,0,0,1-.177-.038,2.436,2.436,0,0,1-1.347-.658,1.678,1.678,0,0,1-.509-1.178v-.857a.771.771,0,0,1,.771-.771h3.471a.771.771,0,0,1,.771.771v.857a1.676,1.676,0,0,1-.509,1.178,2.431,2.431,0,0,1-1.356.66A.4.4,0,0,1,102.624,161.1Zm-.825-.857h.705a.4.4,0,0,1,.071-.015,1.63,1.63,0,0,0,.964-.428.818.818,0,0,0,.261-.575v-.771h-3.3v.771a.82.82,0,0,0,.26.575,1.635,1.635,0,0,0,.965.428A.413.413,0,0,1,101.8,160.246Zm2.087-1.789h0Zm0,0" transform="translate(-83.263 -131.305)" fill="none"/>
      <path id="Path_24" data-name="Path 24" d="M59.389,67.212H51.982a.572.572,0,0,1-.571-.571V63.951a7.108,7.108,0,0,1,7.108-7.107H62.8a1.706,1.706,0,0,1,1.706,1.706v3.545A5.118,5.118,0,0,1,59.389,67.212Zm0,0" transform="translate(-43.292 -47.808)" fill="#4671c6"/>
      <path id="Path_25" data-name="Path 25" d="M75.463,208.1h-18.5a.685.685,0,0,1-.685-.685V197.246a3.942,3.942,0,0,1,3.937-3.938h12a3.942,3.942,0,0,1,3.937,3.938v10.169a.686.686,0,0,1-.685.685Zm-17.816-1.37H74.778v-9.484a2.57,2.57,0,0,0-2.568-2.568h-12a2.57,2.57,0,0,0-2.567,2.568Zm0,0" transform="translate(-47.325 -160.895)" fill="none"/>
      <path id="Path_26" data-name="Path 26" d="M163.227,200.64a5.108,5.108,0,0,1-2.837-.858l-2.125-1.413a.686.686,0,0,1-.306-.571v-7.525a2.547,2.547,0,0,0-1.031-2.052.685.685,0,0,1,.79-1.119l4.372,2.908a.067.067,0,0,0,.083-.017l2.982-4.485a1.37,1.37,0,0,1,1.9-.382l5.278,3.509a1.369,1.369,0,0,1,.381,1.9l-5.2,7.815A5.138,5.138,0,0,1,163.227,200.64Zm-3.9-3.209,1.819,1.21a3.773,3.773,0,0,0,5.224-1.051l5.2-7.815-5.278-3.51-2.982,4.485a1.431,1.431,0,0,1-1.983.4l-2.03-1.35a3.961,3.961,0,0,1,.028.473Zm0,0" transform="translate(-130.506 -153.923)" fill="none"/>
      <path id="Path_27" data-name="Path 27" d="M155.431,197.2a.676.676,0,0,1-.342-.092l-.029-.017a.692.692,0,0,1-.217-.968.685.685,0,0,1,.948-.193l.019.013a.686.686,0,0,1-.378,1.257Zm0,0" transform="translate(-128.912 -162.975)" fill="none"/>
      <path id="Path_28" data-name="Path 28" d="M41.6,208.489H38.423a.686.686,0,0,1-.685-.685v-6.721a7.421,7.421,0,0,1,6.3-7.3.685.685,0,0,1,.248,1.346,2.582,2.582,0,0,0-2.006,2.5V207.8a.685.685,0,0,1-.685.685Zm-2.491-1.37h1.805v-9.484a3.882,3.882,0,0,1,.116-.94,6.018,6.018,0,0,0-1.921,4.388Zm0,0" transform="translate(-31.962 -161.283)" fill="none"/>
      <path id="Path_29" data-name="Path 29" d="M158.712,199.82h0l.019.012Zm0,0" transform="translate(-132.211 -166.291)" fill="#a4c9ff"/>
      <path id="Path_30" data-name="Path 30" d="M175.268,192.523l-5.278-3.509a.684.684,0,0,0-.95.191l-2.983,4.485a.746.746,0,0,1-1.033.208l-4.372-2.908a3.244,3.244,0,0,1,1.306,2.6v7.525l2.125,1.413a4.455,4.455,0,0,0,6.174-1.241l5.2-7.815A.685.685,0,0,0,175.268,192.523Zm0,0" transform="translate(-133.82 -157.241)" fill="#f5b556"/>
      <path id="Path_31" data-name="Path 31" d="M221.681,323.849h-.362a3.353,3.353,0,0,1-3.343-3.343v-.362a3.353,3.353,0,0,1,3.343-3.343h.362a3.353,3.353,0,0,1,3.343,3.343v.362A3.353,3.353,0,0,1,221.681,323.849Zm0,0" transform="translate(-181.324 -263.232)" fill="#8a88ff"/>
      <path id="Path_33" data-name="Path 33" d="M58.651,94.985a8.69,8.69,0,0,1-8.362-6.213,3.16,3.16,0,0,1-1.977-1.039,2.981,2.981,0,0,1-.9-2.09,3.148,3.148,0,0,1,2.507-3.076V82.43a8.734,8.734,0,0,1,17.469,0v.139a3.161,3.161,0,0,1,2.505,3.006,2.971,2.971,0,0,1-.851,2.1,3.151,3.151,0,0,1-2.026,1.1,8.691,8.691,0,0,1-8.363,6.213ZM50.815,87.4a.686.686,0,0,1,.667.53,7.363,7.363,0,0,0,14.338,0,.685.685,0,0,1,.74-.525,1.635,1.635,0,0,0,1.482-.674A1.616,1.616,0,0,0,68.52,85.6a1.78,1.78,0,0,0-1.757-1.731l-.064,0a.684.684,0,0,1-.685-.685v-.76a7.364,7.364,0,1,0-14.728,0v.76a.684.684,0,0,1-.7.685l-.06,0a1.768,1.768,0,0,0-1.749,1.77,1.621,1.621,0,0,0,.505,1.126,1.639,1.639,0,0,0,1.456.634.7.7,0,0,1,.074,0Zm0,0" transform="translate(-39.977 -61.773)" fill="none"/>
      <path id="Path_34" data-name="Path 34" d="M85.106,133.809a.9.9,0,0,1-.9-.9v-1.5a.9.9,0,1,1,1.8,0v1.5A.9.9,0,0,1,85.106,133.809Zm0,0" transform="translate(-70.467 -108.846)" fill="#535353"/>
      <path id="Path_35" data-name="Path 35" d="M134.714,133.809a.9.9,0,0,1-.9-.9v-1.5a.9.9,0,1,1,1.8,0v1.5A.9.9,0,0,1,134.714,133.809Zm0,0" transform="translate(-111.578 -108.846)" fill="#535353"/>
      <path id="Path_36" data-name="Path 36" d="M157.564,117.122a.688.688,0,0,1-.363-.1,1.762,1.762,0,0,0-.933-.269l-.051,0a.684.684,0,0,1-.685-.685v-.76a7.378,7.378,0,0,0-.091-1.148.685.685,0,0,1,.678-.791h1.446a.686.686,0,0,1,.685.685v2.384a.687.687,0,0,1-.686.686Zm0,0" transform="translate(-129.495 -94.648)" fill="#535353"/>
      <path id="Path_37" data-name="Path 37" d="M54.865,117.122a.686.686,0,0,1-.685-.685v-2.384a.686.686,0,0,1,.685-.685h1.446a.686.686,0,0,1,.677.792,7.444,7.444,0,0,0-.09,1.147v.761a.688.688,0,0,1-.2.489.673.673,0,0,1-.491.2l-.062,0a1.749,1.749,0,0,0-.912.269A.692.692,0,0,1,54.865,117.122Zm0,0" transform="translate(-45.587 -94.648)" fill="#535353"/>
      <path id="Path_38" data-name="Path 38" d="M66.188,56.844h-.2a1.7,1.7,0,0,0-1.593,1.1,1.7,1.7,0,0,0-1.591-1.1H58.518a7.107,7.107,0,0,0-7.107,7.107V66.64a.572.572,0,0,0,.571.571H59.39a5.119,5.119,0,0,0,4.889-3.6,3.637,3.637,0,0,0,3.636,3.6h4.251a.569.569,0,0,0,.569-.569V63.391a6.546,6.546,0,0,0-6.546-6.547Zm0,0" transform="translate(-43.292 -47.808)" fill="#535353"/>
      <path id="Path_39" data-name="Path 39" d="M56.075,64.582H48.667a1.259,1.259,0,0,1-1.257-1.257V60.636A7.8,7.8,0,0,1,55.2,52.844h4.283a2.394,2.394,0,0,1,2.391,2.391V58.78a5.81,5.81,0,0,1-5.8,5.8Zm-7.294-1.37h7.294a4.437,4.437,0,0,0,4.433-4.432V55.235a1.022,1.022,0,0,0-1.021-1.02H55.2a6.429,6.429,0,0,0-6.422,6.422Zm0,0" transform="translate(-39.977 -44.493)" fill="none"/>
      <path id="Path_40" data-name="Path 40" d="M163.227,200.64a5.108,5.108,0,0,1-2.837-.858l-2.125-1.413a.686.686,0,0,1-.306-.571v-7.525a2.547,2.547,0,0,0-1.031-2.052.685.685,0,0,1,.79-1.119l4.372,2.908a.067.067,0,0,0,.083-.017l2.982-4.485a1.37,1.37,0,0,1,1.9-.382l5.278,3.509a1.369,1.369,0,0,1,.381,1.9l-5.2,7.815A5.138,5.138,0,0,1,163.227,200.64Zm-3.9-3.209,1.819,1.21a3.773,3.773,0,0,0,5.224-1.051l5.2-7.815-5.278-3.51-2.982,4.485a1.431,1.431,0,0,1-1.983.4l-2.03-1.35a3.961,3.961,0,0,1,.028.473Zm0,0" transform="translate(-130.506 -153.923)" fill="none"/>
      <path id="Path_41" data-name="Path 41" d="M155.431,197.2a.676.676,0,0,1-.342-.092l-.029-.017a.692.692,0,0,1-.217-.968.685.685,0,0,1,.948-.193l.019.013a.686.686,0,0,1-.378,1.257Zm0,0" transform="translate(-128.912 -162.975)" fill="none"/>
      <path id="Path_42" data-name="Path 42" d="M93.747,188.848a8,8,0,0,1-3.986-1.059v3.3a1,1,0,0,0,.9,1.077h6.172a1,1,0,0,0,.9-1.077v-3.3a8,8,0,0,1-3.986,1.059Zm0,0" transform="translate(-75.073 -156.321)" fill="#ffceb3"/>
      <path id="Path_43" data-name="Path 43" d="M93.519,189.542H87.347a1.682,1.682,0,0,1-1.585-1.761v-3.3a.685.685,0,0,1,1.025-.595,7.353,7.353,0,0,0,7.292,0,.686.686,0,0,1,1.026.595v3.3a1.683,1.683,0,0,1-1.586,1.761Zm-6.387-3.969v2.208c0,.243.138.391.214.391h6.172c.076,0,.215-.149.215-.391v-2.208A8.839,8.839,0,0,1,87.132,185.573Zm0,0" transform="translate(-71.759 -153.01)" fill="none"/>
      <path id="Path_44" data-name="Path 44" d="M221.445,163.9l-2.505-1.686a2.148,2.148,0,0,1-.583-2.982l2.2-3.268a1.23,1.23,0,0,1,1.707-.333l4.03,2.712a1.23,1.23,0,0,1,.333,1.707l-2.2,3.268a2.15,2.15,0,0,1-2.983.582Zm0,0" transform="translate(-181.336 -129.497)" fill="#ffceb3"/>
      <path id="Path_45" data-name="Path 45" d="M219.322,161.635a2.813,2.813,0,0,1-1.577-.484l-2.506-1.686a2.838,2.838,0,0,1-.769-3.933l2.2-3.268a1.916,1.916,0,0,1,2.658-.519l4.03,2.713a1.914,1.914,0,0,1,.519,2.658l-2.2,3.268a2.818,2.818,0,0,1-1.807,1.2A2.949,2.949,0,0,1,219.322,161.635Zm-1.061-8.847a.561.561,0,0,0-.106.01.539.539,0,0,0-.347.231l-2.2,3.268a1.465,1.465,0,0,0,.4,2.031l2.506,1.686a1.463,1.463,0,0,0,2.031-.4l2.2-3.268a.544.544,0,0,0-.148-.756l-4.03-2.712A.541.541,0,0,0,218.261,152.788Zm0,0" transform="translate(-178.02 -126.18)" fill="none"/>
      <path id="Path_46" data-name="Path 46" d="M247.815,99.284a.716.716,0,0,0-.982.25l-9.882,16.646a.716.716,0,0,0,.616,1.082.721.721,0,0,0,.616-.351l9.881-16.646A.716.716,0,0,0,247.815,99.284Zm0,0" transform="translate(-196.965 -82.894)" fill="#e0ebfc"/>
      <path id="Path_47" data-name="Path 47" d="M237.125,164.418l2.264-.262.559,4.833a.362.362,0,0,1-.317.4,1.918,1.918,0,0,1-2.126-1.686Zm0,0" transform="translate(-197.192 -136.737)" fill="#ffceb3"/>
      <g id="Group_1" data-name="Group 1" transform="translate(16.638 8.351)">
        <path id="Path_48" data-name="Path 48" d="M216.73,160.043a.682.682,0,0,1-.355-.1l-1.644-1a.69.69,0,0,1-.2-.189,2.847,2.847,0,0,1-.044-3.224l2.2-3.268a1.918,1.918,0,0,1,2.659-.519l.185.124a.713.713,0,0,1,.118.1l1.085,1.163a.688.688,0,0,1,.179.389l.558,4.833a1.046,1.046,0,0,1-.919,1.16,2.589,2.589,0,0,1-1.916-.546,2.639,2.639,0,0,1-.443-.447l-.907,1.241a.686.686,0,0,1-.554.281Zm-1.154-2.188.973.591,1.085-1.485-.045-.391a.647.647,0,0,1,0-.08.685.685,0,0,1,1.366-.078l.076.657a1.232,1.232,0,0,0,1.039,1.077l-.49-4.244-.878-.941-.12-.08a.545.545,0,0,0-.756.147l-2.2,3.268A1.47,1.47,0,0,0,215.575,157.855Zm0,0" transform="translate(-194.671 -134.532)" fill="none"/>
        <path id="Path_49" data-name="Path 49" d="M102.921,162.068H102.9a2.21,2.21,0,0,1-1.322-.6,1.421,1.421,0,0,1-.435-1v-.857a.514.514,0,0,1,.514-.514h3.471a.515.515,0,0,1,.514.514v.857a1.424,1.424,0,0,1-.435,1,2.207,2.207,0,0,1-1.306.6c-.759-.006-.916,0-.95,0A.174.174,0,0,1,102.921,162.068Zm-1.262-2.627a.172.172,0,0,0-.171.171v.857a1.067,1.067,0,0,0,.335.755,1.863,1.863,0,0,0,1.1.5c.1-.008.327-.008.96,0a1.856,1.856,0,0,0,1.082-.5,1.082,1.082,0,0,0,.335-.755v-.857a.172.172,0,0,0-.171-.171Zm0,0" transform="translate(-101.145 -140.896)" fill="none"/>
        <path id="Path_55" data-name="Path 55" d="M131.1,64.582h-4.251a4.336,4.336,0,0,1-4.321-4.281.7.7,0,0,1,.031-.209,4.433,4.433,0,0,0,.2-1.313V55.234a1,1,0,0,0-.07-.359.687.687,0,0,1,0-.486,2.4,2.4,0,0,1,2.233-1.546h.2a7.241,7.241,0,0,1,7.232,7.233v3.252a1.256,1.256,0,0,1-1.255,1.254Zm-7.2-4.2a2.962,2.962,0,0,0,2.948,2.825h4.135V60.076a5.868,5.868,0,0,0-5.861-5.862h-.2a1.011,1.011,0,0,0-.859.474,2.314,2.314,0,0,1,.067.546V58.78a5.81,5.81,0,0,1-.226,1.607Zm0,0" transform="translate(-118.864 -52.844)" fill="none"/>
      </g>
    </g>
  </g>
</svg>
