<svg xmlns="http://www.w3.org/2000/svg" width="109.663" height="80" viewBox="0 0 109.663 80">
  <g id="Group_172" data-name="Group 172" transform="translate(-42.5 -1318)">
    <path id="Path_426" data-name="Path 426" d="M35.2,22.525a4.337,4.337,0,0,1-3.492-3.4c0-.044-.044-.088-.088-.044a.043.043,0,0,0-.044.044,4.282,4.282,0,0,1-3.492,3.4.1.1,0,0,0-.088.088c0,.044.044.044.088.088a4.337,4.337,0,0,1,3.492,3.4c0,.044.044.088.088.044a.043.043,0,0,0,.044-.044A4.282,4.282,0,0,1,35.2,22.7a.088.088,0,0,0,0-.177Z" transform="translate(114.692 1302.704)" fill="#f5c84c"/>
    <path id="Path_425" data-name="Path 425" d="M32.3,21.128A2.59,2.59,0,0,1,30.217,19.1c0-.026-.026-.053-.053-.026a.026.026,0,0,0-.026.026,2.557,2.557,0,0,1-2.085,2.032.057.057,0,0,0-.053.053c0,.026.026.026.053.053a2.59,2.59,0,0,1,2.085,2.032c0,.026.026.053.053.026a.026.026,0,0,0,.026-.026A2.557,2.557,0,0,1,32.3,21.234a.053.053,0,0,0,0-.106Z" transform="translate(119.808 1370.986)" fill="#e64c3c"/>
    <ellipse id="Ellipse_42" data-name="Ellipse 42" cx="2.138" cy="2.138" rx="2.138" ry="2.138" transform="translate(48.563 1385.768)" fill="#f5c84c"/>
    <path id="Path_427" data-name="Path 427" d="M197.144,208.8H196.4v-.78a1.017,1.017,0,1,0-2.035,0v.746h-.746a1.017,1.017,0,0,0,0,2.035h.746v.746a1.017,1.017,0,1,0,2.035,0V210.8h.746a1.02,1.02,0,0,0,1.017-1.017A.972.972,0,0,0,197.144,208.8Z" transform="translate(-149.6 1121.4)" fill="#70d6f9" stroke="#fff" stroke-width="1"/>
    <ellipse id="Ellipse_41" data-name="Ellipse 41" cx="1.374" cy="1.374" rx="1.374" ry="1.374" transform="translate(142.121 1362.521)" fill="#70d6f9"/>
    <g id="graph" transform="translate(53 1287)">
      <g id="Group_168" data-name="Group 168" transform="translate(58.667 47)">
        <path id="Path_716" data-name="Path 716" d="M334,123.667v10.667c0,1.472-.9,2.667-2,2.667s-2-1.195-2-2.667V123.667c0-1.472.9-2.667,2-2.667S334,122.195,334,123.667Z" transform="translate(-330 -121)" fill="#fabe2c"/>
      </g>
      <g id="Group_169" data-name="Group 169" transform="translate(69.333 41.667)">
        <path id="Path_717" data-name="Path 717" d="M394,93.667v16c0,1.472-.9,2.667-2,2.667s-2-1.195-2-2.667v-16c0-1.472.9-2.667,2-2.667S394,92.195,394,93.667Z" transform="translate(-390 -91)" fill="#6aa9ff"/>
      </g>
      <g id="Group_170" data-name="Group 170" transform="translate(80 36.333)">
        <path id="Path_718" data-name="Path 718" d="M454,63.667V85c0,1.472-.9,2.667-2,2.667s-2-1.195-2-2.667V63.667c0-1.472.9-2.667,2-2.667S454,62.195,454,63.667Z" transform="translate(-450 -61)" fill="#ff435b"/>
      </g>
      <path id="Path_719" data-name="Path 719" d="M86.48,33.667V68.333L63.9,66.911,46.8,55.8A39.949,39.949,0,0,1,83.813,31,2.668,2.668,0,0,1,86.48,33.667Z" transform="translate(-38.48)" fill="#fed843"/>
      <path id="Path_720" data-name="Path 720" d="M207.17,243.667a39.977,39.977,0,0,1-37.333,39.911q-1.323.088-2.667.089a39.913,39.913,0,0,1-18.99-4.788l5.316-21.7L169.837,241H204.5A2.668,2.668,0,0,1,207.17,243.667Z" transform="translate(-121.837 -172.667)" fill="#ff7b4a"/>
      <path id="Path_721" data-name="Path 721" d="M307.333,243.667A39.977,39.977,0,0,1,270,283.578V241h34.667A2.668,2.668,0,0,1,307.333,243.667Z" transform="translate(-222 -172.667)" fill="#ff435b"/>
      <path id="Path_722" data-name="Path 722" d="M48,178.575,24.978,218.841a2.667,2.667,0,0,1-3.676.846A45.4,45.4,0,0,1,2.315,166.9a2.669,2.669,0,0,1,3.374-1.687Z" transform="translate(0 -110.241)" fill="#7ed8f6"/>
      <g id="Group_171" data-name="Group 171" transform="translate(53.333 57.667)">
        <path id="Path_723" data-name="Path 723" d="M337.689,183.667a2.668,2.668,0,0,1-2.667,2.667H302.667a2.667,2.667,0,1,1,0-5.333h32.356A2.668,2.668,0,0,1,337.689,183.667Z" transform="translate(-300 -181)" fill="#61729b"/>
      </g>
    </g>
  </g>
</svg>
