<svg xmlns="http://www.w3.org/2000/svg" width="102.48" height="80" viewBox="0 0 102.48 80">
  <g id="Group_177" data-name="Group 177" transform="translate(-228.519 -298)">
    <ellipse id="Ellipse_26" data-name="Ellipse 26" cx="1.048" cy="1.048" rx="1.048" ry="1.048" transform="translate(295.045 370.183)" fill="#87d147"/>
    <g id="Group_176" data-name="Group 176">
      <circle id="Ellipse_25" data-name="Ellipse 25" cx="1.561" cy="1.561" r="1.561" transform="translate(235.958 306.007)" fill="#70d6f9"/>
      <path id="Path_272" data-name="Path 272" d="M199.156,209.593h-1.076v-1.125a1.468,1.468,0,1,0-2.935,0v1.076h-1.076a1.468,1.468,0,0,0,0,2.935h1.076v1.076a1.468,1.468,0,1,0,2.935,0v-1.076h1.076a1.472,1.472,0,0,0,1.468-1.468A1.4,1.4,0,0,0,199.156,209.593Z" transform="translate(129.373 92.139)" fill="#70d6f9" stroke="#fff" stroke-width="2"/>
      <path id="Path_271" data-name="Path 271" d="M41.518,134.876a3.709,3.709,0,0,1-2.929-2.823.052.052,0,0,0-.053-.053c-.053,0-.053,0-.053.053a3.64,3.64,0,0,1-2.929,2.823.052.052,0,0,0-.053.053c0,.053,0,.053.053.053a3.709,3.709,0,0,1,2.929,2.823.052.052,0,0,0,.053.053c.053,0,.053,0,.053-.053a3.64,3.64,0,0,1,2.929-2.823c.053,0,0-.053,0-.107Z" transform="translate(193.019 224.831)" fill="#fc657e"/>
      <g id="immigration" transform="translate(218 267.363)">
        <path id="Path_769" data-name="Path 769" d="M56.12,376.938a7.738,7.738,0,0,0-4.125-5.383l-9.047-3.862v-.236a16.111,16.111,0,0,1-13.647,0v.236l-9.047,3.862A7.741,7.741,0,0,0,16,377.838v9.836H56.249v-9.836A7.175,7.175,0,0,0,56.12,376.938Z" transform="translate(0 -277.037)" fill="#fc5a69"/>
        <path id="Path_770" data-name="Path 770" d="M25.579,371.554l6.984-2.982a16.085,16.085,0,0,1-3.262-1.117v.236l-9.047,3.862A7.741,7.741,0,0,0,16,377.837v9.836h5.325v-9.836a7.741,7.741,0,0,1,4.254-6.283Z" transform="translate(0 -277.036)" fill="#ff7582"/>
        <path id="Path_771" data-name="Path 771" d="M237.5,49.047H189.582a3.55,3.55,0,0,0-3.55,3.55V62.648a14.662,14.662,0,0,1,4.04,10.124V78.39h.348a2.781,2.781,0,0,1,2.488,2.119,3.7,3.7,0,0,1-2.948,4.522v1.825a14.356,14.356,0,0,1-3.93,9.888l0,0v10.433l5.815,2.481a7.739,7.739,0,0,1,4.125,5.383H237.5a3.549,3.549,0,0,0,3.55-3.55V52.6a3.55,3.55,0,0,0-3.55-3.55Z" transform="translate(-139.851 -15.142)" fill="#edf4fc"/>
        <circle id="Ellipse_63" data-name="Ellipse 63" cx="10.649" cy="10.649" r="10.649" transform="translate(53.605 45.063)" fill="#49c160"/>
        <path id="Path_772" data-name="Path 772" d="M231.389,122.564a10.652,10.652,0,0,1,8.874-10.5,10.649,10.649,0,1,0,0,21A10.651,10.651,0,0,1,231.389,122.564Z" transform="translate(-174.235 -66.851)" fill="#5ae070"/>
        <path id="Path_773" data-name="Path 773" d="M72.494,120.181v.163s-12.568,2.215-21-5.295a44.354,44.354,0,0,1-5.2.131l-.392,6.438a.3.3,0,0,1-.433.241l-1.739-.893a1.2,1.2,0,0,1-.65-.985v-5.419a14.707,14.707,0,1,1,29.414,0Z" transform="translate(-22.274 -56.934)" fill="#535353"/>
        <path id="Path_774" data-name="Path 774" d="M50.937,104.165a14.661,14.661,0,0,1,8.637-4.2,14.71,14.71,0,0,0-16.494,14.6v5.419a1.2,1.2,0,0,0,.65.985l1.739.893a.3.3,0,0,0,.433-.241s-.764-11.655,5.035-17.454Z" transform="translate(-22.274 -56.934)" fill="#5d5d5d"/>
        <path id="Path_775" data-name="Path 775" d="M104.587,332.247V338.5a16.113,16.113,0,0,1-13.647,0v-5.784A14.427,14.427,0,0,0,104.587,332.247Z" transform="translate(-61.639 -248.077)" fill="#ffceb3"/>
        <path id="Path_776" data-name="Path 776" d="M94.49,340.651v-4.573a14.323,14.323,0,0,1-3.55-1.211v5.784a16.109,16.109,0,0,0,8.6,1.418,16.1,16.1,0,0,1-5.049-1.418Z" transform="translate(-61.639 -250.232)" fill="#ffc3a2"/>
        <path id="Path_777" data-name="Path 777" d="M53.262,211.511a14.412,14.412,0,0,1-21.668-12.456V197.23a3.705,3.705,0,0,1-2.95-4.522,2.783,2.783,0,0,1,2.49-2.119l.016,0a1.2,1.2,0,0,0,.619.79l1.739.893a.3.3,0,0,0,.433-.241l.392-6.438a44.354,44.354,0,0,0,5.2-.131c8.427,7.51,21,5.295,21,5.295v-.163h.348a2.781,2.781,0,0,1,2.488,2.119,3.7,3.7,0,0,1-2.948,4.522v1.825a14.356,14.356,0,0,1-3.93,9.888c-.094.1-.193.2-.293.3a14.425,14.425,0,0,1-2.937,2.265Z" transform="translate(-10.314 -127.341)" fill="#ffceb3"/>
        <path id="Path_778" data-name="Path 778" d="M43.158,235.741a14.413,14.413,0,0,1-8.021-12.921v-1.825a3.705,3.705,0,0,1-2.95-4.522,2.8,2.8,0,0,1,.4-.909l-.827-.424a1.2,1.2,0,0,1-.619-.79l-.016,0a2.783,2.783,0,0,0-2.49,2.119A3.7,3.7,0,0,0,31.587,221v1.825A14.407,14.407,0,0,0,46,237.234a14.56,14.56,0,0,0,1.772-.11,14.328,14.328,0,0,1-4.615-1.384Z" transform="translate(-10.307 -151.106)" fill="#ffc3a2"/>
        <g id="Group_175" data-name="Group 175" transform="translate(55.618 46.605)">
          <path id="Path_779" data-name="Path 779" d="M405.569,223.816h-7.786a1.065,1.065,0,0,1,0-2.13h7.786a1.065,1.065,0,0,1,0,2.13Z" transform="translate(-368.762 -203.744)" fill="#fc5a69"/>
          <path id="Path_780" data-name="Path 780" d="M359.834,223.816h-2.612a1.065,1.065,0,0,1,0-2.13h2.612a1.065,1.065,0,0,1,0,2.13Z" transform="translate(-335.4 -203.744)" fill="#42e9a1"/>
          <path id="Path_781" data-name="Path 781" d="M429.4,288.712h-2.644a1.065,1.065,0,1,1,0-2.13H429.4a1.065,1.065,0,0,1,0,2.13Z" transform="translate(-392.591 -257.122)" fill="#42e9a1"/>
          <path id="Path_782" data-name="Path 782" d="M340.646,288.712h-14.1a1.065,1.065,0,0,1,0-2.13h14.1a1.065,1.065,0,0,1,0,2.13Z" transform="translate(-310.167 -257.122)" fill="#42e9a1"/>
          <path id="Path_783" data-name="Path 783" d="M301.092,288.712h-.952a1.065,1.065,0,0,1,0-2.13h.952a1.065,1.065,0,0,1,0,2.13Z" transform="translate(-288.451 -257.122)" fill="#70d6f9"/>
          <path id="Path_784" data-name="Path 784" d="M246.315,288.712h-6.038a1.065,1.065,0,1,1,0-2.13h6.038a1.065,1.065,0,0,1,0,2.13Z" transform="translate(-239.212 -257.122)" fill="#70d6f9"/>
          <path id="Path_785" data-name="Path 785" d="M413.408,348.693h-6.094a1.065,1.065,0,0,1,0-2.13h6.094a1.065,1.065,0,0,1,0,2.13Z" transform="translate(-376.602 -306.457)" fill="#42e9a1"/>
          <path id="Path_786" data-name="Path 786" d="M382.231,348.693h-.766a1.065,1.065,0,0,1,0-2.13h.765a1.065,1.065,0,0,1,0,2.13Z" transform="translate(-355.341 -306.457)" fill="#42e9a1"/>
          <path id="Path_787" data-name="Path 787" d="M337.754,348.693h-5.789a1.065,1.065,0,0,1,0-2.13h5.789a1.065,1.065,0,0,1,0,2.13Z" transform="translate(-314.626 -306.457)" fill="#fc5a69"/>
          <path id="Path_788" data-name="Path 788" d="M251.854,348.693H240.277a1.065,1.065,0,1,1,0-2.13h11.577a1.065,1.065,0,0,1,0,2.13Z" transform="translate(-239.212 -306.457)" fill="#fc5a69"/>
          <path id="Path_789" data-name="Path 789" d="M438.464,172.73h-.687a1.065,1.065,0,0,1,0-2.13h.687a1.065,1.065,0,0,1,0,2.13Z" transform="translate(-401.658 -161.726)" fill="#fc5a69"/>
          <path id="Path_790" data-name="Path 790" d="M376.952,172.73H369.4a1.065,1.065,0,0,1,0-2.13h7.548a1.065,1.065,0,0,1,0,2.13Z" transform="translate(-345.42 -161.726)" fill="#fc5a69"/>
          <path id="Path_791" data-name="Path 791" d="M406.39,122.73h-7.608a1.065,1.065,0,0,1,0-2.13h7.608a1.065,1.065,0,0,1,0,2.13Z" transform="translate(-369.584 -120.6)" fill="#42e9a1"/>
          <path id="Path_792" data-name="Path 792" d="M370.031,122.73H369.4a1.065,1.065,0,0,1,0-2.13h.627a1.065,1.065,0,0,1,0,2.13Z" transform="translate(-345.42 -120.6)" fill="#42e9a1"/>
        </g>
        <path id="Path_793" data-name="Path 793" d="M255.511,153.914a1.065,1.065,0,0,1-.753-.312l-3.035-3.036a1.065,1.065,0,1,1,1.506-1.506l2.283,2.283,7.026-7.027a1.065,1.065,0,1,1,1.506,1.506l-7.78,7.78a1.065,1.065,0,0,1-.753.312Z" transform="translate(-193.628 -93.246)" fill="#f4f8fc"/>
        <path id="Path_794" data-name="Path 794" d="M255.45,30.637H287.6v6.1H255.45Z" transform="translate(-196.45)" fill="#475673"/>
      </g>
    </g>
  </g>
</svg>
