<svg xmlns="http://www.w3.org/2000/svg" width="83.204" height="80" viewBox="0 0 83.204 80">
  <g id="Group_165" data-name="Group 165" transform="translate(-227 -975.609)">
    <path id="Path_268" data-name="Path 268" d="M33.331,21.623A3.209,3.209,0,0,1,30.747,19.1c0-.033-.033-.065-.065-.033a.032.032,0,0,0-.033.033,3.168,3.168,0,0,1-2.584,2.518.07.07,0,0,0-.065.065c0,.033.033.033.065.065a3.209,3.209,0,0,1,2.584,2.518c0,.033.033.065.065.033a.032.032,0,0,0,.033-.033,3.168,3.168,0,0,1,2.584-2.518.065.065,0,1,0,0-.131Z" transform="translate(206.357 999.233)" fill="#f5c84c"/>
    <ellipse id="Ellipse_21" data-name="Ellipse 21" cx="1.047" cy="1.047" rx="1.047" ry="1.047" transform="translate(293.276 1037.221)" fill="#f5c84c"/>
    <ellipse id="Ellipse_22" data-name="Ellipse 22" cx="1.047" cy="1.047" rx="1.047" ry="1.047" transform="translate(238.706 981.677)" fill="#f5c84c"/>
    <path id="Path_270" data-name="Path 270" d="M196.982,208.733h-.719v-.752a.981.981,0,1,0-1.962,0v.719h-.719a.981.981,0,1,0,0,1.962h.719v.719a.981.981,0,1,0,1.962,0v-.719h.719a.984.984,0,0,0,.981-.981A.937.937,0,0,0,196.982,208.733Z" transform="translate(102.769 805.928)" fill="#70d6f9" stroke="#fff" stroke-width="1"/>
    <ellipse id="Ellipse_23" data-name="Ellipse 23" cx="1.047" cy="1.047" rx="1.047" ry="1.047" transform="translate(227 1041.288)" fill="#70d6f9"/>
    <g id="Group_21" data-name="Group 21" transform="translate(240.642 975.609)">
      <g id="Group_20" data-name="Group 20" transform="translate(0 11.069)">
        <g id="teacher_1_" data-name="teacher (1)" transform="translate(0 0)">
          <g id="Group_10" data-name="Group 10" transform="translate(0 0)">
            <path id="Path_228" data-name="Path 228" d="M130.747,27.678l1.727-1.553C138.482.108,120.069,2.854,120.069,2.854s-5.557-4.912-15.552-1.846C94.759,4,93.932,10.671,88.286,14.036a.751.751,0,0,0-.1,1.226,7.653,7.653,0,0,0,4.932,1.653,34.142,34.142,0,0,0,.849,9.177l1.721,1.586h35.06Z" transform="translate(-87.913 0)" fill="#2d4456"/>
            <path id="Path_229" data-name="Path 229" d="M135.024,156.6a4.716,4.716,0,0,0-4.622,3.78q.17.78.372,1.586h4.737v-5.341A4.721,4.721,0,0,0,135.024,156.6Z" transform="translate(-124.348 -135.614)" fill="#2d4456"/>
            <path id="Path_230" data-name="Path 230" d="M369.505,161.964q.2-.794.378-1.553a4.716,4.716,0,0,0-4.628-3.813,4.8,4.8,0,0,0-.488.025v5.341h4.737Z" transform="translate(-325.323 -135.613)" fill="#2d4456"/>
            <path id="Path_231" data-name="Path 231" d="M136.1,181.215v-5.667a4.784,4.784,0,0,0-.488-.025,4.717,4.717,0,0,0-4.519,3.367c-.127.427,1.915,4.716,4.519,4.716l.523-1.378Q136.1,181.726,136.1,181.215Z" transform="translate(-124.932 -152.064)" fill="#ffceb3"/>
            <path id="Path_232" data-name="Path 232" d="M134.464,202.522a4.716,4.716,0,0,1-4.518-3.367,4.718,4.718,0,0,0,5.48,5.965l1.069-1.293-1.506-1.334A4.715,4.715,0,0,1,134.464,202.522Z" transform="translate(-123.788 -172.484)" fill="#ffceb3"/>
            <path id="Path_233" data-name="Path 233" d="M150.783,333.372H108.294l-1.348-1.348v-9.335a17.423,17.423,0,0,1,17.423-17.423h10.339a17.423,17.423,0,0,1,17.423,17.423v9.335Z" transform="translate(-104.234 -265.79)" fill="#8a88ff"/>
            <path id="Path_234" data-name="Path 234" d="M107.695,495.772h7.053l1.123-1.348,1.123,1.348h25.087l1.123-1.348,1.123,1.348h7.053a.749.749,0,0,0,.749-.749v-1.947H106.946v1.947A.749.749,0,0,0,107.695,495.772Z" transform="translate(-104.234 -426.841)" fill="#726ff2"/>
            <path id="Path_235" data-name="Path 235" d="M235.079,342.151,237.7,340.8l2.621,1.348,2,10.961-.547,1.9-4.074,4.115-4.043-4.084-.578-1.932Z" transform="translate(-212.396 -296.264)" fill="#ff5876"/>
            <path id="Path_236" data-name="Path 236" d="M235.017,431.328l-4.089-4.13-.345,1.893a.749.749,0,0,0,.2.661l4.23,4.273a.749.749,0,0,0,1.065,0l4.229-4.272a.749.749,0,0,0,.2-.661l-.345-1.893-4.088,4.13a.749.749,0,0,1-1.064,0Z" transform="translate(-210.245 -370.349)" fill="#e6485d"/>
            <path id="Path_237" data-name="Path 237" d="M237.373,311.677h-5.242l-2.49-6.411h10.222Z" transform="translate(-209.448 -264.399)" fill="#e6485d"/>
            <path id="Path_238" data-name="Path 238" d="M364.553,181.215v-5.667a4.786,4.786,0,0,1,.488-.025,4.717,4.717,0,0,1,4.519,3.367c.127.427-1.915,4.716-4.519,4.716l-.523-1.378Q364.553,181.726,364.553,181.215Z" transform="translate(-325.108 -152.064)" fill="#ffceb3"/>
            <path id="Path_239" data-name="Path 239" d="M355.968,202.522a4.716,4.716,0,0,0,4.518-3.367,4.718,4.718,0,0,1-5.48,5.965l-1.069-1.293,1.506-1.334A4.721,4.721,0,0,0,355.968,202.522Z" transform="translate(-316.035 -172.484)" fill="#ffceb3"/>
            <path id="Path_240" data-name="Path 240" d="M185.106,78.961c-5.344,5.978-15.55,7.791-18.2,8.171a.747.747,0,0,0-.641.741v8.98a14.141,14.141,0,1,0,28.282,0V87.97a.746.746,0,0,0-.447-.685,15.793,15.793,0,0,1-7.759-8.126A.748.748,0,0,0,185.106,78.961Z" transform="translate(-155.102 -68.609)" fill="#ffceb3"/>
            <circle id="Ellipse_16" data-name="Ellipse 16" cx="5.829" cy="5.829" r="5.829" transform="matrix(0.192, -0.981, 0.981, 0.192, 10.136, 31.108)" fill="#e4eef9"/>
            <circle id="Ellipse_17" data-name="Ellipse 17" cx="5.829" cy="5.829" r="5.829" transform="matrix(0.994, -0.106, 0.106, 0.994, 27.196, 21.3)" fill="#e4eef9"/>
            <path id="Path_243" data-name="Path 243" d="M161.7,493.076h2.247v2.7H161.7Z" transform="translate(-151.191 -426.841)" fill="#4845c5"/>
            <path id="Path_245" data-name="Path 245" d="M353.558,493.076H355.8v2.7h-2.247Z" transform="translate(-315.71 -426.841)" fill="#4845c5"/>
            <path id="Path_450" data-name="Path 450" d="M105.7,160.1h-3.075a.477.477,0,0,0-.477.477v1.192a1.736,1.736,0,0,0,.535,1.22,2.852,2.852,0,0,0,1.7.767v.024h1.318v-.024a2.857,2.857,0,0,0,1.7-.767,1.736,1.736,0,0,0,.535-1.22v-1.192a.477.477,0,0,0-.477-.477Zm0,0" transform="translate(-79.732 -126.049)" fill="#f9a7a7"/>
          </g>
          <g id="Group_12" data-name="Group 12" transform="translate(17.316 23.867)">
            <g id="Group_11" data-name="Group 11" transform="translate(0 0)">
              <path id="Path_247" data-name="Path 247" d="M210.573,181.709a1.063,1.063,0,0,0,1.126-.986v-2.782a1.135,1.135,0,0,0-2.251,0v2.782A1.063,1.063,0,0,0,210.573,181.709Z" transform="translate(-209.447 -176.955)" fill="#2d4456"/>
              <path id="Path_248" data-name="Path 248" d="M306.94,176.956a1.063,1.063,0,0,0-1.126.986v2.782a1.135,1.135,0,0,0,2.251,0v-2.782A1.063,1.063,0,0,0,306.94,176.956Z" transform="translate(-292.084 -176.956)" fill="#2d4456"/>
            </g>
          </g>
          <path id="Path_249" data-name="Path 249" d="M181.956,147.3a6.962,6.962,0,0,0-6.86,5.829h-2.9a6.952,6.952,0,1,0,0,2.247h2.9a6.952,6.952,0,1,0,6.86-8.076ZM165.332,158.96a4.705,4.705,0,1,1,4.705-4.705A4.711,4.711,0,0,1,165.332,158.96Zm16.624,0a4.705,4.705,0,1,1,4.705-4.705A4.711,4.711,0,0,1,181.956,158.96Z" transform="translate(-148.34 -127.744)" fill="#2d4456"/>
        </g>
      </g>
      <circle id="Ellipse_20" data-name="Ellipse 20" cx="11.12" cy="11.12" r="11.12" transform="translate(47.322)" fill="#58bb78"/>
      <path id="Path_267" data-name="Path 267" d="M341.935,51.347a1.223,1.223,0,0,1-.867-.359l-2.952-2.952A1.227,1.227,0,0,1,339.85,46.3l2.085,2.085,5.376-5.376a1.227,1.227,0,0,1,1.735,1.735L342.8,50.988A1.224,1.224,0,0,1,341.935,51.347Z" transform="translate(-285.139 -35.879)" fill="#fff"/>
    </g>
    <path id="Path_269" data-name="Path 269" d="M39.2,133.766a2.278,2.278,0,0,1-1.8-1.733.032.032,0,0,0-.033-.033c-.033,0-.033,0-.033.033a2.235,2.235,0,0,1-1.8,1.733.032.032,0,0,0-.033.033c0,.033,0,.033.033.033a2.278,2.278,0,0,1,1.8,1.733.032.032,0,0,0,.033.033c.033,0,.033,0,.033-.033a2.235,2.235,0,0,1,1.8-1.733c.033,0,0-.033,0-.065Z" transform="translate(266.449 917.844)" fill="#fc657e"/>
  </g>
</svg>
